SplineFontDB: 3.0
FontName: Mina-Regular
FullName: Mina
FamilyName: Mina
Weight: Regular
Copyright: Copyright (c) 2015, SAI
UComments: "2015-7-16: Created with FontForge (http://fontforge.org)"
Version: 001.000
ItalicAngle: 0
UnderlinePosition: -24
UnderlineWidth: 24
Ascent: 800
Descent: 200
InvalidEm: 0
LayerCount: 2
Layer: 0 0 "Back" 1
Layer: 1 0 "Fore" 0
XUID: [1021 37 -475828938 8093]
FSType: 0
OS2Version: 4
OS2_WeightWidthSlopeOnly: 0
OS2_UseTypoMetrics: 0
CreationTime: 1437065704
ModificationTime: 1450430603
PfmFamily: 17
TTFWeight: 400
TTFWidth: 5
LineGap: 0
VLineGap: 0
OS2TypoAscent: 917
OS2TypoAOffset: 0
OS2TypoDescent: -408
OS2TypoDOffset: 0
OS2TypoLinegap: 0
OS2WinAscent: 917
OS2WinAOffset: 0
OS2WinDescent: 408
OS2WinDOffset: 0
HheadAscent: 917
HheadAOffset: 0
HheadDescent: -408
HheadDOffset: 0
OS2SubXSize: 700
OS2SubYSize: 650
OS2SubXOff: 0
OS2SubYOff: 93
OS2SupXSize: 700
OS2SupYSize: 650
OS2SupXOff: 0
OS2SupYOff: 313
OS2StrikeYSize: 50
OS2StrikeYPos: 313
OS2CapHeight: 1274
OS2XHeight: 1274
OS2Vendor: 'PfEd'
OS2CodePages: 00000001.00000000
OS2UnicodeRanges: 80018003.80002042.00000000.00000000
Lookup: 4 0 0 "'half' Half Forms lookup 5" { "'half' Half Forms lookup 5 subtable"  } ['half' ('DFLT' <'dflt' > 'beng' <'dflt' > 'latn' <'dflt' > ) ]
Lookup: 4 0 0 "'blwf' Below Base Forms lookup 4" { "'blwf' Below Base Forms lookup 4 subtable"  } ['blwf' ('DFLT' <'dflt' > 'beng' <'dflt' > 'latn' <'dflt' > ) ]
Lookup: 4 0 0 "'rphf' Reph Form lookup 3" { "'rphf' Reph Form lookup 3 subtable"  } ['rphf' ('DFLT' <'dflt' > 'beng' <'dflt' > 'latn' <'dflt' > ) ]
Lookup: 4 0 0 "'akhn' Akhand lookup 2" { "'akhn' Akhand lookup 2 subtable"  } ['akhn' ('DFLT' <'dflt' > 'beng' <'dflt' > 'latn' <'dflt' > ) ]
Lookup: 4 0 0 "'nukt' Nukta Forms lookup 1" { "'nukt' Nukta Forms lookup 1 subtable"  } ['nukt' ('DFLT' <'dflt' > 'beng' <'dflt' > 'latn' <'dflt' > ) ]
MarkAttachClasses: 1
DEI: 91125
LangName: 1033
Encoding: Custom
UnicodeInterp: none
NameList: AGL For New Fonts

StartChar: bnA
Encoding: 99 2437 0
Width: 960
VWidth: 0
Flags: HW
HStem: 0 21G<817 885> 40 73<366.514 511.631> 446 72<320.271 643.438> 575 61<-14 817 885 971>
VStem: 674 69<283.063 418.171> 817 68<0 143 202 574>
LayerCount: 2
Back
Fore
SplineSet
311 446 m 1
 303 499 l 1
 303 499 477 518 557 518 c 0
 690.127425302 518 743 441.158526056 743 359 c 0
 743 337 738.560763707 313.813639132 731 292 c 0
 727.08902459 280.716403586 714 251 714 251 c 1
 817 202 l 25
 817 575 l 5
 -14 575 l 1
 -14 636 l 1
 971 636 l 1
 971 575 l 1
 885 575 l 25
 885 0 l 1
 817 0 l 1
 817 143 l 25
 679 191 l 1
 679 191 599.788479813 93.7298132489 519 57 c 0
 494.966506951 46.0733714328 470 40 443 40 c 0
 386 40 319.001042795 65.0529548919 246 142 c 0
 172 220 79 362 79 362 c 1
 116 389 l 1
 296 194 l 2
 348 137 396 113 441 113 c 0
 459 113 477 117 494 125 c 0
 566 158 649 265 663 304 c 0
 671 325 674 344 674 361 c 0
 674 423 631 446 540 446 c 0
 476 446 311 446 311 446 c 1
EndSplineSet
EndChar

StartChar: bnAA
Encoding: 100 2438 1
Width: 1130
VWidth: 0
Flags: HW
HStem: 0 21G<820 888 1003 1072> 40 73<369.514 514.631> 446 72<323.271 646.438> 575 61<-14 820 888 934 1072 1139>
VStem: 677 69<283.063 418.171> 820 68<1 143 202 574> 1003 69<0 575>
LayerCount: 2
Back
Fore
SplineSet
820 1 m 9
 820 143 l 25
 682 191 l 5
 682 191 602.636210689 93.7656074777 522 57 c 4
 497.978308513 46.0474506107 473 40 446 40 c 0
 389 40 324 67 249 142 c 0
 168 223 82 362 82 362 c 1
 119 389 l 1
 299 194 l 2
 351 137 399 113 444 113 c 0
 462 113 480 117 497 125 c 0
 569 158 652 265 666 304 c 0
 674 325 677 344 677 361 c 0
 677 423 634 446 543 446 c 0
 473 446 314 446 314 446 c 1
 306 499 l 1
 306 499 466 518 560 518 c 0
 699.014387745 518 746 441.158526056 746 359 c 0
 746 337 741.661166623 313.778579522 734 292 c 0
 727.183937531 272.62381804 717 251 717 251 c 1
 820 202 l 25
 820 575 l 1
 -14 575 l 9
 -14 636 l 17
 934 636 l 1
 1006 628 l 1
 1002 702 l 1
 1038 702 l 1
 1061 636 l 9
 1139 636 l 17
 1139 575 l 1
 1072 575 l 25
 1072 0 l 1
 1003 0 l 1
 1003 575 l 9
 888 575 l 25
 888 0 l 1
 820 1 l 9
EndSplineSet
EndChar

StartChar: bnTA
Encoding: 126 2468 2
Width: 775
VWidth: 0
Flags: HW
HStem: 40 73<339.514 484.596> 444 72<294.271 616.119> 575 61<-14 785>
VStem: 646 71<286.462 415.956>
LayerCount: 2
Back
Fore
SplineSet
785 636 m 17
 -14 636 l 1
 -14 575 l 1
 785 575 l 9
 785 636 l 17
497 56 m 0
 472.965635333 45.0752887879 448 39 421 39 c 0
 364 39 299 66 224 141 c 0
 146 219 57 361 57 361 c 1
 94 388 l 1
 274 193 l 2
 326 136 374 112 419 112 c 0
 437 112 455 116 472 124 c 0
 544 157 621 264 635 303 c 0
 643 324 646 343 646 360 c 0
 646 422 610 444 519 444 c 0
 468 444 294 444 294 444 c 1
 286 496 l 1
 286 496 464.687794202 516 536 516 c 0
 673 516 718 439.967776603 718 358 c 0
 718 336 714.10631413 312.616837679 706 291 c 0
 668.824803814 191.866143504 585 96 497 56 c 0
EndSplineSet
EndChar

StartChar: bnI
Encoding: 101 2439 3
Width: 585
VWidth: 0
Flags: HW
HStem: 443 72<94.1278 405.041> 575 61<-14 406 476 596> 708 64<119.018 394.718>
VStem: 406 70<636 696.221> 429 65<303.208 423.284>
LayerCount: 2
Back
Fore
SplineSet
321 443 m 0xe8
 258 443 94 443 94 443 c 1
 86 496 l 1
 86 496 216.419112485 517.177078622 311 517 c 0
 483.553408512 516.676937692 492.912715852 428.572630309 494 321 c 0
 495.083310284 213.820531886 209 147 209 147 c 17
 302.342765082 94.3906498963 492 -18 492 -18 c 9
 467 -65 l 5
 467 -65 242.965532187 33.6984058864 94 128 c 13
 102 198 l 1
 102 198 430.222615086 250.815513652 429 342 c 0
 427.69952654 438.991281922 391 443 321 443 c 0xe8
406 636 m 17xf0
 406 690 390 708 342 708 c 0
 256.614290766 708 81 708 81 708 c 9
 77 758 l 1
 77 758 288.281667623 771.939269807 348 772 c 0
 441.999951394 772.095592676 476 714 476 636 c 9
 596 636 l 1
 596 575 l 25
 -14 575 l 1
 -14 636 l 1
 406 636 l 17xf0
EndSplineSet
EndChar

StartChar: e
Encoding: 56 101 4
Width: 525
Flags: W
HStem: -5 73.9763<154.032 450.932> 225 73<124 403.251> 461 74<160.856 389.792>
VStem: 50 74<101.024 225 298 420.766> 411 74<306.569 441.221>
LayerCount: 2
Back
Fore
SplineSet
50 268 m 0
 50 505 118 535 282 535 c 0
 407 535 485 523 485 347 c 0
 485 270 444 225 348 225 c 2
 124 225 l 1
 124 100 147 69 225 69 c 0
 239.153846154 69 253.094674556 68.9763313609 266.826126536 68.9763313609 c 0
 342.349112426 68.9763313609 411.538461538 69.6923076923 475 79 c 1
 475 23 l 1
 394 0 308 -5 225 -5 c 0
 90 -5 50 60 50 268 c 0
124 298 m 1
 348 298 l 2
 392 298 411 314 411 347 c 0
 411 452 391 461 283 461 c 0
 170 461 124 460 124 298 c 1
EndSplineSet
Validated: 1
EndChar

StartChar: bnHA
Encoding: 142 2489 5
Width: 585
VWidth: 0
Flags: HW
HStem: 443 72<94.1278 405.041> 575 61<-14 593>
VStem: 429 65<303.208 423.284>
LayerCount: 2
Back
Fore
SplineSet
321 443 m 0
 271.668495861 443.143074324 94 444 94 444 c 1
 86 496 l 1
 86 496 216.794541344 515 311 515 c 4
 490 515 494 434 494 319 c 0
 494 207 209 147 209 147 c 1
 492 -18 l 9
 467 -65 l 1
 467 -65 241.439075666 36.0717358381 94 128 c 9
 102 198 l 1
 102 198 429 251 429 342 c 0
 429 445 390.999705598 442.796982461 321 443 c 0
593 575 m 25
 -14 575 l 1
 -14 636 l 1
 593 636 l 1
 593 575 l 25
EndSplineSet
EndChar

StartChar: bnU
Encoding: 103 2441 6
Width: 750
VWidth: 0
Flags: HW
HStem: -0.356499 76.9109<347.063 449.277> 358 70<390.16 603.586> 575 61<-14 325 390 527 597 759> 708 64<243.425 515.718>
VStem: 325 65<412 575> 527 70<636 696.221> 613.638 69.363<250.444 347.265>
LayerCount: 2
Back
Fore
SplineSet
527 636 m 17
 527 690 511 708 463 708 c 0
 358.056739592 708 137 708 137 708 c 9
 133 758 l 1
 133 758 409.701662133 771.736217044 469 772 c 0
 562.999069964 772.418145827 597 714 597 636 c 9
 759 636 l 1
 759 575 l 25
 390 575 l 25
 390 412 l 1
 390 412 482 428 550 428 c 0
 632.997950811 428 683.001487567 365.597521243 683.001487567 305.791711193 c 0
 683.001487567 294.981688832 681.367806961 284.256503017 678 274 c 0
 664 232 607 134 496 41 c 0
 464.992319078 15.0894721061 435.969295509 -0.356498831844 403.949515313 -0.356498831844 c 0
 360.586555335 -0.356498831844 308.623400144 25.1003852036 245 97 c 4
 122 236 74 398 74 398 c 5
 121 416 l 1
 121 416 224.320977284 225.298298742 294 150 c 0
 334.496291056 106.23787902 363.473685413 76.5544095615 397.094315935 76.5544095615 c 0
 414.947018848 76.5544095615 434.108954995 84.9241291624 457 104 c 0
 562 191 597 251 608 281 c 0
 611.864832569 291.628289565 613.638494828 301.02428234 613.638494828 309.267355338 c 0
 613.638494828 343.681100459 582.724401834 358 544 358 c 0
 490 358 325 342 325 342 c 9
 325 575 l 25
 -14 575 l 1
 -14 636 l 1
 527 636 l 17
EndSplineSet
EndChar

StartChar: bnDDA
Encoding: 123 2465 7
Width: 750
VWidth: 0
Flags: HW
HStem: -0.356499 76.9109<347.063 449.277> 358 70<390.247 602.702> 575 61<-14 325 390 759>
VStem: 325 65<412 575> 613.638 69.363<249.539 347.349>
LayerCount: 2
Back
Fore
SplineSet
678 274 m 0
 664 232 607 134 496 41 c 0
 464.992319078 15.0894721061 435.969295509 -0.356498831844 403.949515313 -0.356498831844 c 0
 360.586555335 -0.356498831844 312.218947825 28.4499839017 245 97 c 0
 144 200 74 398 74 398 c 1
 121 416 l 1
 121 416 224 225 294 150 c 0
 334.496291056 106.23787902 363.473685413 76.5544095615 397.094315935 76.5544095615 c 0
 414.947018848 76.5544095615 434.108954995 84.9241291624 457 104 c 0
 562 191 597 251 608 281 c 0
 611.864832569 291.628289565 613.638494828 301.02428234 613.638494828 309.267355338 c 0
 613.638494828 343.681100459 582.724401834 358 544 358 c 0
 493 358 325 342 325 342 c 9
 325 575 l 25
 -14 575 l 1
 -14 636 l 1
 759 636 l 1
 759 575 l 25
 390 575 l 25
 390 412 l 1
 390 412 486 428 550 428 c 0
 632.997950811 428 683.001487567 365.597521243 683.001487567 305.791711193 c 0
 683.001487567 294.981688832 681.367806961 284.256503017 678 274 c 0
EndSplineSet
EndChar

StartChar: bnDDxA
Encoding: 158 2524 8
Width: 750
VWidth: 0
Flags: HW
HStem: -152 98<332 427> -0.356499 76.9109<347.063 449.277> 358 70<390.247 602.702> 575 61<-14 325 390 759>
VStem: 325 65<412 575> 332 95<-152 -54> 613.638 69.363<249.539 347.349>
LayerCount: 2
Back
Fore
SplineSet
332 -132 m 2xf6
 332 -75 l 2
 332 -62 339 -54 352 -54 c 2
 406 -54 l 2
 421 -54 427 -62 427 -75 c 2
 427 -132 l 2
 427 -147 418 -152 406 -152 c 2
 352 -152 l 2
 340 -152 332 -144 332 -132 c 2xf6
678 274 m 0
 664 232 607 134 496 41 c 0
 464.992319078 15.0894721061 435.969295509 -0.356498831844 403.949515313 -0.356498831844 c 0
 360.586555335 -0.356498831844 311.714152227 27.9586099045 245 97 c 0
 159 186 74 398 74 398 c 1
 121 416 l 1
 121 416 224 225 294 150 c 0
 334.496291056 106.23787902 363.473685413 76.5544095615 397.094315935 76.5544095615 c 0
 414.947018848 76.5544095615 434.108954995 84.9241291624 457 104 c 0
 562 191 597 251 608 281 c 0
 611.864832569 291.628289565 613.638494828 301.02428234 613.638494828 309.267355338 c 0
 613.638494828 343.681100459 589 358 544 358 c 0
 497.540170948 358 325 342 325 342 c 9
 325 575 l 25
 -14 575 l 1
 -14 636 l 1
 759 636 l 1
 759 575 l 25
 390 575 l 25
 390 412 l 1xfa
 390 412 489.248940204 428 550 428 c 0
 644 428 683.001487567 365.597521243 683.001487567 305.791711193 c 0
 683.001487567 294.981688832 681.367806961 284.256503017 678 274 c 0
EndSplineSet
EndChar

StartChar: bnUU
Encoding: 104 2442 9
Width: 825
VWidth: 0
Flags: HW
HStem: 0.618857 75.9356<395.612 505.124> 358 70<469.16 682.586> 575 61<-14 404 469 606 676 838> 708 64<317.419 594.718>
VStem: 404 65<412 575> 606 70<636 696.221> 692.638 69.363<256.755 347.265>
LayerCount: 2
Back
Fore
SplineSet
606 636 m 17
 606 690 590 708 542 708 c 0
 429.725278227 708 196 708 196 708 c 9
 192 758 l 1
 192 758 488.969470537 772 548 772 c 0
 645 772 676 714 676 636 c 9
 838 636 l 1
 838 575 l 25
 469 575 l 25
 469 412 l 1
 469 412 566 428 629 428 c 0
 711.997950811 428 762.001487567 365.597521243 762.001487567 305.791711193 c 0
 762.001487567 294.981688832 760.367806961 284.256503017 757 274 c 0
 743 232 605 86 552 41 c 0
 525.210970007 18.2545971755 488.969063995 0.618857063588 443.016012328 0.618857063588 c 0
 398.054546412 0.618857063588 343.329039831 16.8532577977 280 63 c 0
 151 157 68 300 68 300 c 1
 110 325 l 1
 279 136 l 1
 190 272 153 398 153 398 c 1
 200 416 l 1
 200 416 292 235 350 150 c 0
 380.045635299 106.23787902 412.224399617 76.5544095615 449.322867585 76.5544095615 c 0
 469.022317502 76.5544095615 490.108954995 84.9241291624 513 104 c 0
 618 191 676 251 687 281 c 0
 690.864832569 291.628289565 692.638494828 301.02428234 692.638494828 309.267355338 c 0
 692.638494828 343.681100459 661.724401834 358 623 358 c 0
 571 358 404 342 404 342 c 9
 404 575 l 25
 -14 575 l 1
 -14 636 l 1
 606 636 l 17
EndSplineSet
EndChar

StartChar: bnKA
Encoding: 111 2453 10
Width: 860
VWidth: 0
Flags: HW
HStem: 0 21G<380.5 514.044> 575 61<-14 449 514 872>
VStem: 449 65<82 457 532 574> 729.146 71.5596<300.312 386.125>
LayerCount: 2
Back
Fore
SplineSet
515 457 m 1
 514 0 l 1
 449 0 l 1
 71 281 l 1
 71 362 l 1
 449 532 l 25
 449 575 l 5
 -14 575 l 5
 -14 636 l 1
 872 636 l 1
 872 575 l 1
 514 575 l 25
 515 532 l 1
 701 468 l 2
 749.154296875 452.19921875 800.705078125 411.88671875 800.705078125 348.375976562 c 0
 800.705078125 327.4765625 795.489225856 303.556913403 782 277 c 0
 750 214 700 164 700 164 c 1
 647 189 l 1
 647 189 715.927734375 306.782226562 716 307 c 2
 724.298663074 321.191916561 729.145507812 335.150390625 729.145507812 346.802734375 c 0
 729.145507812 377.979492188 699.315429688 398.168945312 652 412 c 2
 515 457 l 1
449 82 m 25
 449 459 l 25
 142 316 l 25
 449 82 l 25
EndSplineSet
EndChar

StartChar: bnvR
Encoding: 105 2443 11
Width: 800
VWidth: 0
Flags: HW
HStem: 0 21G<405.5 539> 451 60<149.053 266.926> 575 61<713 812>
VStem: 80 59<520.063 583.756> 474 65<82 198 271 418 491 636> 648 65<39 160 219 575>
LayerCount: 2
Back
Fore
SplineSet
648 160 m 25
 539 198 l 25
 539 0 l 1
 474 0 l 1
 86 240 l 1
 86 321 l 1
 366 443 l 25
 337 505 l 17
 337 505 257 451 188 451 c 0
 157 451 129 458 109 479 c 0
 92 497 80 532 80 557 c 0
 80 580 87.8227387027 597.189607485 106 614 c 0
 131.938653567 637.988154246 209 648 209 648 c 1
 221 609 l 17
 221 609 185.608930022 594.850134074 158 583 c 0
 144.843343225 577.352981205 139 566 139 554 c 0
 139 545 143 532 152 523 c 0
 162 513 178 511 190 511 c 0
 260 511 365 589 365 589 c 9
 422 468 l 25
 474 491 l 25
 474 636 l 1
 539 636 l 25
 539 271 l 25
 648 219 l 25
 648 636 l 5
 643 702 l 5
 679 702 l 1
 702 636 l 1
 812 636 l 17
 812 575 l 1
 713 575 l 25
 713 39 l 1
 648 39 l 1
 648 160 l 25
474 82 m 25
 474 418 l 25
 157 275 l 25
 474 82 l 25
EndSplineSet
EndChar

StartChar: bnJHA
Encoding: 119 2461 12
Width: 775
VWidth: 0
Flags: HW
HStem: 0 21G<378.5 512> 575 61<-14 447 686 790>
VStem: 447 65<82 198 271 459 532 575> 621 65<39 160 219 575>
LayerCount: 2
Back
Fore
SplineSet
512 271 m 25
 621 219 l 25
 621 636 l 5
 616 702 l 5
 652 702 l 1
 675 636 l 1
 790 636 l 17
 790 575 l 1
 686 575 l 25
 686 39 l 1
 621 39 l 1
 621 160 l 25
 512 198 l 25
 512 0 l 1
 447 0 l 1
 69 281 l 1
 69 362 l 1
 447 532 l 25
 447 575 l 9
 -14 575 l 17
 -14 636 l 1
 512 636 l 9
 512 271 l 25
447 82 m 25
 447 459 l 25
 140 316 l 25
 447 82 l 25
EndSplineSet
EndChar

StartChar: bnDHA
Encoding: 129 2471 13
Width: 575
VWidth: 0
Flags: HW
HStem: 0 21G<378.5 512> 575 61<512 587> 606.29 55.7998<160.3 291.959>
VStem: 88.4199 62.707<516.104 597.539> 447 65<77 459 528 575>
LayerCount: 2
Back
Fore
SplineSet
273 450 m 1xb8
 447 528 l 25
 448 636 l 1
 443 702 l 1
 479 702 l 1
 502 636 l 9
 587 636 l 17
 587 575 l 1
 512 575 l 25xd8
 512 0 l 17
 447 0 l 1
 69 281 l 1
 69 358 l 1
 205 419.513671875 l 1
 205 419.513671875 88.419921875 475.525448648 88.419921875 552.463867188 c 0
 88.419921875 599.310546875 116 661 167 661 c 0
 213.520240614 661 302 639 302 639 c 1
 292 599 l 17
 292 599 225.847670215 606 195 606 c 0
 166 606 151.126953125 584.526367188 151.126953125 554.307617188 c 0
 151.126953125 506.03130321 273 450 273 450 c 1xb8
447 77 m 25
 447 459 l 25
 135 315 l 25
 447 77 l 25
EndSplineSet
EndChar

StartChar: bnBA
Encoding: 133 2476 14
Width: 600
VWidth: 0
Flags: HW
HStem: 0 21G<378.5 512.035> 575 61<-14 447 513 615>
VStem: 447 65<82 459 532 575>
LayerCount: 2
Back
Fore
SplineSet
513 575 m 17
 512 0 l 1
 447 0 l 5
 69 281 l 5
 69 362 l 1
 447 532 l 25
 447 575 l 9
 -14 575 l 17
 -14 636 l 1
 615 636 l 1
 615 575 l 9
 513 575 l 17
447 82 m 25
 447 459 l 25
 140 316 l 25
 447 82 l 25
EndSplineSet
EndChar

StartChar: bnRA
Encoding: 137 2480 15
Width: 608
VWidth: 0
Flags: HW
HStem: -8.43359 97.9033<127.673 223> 0 21G<385.5 519.035> 575 61<-14 454 520 620>
VStem: 127.673 95.3271<-8.43359 89.4697> 454 65<82 459 532 575>
LayerCount: 2
Back
Fore
SplineSet
127.672851562 11.318359375 m 2xb8
 127.672851562 68 l 2
 127.672851562 80.8818359375 134.543945312 89.4697265625 148.284179688 89.4697265625 c 2
 201.530273438 89.4697265625 l 2
 216.989257812 89.4697265625 223 81.740234375 223 68 c 2
 223 11.318359375 l 2
 223 -4.1396484375 213.552734375 -8.43359375 201.530273438 -8.43359375 c 2
 148.284179688 -8.43359375 l 2
 136.26171875 -8.43359375 127.672851562 -0.705078125 127.672851562 11.318359375 c 2xb8
520 575 m 17
 519 0 l 1
 454 0 l 5x78
 76 281 l 5
 76 362 l 1
 454 532 l 29
 454 575 l 9
 -14 575 l 17
 -14 636 l 1
 620 636 l 1
 620 575 l 9
 520 575 l 17
454 82 m 29
 454 459 l 29
 147 316 l 29
 454 82 l 29
EndSplineSet
EndChar

StartChar: bnE
Encoding: 107 2447 16
Width: 700
VWidth: 0
Flags: HW
HStem: -0 72<242.42 416.639> 556 74<399.532 531.126>
VStem: 553 69<152 533.946> 575 47<0 26.7273>
LayerCount: 2
Back
Fore
SplineSet
222 435 m 9xe0
 192 473 l 1
 265 541 381 630 461 630 c 0
 559 630 622 589 622 463 c 2xe0
 622 0 l 1
 575 0 l 1xd0
 553 84 l 17
 553 84 400.524546103 0 306 -0 c 0
 263 -0 198 6 143 89 c 0
 118 127 82 206 65 254 c 1
 105 279 l 1
 200 138 l 2
 239 80 281 72 309 72 c 0
 399.87790739 72 553 152 553 152 c 1
 553 473 l 1
 553 531 514 556 472 556 c 0
 404.774337457 556 222 435 222 435 c 9xe0
EndSplineSet
EndChar

StartChar: bnAI
Encoding: 108 2448 17
Width: 850
VWidth: 0
Flags: HW
HStem: -0 72<242.42 416.639> 279 70<622 695.773> 556 74<399.532 531.126>
VStem: 553 69<152 279 349 533.946> 575 47<0 26.7273> 713 64<367.233 632.575>
LayerCount: 2
Back
Fore
SplineSet
622 279 m 9xf4
 622 0 l 1
 575 0 l 1xec
 553 84 l 17
 553 84 401.027312436 0 306 -0 c 0
 263 -0 198 6 143 89 c 0
 118 127 65 254 65 254 c 1
 105 279 l 1
 200 138 l 2
 239 80 281.000398516 72.1493879541 309 72 c 0
 399.032006397 71.5196468332 553 152 553 152 c 9
 553 473 l 1
 553 531 518 556 472 556 c 0
 411 556 222 435 222 435 c 9
 192 473 l 1
 265 541 381 630 461 630 c 0
 559 630 622 589 622 463 c 2
 622 349 l 17
 676 349 713 365 713 413 c 0
 713 519.432622912 713 739 713 739 c 9
 763 743 l 1
 763 743 777 465.061528002 777 407 c 0
 777 307 700 279 622 279 c 9xf4
EndSplineSet
EndChar

StartChar: bnNYA
Encoding: 120 2462 18
Width: 925
VWidth: 0
Flags: HW
HStem: 0 72<247.42 421.639> 103 63<639 781.981> 278 60<682 783.639> 444 56<627 699.333> 454 65<627.823 784.713> 554 76<404.888 537.482>
VStem: 558 69<174 444 500 533.558> 580 47<0 26.7273> 788 71<170.276 272.459 343.875 450.189>
LayerCount: 2
Back
Fore
SplineSet
627 500 m 1xf680
 627 500 705 519 742 519 c 0
 806 519 860 518 860 405 c 2
 860 397 l 2
 860 364 856 317 815 311 c 1
 856 304 859 257 859 224 c 2
 859 215 l 2
 859 103 799.017131728 103 742 103 c 0
 687 103 627 124 627 124 c 9
 627 0 l 1
 580 0 l 1xed80
 558 84 l 17
 558 84 406.027312436 0 311 0 c 0
 268 0 200.872583484 4.62885614292 148 89 c 0
 101 164 70 254 70 254 c 1
 110 279 l 1
 205 138 l 2
 244 80 286 72 314 72 c 0
 411 72 558 152 558 152 c 9
 558 473 l 1
 558 531 522.99830355 553.604942365 477 554 c 0
 409.896030492 554.5763242 227 435 227 435 c 9
 197 473 l 1
 270 541 392 630 472 630 c 0
 570 630 627 575 627 500 c 1xf680
626 174 m 17
 626 174 701.904807624 166 742 166 c 0
 768 166 788 176 788 208 c 2
 788 229 l 2
 788 267 772 278 735 278 c 2
 682 278 l 17
 682 338 l 9
 735 338 l 2
 772 338 788 349 788 387 c 2
 788 412 l 2
 788 445 769 454 744 454 c 0xee80
 703.355385059 454 627 444 627 444 c 9xf680
 626 174 l 17
EndSplineSet
EndChar

StartChar: bnTTA
Encoding: 121 2463 19
Width: 610
VWidth: 0
Flags: HW
HStem: 0 71<163.774 274.966> 337 66<269 457.897> 337 58<269 405.344> 575 61<-13 80 147 416 486 620> 708 64<132.908 404.718>
VStem: 80 67<86.6083 574> 416 70<636 696.221> 468 72<241.198 324.635>
LayerCount: 2
Back
Fore
SplineSet
269 337 m 1xdd
 263 395 l 1xbd
 263 395 372 403 407 403 c 0
 496.323421401 403 540 362.557271089 540 297 c 0xdd
 540 271 532 243 516 222 c 0
 432 112 279 0 208 0 c 0
 143 0 80 37 80 159 c 2
 80 575 l 5
 -13 575 l 1
 -13 636 l 1
 416 636 l 17
 416 690 400 708 352 708 c 0
 242 708 47 708 47 708 c 9
 43 758 l 1
 43 758 290 772 358 772 c 0
 452 772 486 714 486 636 c 9xde
 620 636 l 1
 620 575 l 1
 147 575 l 17
 147 575 147 207 147 166 c 0
 147 120.601762149 163 71 212 71 c 0
 267 71 373 150 437 229 c 0
 459 256 468 277 468 292 c 0
 468 332 416 337 367 337 c 0
 322 337 269 337 269 337 c 1xdd
EndSplineSet
EndChar

StartChar: bnDDHA
Encoding: 124 2466 20
Width: 600
VWidth: 0
Flags: HW
HStem: 0 71<158.774 269.966> 337 66<264 452.897> 337 58<264 400.344> 575 61<-14 75 142 612>
VStem: 75 67<86.6083 575> 463 72<241.198 324.635>
LayerCount: 2
Back
Fore
SplineSet
142 575 m 17xdc
 142 166 l 1
 142 106 158 71 207 71 c 0
 262 71 368 150 432 229 c 0
 454 256 463 277 463 292 c 0
 463 332 413 337 362 337 c 0
 330.617533503 337 264 337 264 337 c 1xdc
 258 395 l 1xbc
 258 395 367 403 402 403 c 0
 491.323421401 403 535 362.557271089 535 297 c 0
 535 271 527 243 511 222 c 0
 427 112 274 0 203 0 c 0
 138 0 75 37 75 159 c 2
 75 575 l 9
 -14 575 l 17
 -14 636 l 1
 612 636 l 1
 612 575 l 9
 142 575 l 17xdc
EndSplineSet
EndChar

StartChar: bnDDHxA
Encoding: 159 2525 21
Width: 600
VWidth: 0
Flags: HW
HStem: -164 98<194 289> 0 71<155.774 266.966> 337 66<261 449.897> 337 58<261 397.344> 575 61<-14 72 139 613>
VStem: 72 67<86.6083 575> 194 95<-164 -66> 460 72<241.198 324.635>
LayerCount: 2
Back
Fore
SplineSet
613 575 m 9xef
 139 575 l 17
 139 166 l 1
 139 106 155 71 204 71 c 0
 259 71 365 150 429 229 c 0
 451 256 460 277 460 292 c 0
 460 332 415 337 359 337 c 0
 326.733645903 337 261 337 261 337 c 1xef
 255 395 l 1xdf
 255 395 364 403 399 403 c 0
 488.323421401 403 532 362.557271089 532 297 c 0
 532 271 524 243 508 222 c 0
 424 112 281 0 200 0 c 0
 135 0 72 37 72 159 c 2
 72 575 l 9
 -14 575 l 17
 -14 636 l 1
 613 636 l 1
 613 575 l 9xef
194 -144 m 2
 194 -87 l 2
 194 -74 201 -66 214 -66 c 2
 268 -66 l 2
 283 -66 289 -74 289 -87 c 2
 289 -144 l 2
 289 -159 280 -164 268 -164 c 2
 214 -164 l 2
 202 -164 194 -156 194 -144 c 2
EndSplineSet
EndChar

StartChar: bnYA
Encoding: 136 2479 22
Width: 670
VWidth: 0
Flags: HW
HStem: 0 21G<441.5 575.035> 575 61<-14 115 147 510 576 683>
VStem: 304.048 88.1683<380.118 431.281> 510 65<82 575>
LayerCount: 2
Back
Fore
SplineSet
115 575 m 25
 -14 575 l 1
 -14 636.328125 l 5
 683 636.328125 l 1
 683 575 l 9
 576 575 l 17
 575 0 l 1
 510 0 l 1
 127 197 l 1
 126 272 l 1
 126 272 304.048462473 386.241011379 304.048462473 408.984650997 c 0
 304.048462473 415.635593275 299.238944717 421.281720372 290 427 c 0
 250.311406842 451.56454505 102 545 102 545 c 9
 115 575 l 25
147 575 m 1
 147 575 259.011519285 522.818483063 328 481 c 0
 364.258041444 459.021601921 392.216796875 438.158203125 392.216796875 414.08984375 c 0
 392.216796875 377.799804688 340.083984375 329.782226562 203 242 c 1
 510 82 l 25
 510 575 l 25
 147 575 l 1
EndSplineSet
EndChar

StartChar: bnYxA
Encoding: 160 2527 23
Width: 670
VWidth: 0
Flags: HW
HStem: -56 97<204 299> 0 21G<440.5 574.035> 575 61<-14 105 139 505 575 682>
VStem: 204 95<-56 41> 303.048 83.1682<380.053 431.095> 509 65<82 575>
LayerCount: 2
Back
Fore
SplineSet
204 -37 m 2xbc
 204 20 l 2
 204 33 211 41 224 41 c 2
 278 41 l 2
 293 41 299 34 299 20 c 2
 299 -37 l 2
 299 -52 290 -56 278 -56 c 2
 224 -56 l 2
 212 -56 204 -49 204 -37 c 2xbc
105 575 m 25
 -14 575 l 1
 -14 636 l 1
 682 636 l 1
 682 575 l 9
 575 575 l 17
 574 0 l 1
 509 0 l 5x7c
 126 197 l 1
 125 272 l 1
 125 272 303.048462473 386.241011379 303.048462473 408.984650997 c 0
 303.048462473 424.334295801 86 547 86 547 c 9
 105 575 l 25
139 575 m 17
 139 575 257.56112586 522.954057231 327 481 c 0
 363.289843679 459.074152303 386.216673423 440.158278427 386.216673423 416.090017749 c 0
 386.216673423 379.799404996 334.084396004 331.782113231 197 244 c 1
 509 82 l 25
 509 575 l 25
 139 575 l 17
EndSplineSet
EndChar

StartChar: bnSSA
Encoding: 140 2487 24
Width: 610
VWidth: 0
Flags: HW
HStem: 0 21G<406.5 540.035> 335 64<378.25 475> 575 61<-14 103 132 475 541 622>
VStem: 475 65<70 335 399 575>
LayerCount: 2
Back
Fore
SplineSet
103 575 m 25
 -14 575 l 1
 -14 636 l 1
 622 636 l 1
 622 575 l 9
 541 575 l 17
 540 0 l 1
 475 0 l 5
 87 196 l 5
 86 271 l 5
 86 271 257 371 257 394 c 0
 257 406 251.963179929 413.94865152 238 424 c 0
 214.147788586 441.169934797 86 544 86 544 c 9
 103 575 l 25
132 575 m 17
 132 575 245.365939441 492.879700191 298 461 c 0
 322.937229647 445.895875479 402 399 475 399 c 9
 475 575 l 25
 132 575 l 17
475 335 m 21
 397.203393234 334.883173906 340 363 340 363 c 5
 151 238 l 5
 475 70 l 25
 475 335 l 21
EndSplineSet
EndChar

StartChar: bnPHA
Encoding: 132 2475 25
Width: 876
VWidth: 0
Flags: HW
HStem: 0 21G<424.5 558.046> 432 61<559 723.115> 575 61<-14 104 139 885>
VStem: 303 81<379.507 431.383> 493 65<75 432> 741 70<321.78 414.661>
LayerCount: 2
Back
Fore
SplineSet
139 575 m 1
 139 575 256.984349314 523.013572256 327 481 c 0
 361.999077731 459.998462962 384 440 384 415 c 0
 384 376 332 327 193 238 c 1
 493 75 l 25
 493 493 l 25
 701 493 l 18
 753 493 811 443 811 370 c 0
 811 348 806 325 794 300 c 0
 772 256 711 186 711 186 c 5
 659 212 l 17
 728 329 l 2
 737 344 741 358 741 371 c 0
 741 407 710 432 664 432 c 2
 559 432 l 25
 558 0 l 1
 493 0 l 1
 126 197 l 1
 125 272 l 1
 125 272 303 386 303 409 c 0
 303 421.250247064 93 543 93 543 c 9
 104 575 l 25
 -14 575 l 1
 -14 636 l 1
 885 636 l 1
 885 575 l 25
 139 575 l 1
EndSplineSet
EndChar

StartChar: bnGHA
Encoding: 114 2456 26
Width: 630
VWidth: 0
Flags: HW
HStem: 0 21G<424.5 558> 365 60.8091<147.517 307> 575 61<-10 132 178.707 493 558 641>
VStem: 76 65<435.737 519.241> 493 65<78 575>
LayerCount: 2
Back
Fore
SplineSet
190 575 m 1
 190 575 141 494 141 469 c 0
 141 460 141 452 149 443 c 0
 161.996351871 428.704012942 220.597097467 425.809124316 281.996793899 425.809124316 c 0
 315.084684511 425.809124316 377 426 377 426 c 1
 398 342 l 1
 192 225 l 1
 493 78 l 25
 493 575 l 25
 190 575 l 1
558 575 m 25
 558 0 l 17
 493 0 l 5
 110 185 l 5
 109 260 l 1
 307 365 l 1
 307 365 280.048596317 364.543773669 256.781083444 364.543773669 c 0
 199.145689463 364.543773669 110.835820896 369.179104478 88 408 c 0
 80 422 76 436 76 451 c 0
 76 503 132 575 132 575 c 1
 -10 575 l 1
 -10 636 l 1
 641 636 l 1
 641 575 l 9
 558 575 l 25
EndSplineSet
EndChar

StartChar: bnBHA
Encoding: 134 2477 27
Width: 850
VWidth: 0
Flags: HW
HStem: 37 75<363.864 504.38> 286 68<371.552 569.472> 340 85<612.14 671.224> 456 60.0979<371.122 500> 456 50<395.025 500> 575 61<-14 860>
VStem: 305 65<356.449 454.844> 692 79<245.224 318.398>
LayerCount: 2
Back
Fore
SplineSet
546 286 m 0
 477 286 433 286 391 286 c 0
 360 286 305 304 305 359 c 0
 305 388 305 398 305 428 c 0
 305 464 315 492 330 504 c 0
 341.945945946 513.135135135 365.999820737 516.097881665 392.722760745 516.097881665 c 0xd7
 428 516.097881665 505 506 505 506 c 1x8f
 500 456 l 17
 500 456 424.097641821 456 387 456 c 0
 370 456 370 430 370 414 c 0
 370 401 371 393 371 377 c 0
 371 363 385 354 401 354 c 0
 426 354 468 354 524 354 c 0xd7
 553.324485156 354 632.469979103 425 650 425 c 0
 692 425 771 310 771 264 c 0
 771 194.566378994 596.980318521 102.956737237 513 57 c 0
 490.583148647 44.7327763761 466 37 438 37 c 0
 382 37 315 67 240 142 c 0
 158 224 73 362 73 362 c 1
 110 393 l 1
 290 194 l 2
 342 138 391 112 435 112 c 0
 453 112 471 116 488 125 c 0
 545.40617591 155.027845861 692 232.272118087 692 277 c 0
 692 295 659 340 647 340 c 0
 636.37416101 340 573.527957042 286 546 286 c 0
860 575 m 1
 -14 575 l 1
 -14 636 l 1
 860 636 l 1
 860 575 l 1
EndSplineSet
EndChar

StartChar: bnKHA
Encoding: 112 2454 28
Width: 750
VWidth: 0
Flags: HW
HStem: 0 21G<515.5 647> 450.622 62.9746<164.998 297.321> 575 62<647 761>
VStem: 94.1729 62.1426<522.986 578.523> 582 65<82 575>
LayerCount: 2
Back
Fore
SplineSet
510 390 m 9
 252 273 l 25
 582 82 l 25
 582 636 l 21
 577 702 l 5
 613 702 l 1
 636 637 l 1
 761 637 l 17
 761 575 l 1
 647 575 l 1
 647 0 l 17
 582 0 l 1
 173 235 l 1
 173 316 l 1
 425 426 l 1
 425 426 412.672687174 462.778493971 406 485 c 0
 397.070667599 514.736627631 386 506 386 506 c 2
 386 506 287.709960938 450.622070312 206.05078125 450.622070312 c 0
 174.828125 450.622070312 145.745117188 458.42578125 125 480 c 0
 107.823242188 497.731445312 94.1728515625 527.5234375 94.1728515625 552.572265625 c 0
 94.1728515625 572.73046875 101.840171188 596.924551369 120 614 c 0
 154.034341274 646.0020443 247 653 247 653 c 1
 259 614 l 17
 259 614 205.108190739 591.324988877 177 578 c 0
 163.583547521 571.639787004 156.315429688 561.45703125 156.315429688 550.35546875 c 0
 156.315429688 542.393554688 160.064453125 533.935546875 168 526 c 0
 176.435546875 517.205078125 189.833007812 513.596679688 206.138671875 513.596679688 c 0
 280.678710938 513.596679688 413 589 413 589 c 2
 413 589 417.3359375 591.2265625 423.76171875 591.2265625 c 0
 436.106445312 591.2265625 450.460763256 582.261163666 465 535 c 0
 480.93314419 483.207808391 510 390 510 390 c 9
EndSplineSet
EndChar

StartChar: bnTHA
Encoding: 127 2469 29
Width: 650
VWidth: 0
Flags: HW
HStem: 0 21G<438.5 577> 533 72.0107<85.0734 333.609> 575 61<577 659>
VStem: 348 69<415.883 516.928> 512 65<82 575> 512 38<677.684 702>
LayerCount: 2
Back
Fore
SplineSet
237 533 m 0xd4
 179 533 85 533 85 533 c 1
 77 586 l 1
 77 586 161 605 235 605 c 0
 394.105580534 605 415.222414299 551.015859553 417 441 c 4
 418.739014835 333.37131479 185 266 185 266 c 13
 512 82 l 25xd8
 512 711 l 25
 550 711 l 1xd4
 569 636 l 9
 659 636 l 17
 659 575 l 1
 577 575 l 25
 577 0 l 17xb8
 512 0 l 5
 108 231 l 5
 107 317 l 1
 107 317 349.470255491 375.105254123 348 454 c 0
 346.882054636 513.989584081 338 533 237 533 c 0xd4
EndSplineSet
EndChar

StartChar: bnCA
Encoding: 116 2458 30
Width: 620
VWidth: 0
Flags: HW
HStem: 0 71<169.774 287.331> 575 61<-10 86 153 631>
VStem: 86 67<86.6083 408 463 574> 473 71<242.424 343.49>
LayerCount: 2
Back
Fore
SplineSet
153 405 m 9
 153 166 l 1
 153 106 169 71 218 71 c 0
 273 71 388 144 443 229 c 0
 465 263 473 288 473 307 c 0
 473 343 449.219930455 348.000260031 415 355 c 0
 317.259079219 374.993057282 153 405 153 405 c 9
153 463 m 25
 153 463 224.710038447 455.448615009 262 451 c 0
 380.977050103 436.806284888 405 434 434 429 c 0
 510.956979911 415.733307955 544 371.742633643 544 312 c 0
 544 283 530.532226562 251.840820312 519 230 c 0
 453 105 285 0 214 0 c 0
 149 0 86 37 86 159 c 2
 86 575 l 1
 -10 575 l 1
 -10 636 l 1
 631 636 l 1
 631 575 l 1
 153 575 l 17
 153 463 l 25
EndSplineSet
EndChar

StartChar: bnCHA
Encoding: 117 2459 31
Width: 670
VWidth: 0
Flags: HW
HStem: 174 82<151.064 215.307> 575 61<-14 79 146 682>
VStem: 79 67<259.941 463 516 574> 363 70<344.354 404.797> 528 66<254.791 377.555>
LayerCount: 2
Back
Fore
SplineSet
343 345 m 0
 348.951375297 349.071993624 363 359 363 379 c 0
 363 422.761452963 323.272447911 429.969691268 283 437 c 0
 174.123194727 456.006481963 146 461 146 461 c 1
 146 317 l 1
 147 273 156 256 175 256 c 0
 184 256 223 273 265 297 c 0
 313.162109375 324.521484375 324 332 343 345 c 0
428.66796875 405 m 1
 428.66796875 405 433 390.366291669 433 381 c 0
 433 347 415.833273855 317.815111502 373 289 c 0
 318 252 274 226 207 190 c 0
 189.626075828 180.664757161 171 174 153 174 c 0
 114 174 79 205 79 289 c 2
 79 575 l 1
 -14 575 l 1
 -14 636 l 1
 682 636 l 1
 682 575 l 1
 146 575 l 1
 146 516 l 17
 146 516 233.976963014 504.461970931 292 496 c 0
 367.008898416 485.060842884 409.327148438 478.064453125 482 461 c 0
 551.937898117 444.577746594 594 417 594 342 c 0
 594 314 587.454518958 274.564788758 582 244 c 0
 567.754784149 164.175909804 320 101 320 101 c 1
 620 -13 l 9
 605 -61 l 5
 605 -61 411.691726558 -20.0315683007 216 70 c 13
 224 143 l 1
 224 143 505.493990011 207.894251978 522 278 c 0
 527.447498764 301.137086187 528 312 528 337 c 0
 528 364 521.570225287 374.972145867 483 389 c 0
 455.00485263 399.181735803 428.66796875 405 428.66796875 405 c 1
EndSplineSet
EndChar

StartChar: bnNGA
Encoding: 115 2457 32
Width: 690
Flags: HW
HStem: 3.16211 75.3477<305.991 413.621> 287 70<365.085 568.608> 428 59<366 513.76> 577 57<375.185 515.907>
VStem: 304.912 61.042<341 428 497.002 568.075> 518 55<491.683 573.301> 569.148 68.3691<214.913 282.735>
LayerCount: 2
Back
Fore
SplineSet
305 290 m 9xfa
 305 438 l 17
 305 438 231.27576337 459.263645989 177 487 c 0
 151.892295976 499.830702398 141 506 141 506 c 9
 164 552 l 1
 305 500 l 1
 305 537 305.30126199 575.414522361 331 602 c 0
 354 626 373 637 433 637 c 0
 539 637 573 636 573 529 c 0xfc
 573 464 565 431 488 431 c 2
 366 431 l 1
 366 344 l 1
 366 344 482.938611967 360 525 360 c 0
 596 360 637.517578125 321.931640625 637.517578125 268.57421875 c 4
 637.517578125 184.027886432 536.784761373 107.08914825 451 46 c 4
 418.966548767 23.1882998795 389.525390625 8.162109375 358.516601562 8.162109375 c 0
 314.512695312 8.162109375 268.881876257 36.4223472149 200 106 c 0
 101 206 30 401 30 401 c 1
 77 419 l 1
 77 419 181 234 249 159 c 0
 290.0546875 113.234375 321.59765625 84.509765625 358.565429688 84.509765625 c 0
 376.525390625 84.509765625 394.210858464 91.2507322477 418 106 c 0
 481.335068258 145.26774232 569.1484375 203.738700222 569.1484375 263.221679688 c 0
 569.1484375 280.35546875 558 290 507 290 c 0
 478 290 375 290 305 290 c 9xfa
366 490 m 1
 471 490 l 2
 503 490 518 502 518 527 c 0
 518 579 517 580 440 580 c 0
 378.674401789 580 366 573 366 490 c 1
EndSplineSet
EndChar

StartChar: bnNA
Encoding: 130 2472 33
Width: 645
VWidth: 0
Flags: HW
HStem: 0 21G<488 555> 362.225 70.1726<181.576 330.97> 575 61<-14 488 555 655>
VStem: 89.3553 68.3918<229.747 337.85> 488 67<0 290 363 574>
LayerCount: 2
Back
Fore
SplineSet
488 290 m 1
 488 290 301.787050378 362.225323175 230.707858229 362.225323175 c 0
 186.444374688 362.225323175 157.747141609 320.187196362 157.747141609 281.704632379 c 0
 157.747141609 270.055743528 160.190910893 258.622923182 166 249 c 0
 193.467110157 203.499942041 282 118 282 118 c 1
 253 72 l 1
 253 72 155.732214011 150.493296264 135 172 c 0
 104.159788005 203.992304448 89.3553127274 248.028632832 89.3553127274 289.431560212 c 0
 89.3553127274 329.131693282 104.359128198 366.201987112 133 392 c 0
 166.503354419 422.177851256 198.908607296 432.397973075 246.964348702 432.397973075 c 0
 323.951742186 432.397973075 488 356 488 356 c 13
 488 575 l 1
 -14 575 l 1
 -14 636 l 1
 655 636 l 1
 655 575 l 1
 555 575 l 1
 555 0 l 25
 488 0 l 17
 488 290 l 1
EndSplineSet
EndChar

StartChar: bnNNA
Encoding: 125 2467 34
Width: 620
VWidth: 0
Flags: HW
HStem: 0 21G<462 531> 538.592 68.2524<170.512 328.632> 575 61<531 632>
VStem: 77.3553 68.3918<406.747 513.054> 462 69<0 474.527 540 575>
LayerCount: 2
Back
Fore
SplineSet
531 575 m 25xb8
 531 0 l 1
 462 0 l 1
 462 465 l 1
 462 465 326.426376679 538.591627969 222.335916795 538.591627969 c 0
 176.018837109 538.591627969 145.747141609 496.931050812 145.747141609 458.264707012 c 0
 145.747141609 404 270 295 270 295 c 9
 234 255 l 1
 234 255 163 309 123 349 c 0
 91.5784610515 380.421538948 77.3553127274 425.028632832 77.3553127274 466.431560212 c 0
 77.3553127274 506.131693282 91.6298631522 544.035383679 121 569 c 0
 155.547608888 598.365467554 199.378285507 606.844032712 237.792922667 606.844032712 c 0xd8
 266.094284206 606.844032712 291.455945777 602.242065185 308 598 c 0
 394 575 462 540 462 540 c 1
 462 636 l 25
 484 730 l 1
 531 730 l 1
 531 636 l 25
 632 636 l 17
 632 575 l 1
 531 575 l 25xb8
EndSplineSet
EndChar

StartChar: bnGA
Encoding: 113 2455 35
Width: 555
VWidth: 0
Flags: HW
HStem: 0 21G<400 469> 502 62<368.84 401.617> 549.388 71.3906<122.923 281.654> 575 61<469 572>
VStem: 15.8506 82.9395<446.022 515.932> 220.035 71.0049<258.289 339.419> 401.617 67.3828<0 502 564 575>
LayerCount: 2
Back
Fore
SplineSet
401.6171875 502 m 1xde
 265 531 l 0
 242.241210938 536.090820312 192 549.387695312 164.770507812 549.387695312 c 0
 142.79157306 549.387695312 98.7900390625 496.487574174 98.7900390625 469.06640625 c 0
 98.7900390625 442.001953125 159.537109375 435.140625 216 412 c 0
 254 397 264 386 273 361 c 0
 277.759931195 348.624178893 291.040039062 295.348816276 291.040039062 263.68359375 c 0
 291.040039062 221 125 135 125 135 c 1
 95 182 l 1
 95 182 220.03515625 264.698242188 220.03515625 286.23828125 c 0
 220.03515625 306.245436484 213.856760258 334.476349892 191 344 c 0
 129.75 368.682617188 15.8505859375 391.694335938 15.8505859375 448.177734375 c 0
 15.8505859375 503.37678978 70.6861683228 587.610733578 91 603 c 0
 108.905273438 616.428710938 135.889648438 620.778320312 161.793945312 620.778320312 c 0xae
 182.184570312 620.778320312 201.912677411 618.11666429 216 615 c 0
 329 590 401.837890625 564 401.837890625 564 c 9
 402 617 l 1
 394 702 l 1
 430 702 l 1
 456 636 l 9
 572 636 l 17
 572 575 l 1
 469 575 l 25
 469 0 l 1
 400 0 l 1
 401.6171875 502 l 1xde
EndSplineSet
EndChar

StartChar: bnPA
Encoding: 131 2474 36
Width: 700
VWidth: 0
Flags: HW
HStem: 0 21G<554.004 621.598> 549 70<246.602 386.414> 575 61<621.598 709.598>
VStem: 554.004 67.5938<0 384 455 575>
LayerCount: 2
Back
Fore
SplineSet
455 469 m 1xd0
 455 469 423.064540485 500.083852295 401 517 c 0
 371 540 343 554 315 554 c 4
 287 554 263.74546325 537.429386529 250 529 c 0
 225.557617188 514.010742188 166 475 166 475 c 1
 266 313 l 1
 455 469 l 1xd0
621.59765625 0 m 17
 554.00390625 0 l 9
 554.00390625 377 l 17
 500 429 l 25
 277 240 l 1
 232 247 l 1
 114 440 l 1
 54 400 l 1
 23 440 l 1
 23 440 136 539 216 585 c 0
 247 603 283 621 312 621 c 0xd0
 348 621 374.313476562 610.5390625 397 595 c 0
 470 545 554.59765625 455 554.59765625 455 c 1
 554.59765625 617 l 1
 546.59765625 702 l 1
 582.59765625 702 l 1
 608.59765625 636 l 9
 709.59765625 636 l 17
 709.59765625 575 l 1
 621.59765625 575 l 25xb0
 621.59765625 0 l 17
EndSplineSet
EndChar

StartChar: bnLA
Encoding: 138 2482 37
Width: 750
VWidth: 0
Flags: HW
HStem: 0 21G<588 655> 384 67<158.219 335.585 445.319 572.813> 575 61<-14 588 655 759>
VStem: 73 65<257.333 364.122> 357 52<206 258.182> 588 67<0 369.076 435 574>
LayerCount: 2
Back
Fore
SplineSet
588 433 m 9
 588 575 l 1
 -14 575 l 1
 -14 636 l 1
 759 636 l 1
 759 575 l 1
 655 575 l 1
 655 0 l 25
 588 0 l 17
 588 296 l 0
 588 345 578 384 520 384 c 2
 506 384 l 2
 448 384 430 360 420 288 c 2
 409 206 l 1
 357 205 l 1
 354 287 l 2
 351 362 329 385 282 385 c 2
 212 385 l 2
 169 385 138 355 138 309 c 0
 138 240.915925234 180 109 180 109 c 1
 134 95 l 1
 134 95 73 202.530218391 73 323 c 0
 73 410 139 455 209 455 c 2
 283 456 l 2
 342 456 379 441 391 400 c 1
 413 443 449 451 510 451 c 2
 526 451 l 2
 563.28443864 451 588 433 588 433 c 9
EndSplineSet
EndChar

StartChar: bnDA
Encoding: 128 2470 38
Width: 575
Flags: HW
HStem: 575.328 61<-11 112.9 179.9 590>
VStem: 112.9 67<332 574.656>
LayerCount: 2
Back
Fore
SplineSet
113 575.328125 m 13
 -11 575.328125 l 1
 -11 636.328125 l 1
 590 636.328125 l 1
 590 575.328125 l 1
 179.900390625 575.328125 l 1
 179.900390625 332 l 25
 458.900390625 452 l 1
 504.099609375 429 l 1
 459.599609375 66 l 1
 408.19921875 -35 l 1
 370.499023438 -35 l 1
 425.099609375 363 l 1
 147.900390625 244 l 1
 112.900390625 294.500976562 l 1
 113 575.328125 l 13
EndSplineSet
EndChar

StartChar: bnSHA
Encoding: 139 2486 39
Width: 645
VWidth: 0
Flags: HW
HStem: 0 21G<487 556> 264 66.751<37 184.45 283.794 403.674> 526 69<15.3355 190.982 284.308 476.52> 575 61<556 660>
VStem: 201 71<348.986 511.392> 487 69<0 509.715 572 575 636 661.773> 509 47<691.227 717>
LayerCount: 2
Back
Fore
SplineSet
487 572 m 1xec
 487 636 l 1xdc
 509 717 l 1
 556 717 l 1xda
 556 636 l 25
 660 636 l 17
 660 575 l 1
 556 575 l 25xdc
 556 0 l 1
 487 0 l 1
 487 489 l 1
 487 519 400 521 349 521 c 0
 294.770783589 521 272 512 272 459 c 2
 272 384 l 2
 273 355 292.831059605 336.5974117 312 335 c 0
 348 332 402 332 402 332 c 1
 411 277 l 1
 411 277 346 264 307 264 c 0
 263.115121619 264 239 301 239 301 c 1
 239 301 203.973260202 264 154 264 c 0
 115 264 30 269 30 269 c 1
 37 329 l 1
 37 329 114.077946537 330.011850363 146 335 c 0
 165 338 201 354 201 384 c 2
 201 469 l 2
 201 513 169 526 143 526 c 0
 108 526 -1 511 -1 511 c 1
 -10 567 l 1
 -10 567 105 595 157 595 c 0
 197 595 223 588 247 558 c 1
 267 588 299 590 342 590 c 0
 378 590 458 587 487 572 c 1xec
EndSplineSet
EndChar

StartChar: bnMA
Encoding: 135 2478 40
Width: 585
VWidth: 0
Flags: HW
HStem: 0 21G<450 515.035> 297 73<180.009 253.347> 575 61<-14 81 156 450 516 594>
VStem: 81 71<184.502 264.85> 257 64<357.798 431.023> 450 65<0 230.669 287 575>
LayerCount: 2
Back
Fore
SplineSet
81 575 m 9
 -14 575 l 17
 -14 636 l 1
 594 636 l 1
 594 575 l 9
 516 575 l 17
 515 0 l 1
 450 0 l 9
 450 224 l 17
 450 224 226.879292269 297 207 297 c 0
 196 297 189 290 176 269 c 0
 166 252 152 233 152 216 c 0
 152 208 154.137850404 201.157183035 161 195 c 0
 199.926370328 160.07263742 248 117 248 117 c 1
 219 78 l 1
 219 78 160.816554976 109.553858241 114 148 c 0
 93.7736330764 164.610059634 81 185 81 211 c 0
 81 234 91 262 116 302 c 0
 149 355 170 370 197 370 c 0
 217 370 251 357 251 357 c 2
 251.132403517 357.926824621 257 393.220407775 257 401 c 4
 257 412 246.814585827 419.805256919 230 436 c 0
 191.032846085 473.530692266 81 575 81 575 c 9
450 287 m 9
 450 575 l 25
 156 575 l 1
 156 575 197.101279512 544.904246863 234 516 c 0
 306.910849703 458.886008758 321 442 321 408 c 0
 321 394 312 339 312 339 c 1
 450 287 l 9
EndSplineSet
EndChar

StartChar: bnSA
Encoding: 141 2488 41
Width: 700
VWidth: 0
Flags: HW
HStem: 0 21G<550 615.035> 119 75<145.706 233.766> 323 80<378 442.525> 575 61<-9 172 198 550 616 711>
VStem: 550 65<0 274.666 341 575>
LayerCount: 2
Back
Fore
SplineSet
550 266 m 1
 550 266 482.155511662 292.006822186 448 304 c 0
 436.956333354 307.877812141 392 323 386 323 c 0
 373 323 366 312 351 276 c 0
 315 190 284 119 218 119 c 0
 186 119 68 175 68 175 c 1
 87 226 l 1
 87 226 184.547485755 194 201 194 c 0
 235 194 265 263 292 325 c 0
 296 335 310 366 310 384 c 0
 310 410 301.185483133 434.81510499 276 453 c 0
 236.4428894 481.561767084 153 541 153 541 c 9
 172 575 l 25
 -9 575 l 1
 -9 636 l 1
 711 636 l 1
 711 575 l 9
 616 575 l 17
 615 0 l 1
 550 0 l 1
 550 266 l 1
550 341 m 9
 550 575 l 25
 198 575 l 1
 198 575 247.463867188 548.0625 260 541 c 4
 308.744140625 513.540039062 336.740234375 503.719726562 360 471 c 0
 377.625976562 446.205078125 378 403 378 403 c 1
 390 403 403.192784034 396.528226596 423 389 c 0
 502.100550158 358.935862441 550 341 550 341 c 9
EndSplineSet
EndChar

StartChar: bnJA
Encoding: 118 2460 42
Width: 950
Flags: HW
HStem: 24.8799 75.2969<357.951 466.021> 291 66<417.081 603.173> 575 62<-15 355 418 958>
VStem: 355 63<345 493 551.756 575> 604.099 71.1387<226.334 287.791> 716 35<-16 7.91089> 790.237 68.2441<306.531 395.602>
LayerCount: 2
Back
Fore
SplineSet
780 322 m 0
 794.009964466 371.292199136 775.737867518 400.714762969 727 415 c 0
 669 432 418 493 418 493 c 1
 418 345 l 1
 418 345 528.648051807 357.060760453 571 357 c 0
 631.735289058 356.912865787 675.237304688 314.080078125 675.237304688 265.31640625 c 0
 675.237304688 251.5546875 668.935546875 238.715820312 662 226 c 0
 640 186 568 118 509 65 c 0
 479.8203125 38.697265625 446.823242188 24.8798828125 415.9140625 24.8798828125 c 0
 371.612304688 24.8798828125 322.174940336 56.146873974 253 126 c 0
 151 229 82 427 82 427 c 1
 129 448 l 1
 129 448 242 254 302 179 c 0
 340.392521852 131.009347685 375.477539062 100.176757812 412.411132812 100.176757812 c 0
 430.375 100.176757812 449.40234375 108.001953125 471 126 c 0
 516 163 576 212 595 242 c 0
 601.315429688 251.735351562 604.098632812 259.740234375 604.098632812 266.250976562 c 0
 604.098632812 284.484375 582.264648438 291 555 291 c 0
 526 291 355 291 355 291 c 9
 355 575 l 25
 -15 575 l 1
 -15 637 l 1
 958 637 l 1
 958 575 l 25
 418 575 l 25
 418 555 l 1
 418 555 629 518 715 491 c 0
 790.010742188 467.1328125 858.481445312 447.625976562 858.481445312 373.022460938 c 0
 858.481445312 360.103515625 856.428710938 345.532226562 852 329 c 2
 751 -16 l 1
 716 -16 l 1
 709 73 l 1
 709 73 754.043225765 230.674537499 780 322 c 0
EndSplineSet
EndChar

StartChar: bnO
Encoding: 109 2451 43
Width: 725
VWidth: 0
Flags: HW
HStem: 25 73<335.238 470.405> 346 63<368 510.427> 563 72<253.094 514.101>
VStem: 521 69<414.879 554.233> 572 71<185.206 305.439>
LayerCount: 2
Back
Fore
SplineSet
434 563 m 0xf0
 376.293507391 563 253 563 253 563 c 1
 245 616 l 1
 245 616 335 636 432 636 c 0
 546.003759453 636 590 606 590 546 c 0xf0
 590 530 589.6875 503.8125 588 483 c 0
 585 446 585 398 565 384 c 1
 603.128391638 370.927408581 643 280.769566335 643 237 c 4
 643 187 584 100 490 47 c 0
 462 31 426 25 402 25 c 0
 345 25 286.497855358 50.3703380157 212 150 c 4
 129 261 70 400 70 400 c 5
 109 424 l 1
 271 190 l 2
 305 141 340 98 403 98 c 0
 446 98 501 137 517 150 c 0
 571 193 572 234 572 246 c 0xe8
 572 273 539 346 497 346 c 1
 368 346 l 1
 368 409 l 1
 368 409 439.060745925 409 473 409 c 0
 512 409 515 428 519 474 c 0
 520.706054688 493.623046875 521 503 521 516 c 0
 521 557 491 563 434 563 c 0xf0
EndSplineSet
EndChar

StartChar: bnAU
Encoding: 110 2452 44
Width: 850
VWidth: 0
Flags: HW
HStem: 25 73<359.16 495.405> 346 63<368 512.139 626 657.493> 563 72<253.094 514.101>
VStem: 521 69<414.432 554.236> 597 71<185.206 305.95> 690 64<438.628 711.696>
LayerCount: 2
Back
Fore
SplineSet
570 406 m 1
 639 406 690 439 690 486 c 0
 690 567.413559577 690 736 690 736 c 9
 740 740 l 1
 740 740 754 541.482365049 754 482 c 0
 754 396 679 346 626 346 c 1
 626 346 668 283.801780541 668 243 c 0
 668 184 612.973422775 102.240334118 515 47 c 0
 487 31 451 25 427 25 c 0
 370 25 313 50 239 150 c 0
 165 250 97 400 97 400 c 1
 134 424 l 1
 296 190 l 2
 330 141 365 98 428 98 c 0
 471 98 526 137 542 150 c 0
 596 193 597 234 597 246 c 0
 597 273 564 346 521 346 c 9
 368 346 l 17
 368 409 l 1
 368 409 438.686414591 408.999989509 473 409 c 0
 512 409.000011923 515 428 519 474 c 0
 521 494 521 503 521 516 c 0
 521 557 492 563 434 563 c 0
 375.22626345 563 253 563 253 563 c 1
 245 616 l 1
 245 616 356 638 432 638 c 0
 559 638 590 606 590 546 c 0
 590 530 589.5703125 504.086914062 589 483 c 0
 588 446 590 421 570 406 c 1
EndSplineSet
EndChar

StartChar: bnII
Encoding: 102 2440 45
Width: 780
VWidth: 0
Flags: HW
HStem: 398 42<675.25 693> 450.313 65.6865<155.719 333.931> 575 61<-14 564 634 791> 708 64<277.792 552.718>
VStem: 336 68<366.649 447.809> 520 42<-64 -16.7692> 564 70<636 696.221>
LayerCount: 2
Back
Fore
SplineSet
118 425 m 5
 104 478 l 5
 157 498 234 516 303 516 c 0
 355 516 407 485 407 431 c 0
 407 404 398.602364362 384.041885227 392 373 c 2
 334 276 l 25
 590 440 l 1
 693 440 l 1
 698 398 l 1
 620 374 l 1
 562 -64 l 1
 520 -69 l 1
 507 28 l 1
 550 328 l 1
 171 101 l 1
 150 147 l 1
 203 200 l 1
 306 354 l 2
 321 375 336 405 336 421 c 0
 336 443.201171875 317.139619855 450.276234587 292.877929688 450.313476562 c 0
 247.55270311 450.38305131 118 425 118 425 c 5
634 636 m 9
 791 636 l 1
 791 575 l 25
 -14 575 l 1
 -14 636 l 1
 564 636 l 17
 564 690 548 708 500 708 c 0
 387.324212664 708 158 708 158 708 c 9
 154 758 l 1
 154 758 446.754298361 772 506 772 c 0
 601 772 634 714 634 636 c 9
EndSplineSet
EndChar

StartChar: bnvL
Encoding: 106 2444 46
Width: 650
Flags: HW
HStem: 2 71<359.297 493.885> 250 70<152.422 289.037>
VStem: 75 61<62.085 235.679> 287 68<456.582 542.829> 301 63<75.0336 241.229> 505 69<86.2611 276.18>
LayerCount: 2
Back
Fore
SplineSet
138 63 m 1xec
 87 55 l 1
 87 55 75 135 75 186 c 0
 75 276 109 320 202 320 c 0
 256 320 291 318 327 294 c 0
 356 275 363.930365021 221.999946122 364 177 c 0xec
 364.086226875 121.277935957 358 75 358 75 c 1
 358 75 418 73 448 73 c 0
 475.870316936 73 505 93 505 126 c 2
 505 240 l 2
 505 302 287 374 287 494 c 0
 287 548 314 580 335 599 c 0
 372 635 436 660 436 660 c 1
 463 618 l 1
 463 618 421 582 387 553 c 0
 365 534 355 518 355 492 c 0xf4
 355 438 574 334 574 258 c 2
 574 122 l 2
 574 28 504 2 453 2 c 0
 402 2 301 17 301 17 c 1
 301 130 l 2
 301 174 299 219 284 237 c 0
 275 249 253 250 229 250 c 0
 220 250 210 250 201 250 c 0
 140 250 136 202 136 154 c 0
 136 108 138 63 138 63 c 1xec
EndSplineSet
EndChar

StartChar: bnTTHA
Encoding: 122 2464 47
Width: 580
Flags: HW
HStem: -0.148438 74.1484<239.079 318.497> 574.179 61.8213<-14 168 240 593>
VStem: 168 72<534.535 574> 455 73<186.759 263.177>
LayerCount: 2
Back
Fore
SplineSet
528 225 m 0
 528 143 311.399414062 -0.1484375 269.408203125 -0.1484375 c 0
 226.784680852 -0.1484375 64 149 64 149 c 1
 65 217 l 1
 65 217 160.046169051 332.290152319 192.094726562 374.038085938 c 0
 212.725457115 400.912629958 226 421.7890625 226 444 c 0
 226 464.1328125 213.094726562 481.038085938 190.094726562 513.038085938 c 0
 170.250976562 540.646484375 168 562 168 574 c 1
 -14 574 l 5
 -14 636 l 1
 169.591796875 636 l 1
 169.591796875 636 170.68612777 659.389358007 196 687 c 0
 249.553511479 745.412510717 350 816 350 816 c 1
 382 779 l 1
 382 779 284.851170428 689.180379846 254 658 c 0
 243.519582607 647.407747235 237.81640625 636 237.81640625 636 c 1
 593 636 l 1
 593 574 l 1
 240 574.178710938 l 17
 240 507 528 335 528 225 c 0
455 222 m 0
 455 265 283.094726562 411.038085938 283.094726562 411.038085938 c 1
 283.094726562 384.907226562 270.845506637 369.026704197 249.094726562 340.038085938 c 0
 209.540038786 287.321091861 131 185 131 185 c 1
 131 185 241.615798906 74 276 74 c 0
 303.641601562 74 455 185 455 222 c 0
EndSplineSet
EndChar

StartChar: A
Encoding: 20 65 48
Width: 670
Flags: W
HStem: 0 21G<45 142.471 550.824 645> 204 74<229 468> 712 20G<306.65 395.022>
LayerCount: 2
Back
Fore
SplineSet
45 0 m 5
 314 732 l 5
 388 732 l 5
 645 0 l 5
 557 0 l 5
 494 204 l 5
 202 204 l 5
 136 0 l 5
 45 0 l 5
229 278 m 5
 468 278 l 5
 350 619 l 5
 229 278 l 5
EndSplineSet
Validated: 1
EndChar

StartChar: B
Encoding: 21 66 49
Width: 596
Flags: W
HStem: 0 74<155 437.089> 346 74<155 431.662> 658 74<155 438.829>
VStem: 80 75<74 346 420 658> 482 74<118.643 293.498 467.176 614.376>
LayerCount: 2
Back
Fore
SplineSet
80 0 m 5
 80 732 l 5
 362 732 l 6
 508 732 552 624 552 542 c 4
 552 468 531 402 460 380 c 5
 504 370 556 318 556 204 c 4
 556 102 516 0 362 0 c 6
 80 0 l 5
155 74 m 5
 362 74 l 6
 410 74 482 87 482 206 c 4
 482 280 446 346 362 346 c 6
 155 346 l 5
 155 74 l 5
155 420 m 5
 362 420 l 6
 437 420 478 460 478 542 c 4
 478 639 414 658 362 658 c 6
 155 658 l 5
 155 420 l 5
EndSplineSet
Validated: 1
EndChar

StartChar: C
Encoding: 22 67 50
Width: 578
Flags: W
HStem: -6 74<220.9 539.594> 666 74<203.384 525.638>
VStem: 55 74<193.881 566.781>
LayerCount: 2
Back
Fore
SplineSet
55 368 m 4
 55 602 100 740 299 740 c 4
 351 740 473 728 543 715 c 5
 543 656 l 6
 542 656 391 666 299 666 c 4
 174 666 129 609 129 366 c 4
 129 202 166 68 299 68 c 0
 404 68 543 75 543 75 c 1
 543 16 l 1
 473 3 351 -6 299 -6 c 0
 114 -6 55 153 55 368 c 4
EndSplineSet
Validated: 1
EndChar

StartChar: D
Encoding: 23 68 51
Width: 657
Flags: W
HStem: 0 77<154 432.267> 658 74<154 436.081>
VStem: 80 74<77 658> 538 74<215.053 531.866>
LayerCount: 2
Back
Fore
SplineSet
80 0 m 5
 80 732 l 5
 352 732 l 6
 577 732 612 513 612 363 c 4
 612 197 545 0 352 0 c 6
 80 0 l 5
154 77 m 5
 352 77 l 6
 484 77 538 210 538 364 c 4
 538 578 468 658 352 658 c 6
 154 658 l 5
 154 77 l 5
EndSplineSet
Validated: 1
EndChar

StartChar: E
Encoding: 24 69 52
Width: 567
Flags: W
HStem: -3.51911 74.5191<160.578 338.266> 14 57<396 522> 323 79<154 383.6> 333 59<252.4 482> 658 74.1761<160.901 342.745> 658 58<383.75 522>
VStem: 80 74<76.6798 323 402 652.375>
LayerCount: 2
Back
Fore
SplineSet
80 123 m 2x82
 80 602 l 2
 80 696.180545884 134.490684939 732.176123104 198.205696272 732.176123104 c 4x8a
 200.789632901 732.176123104 203.388740553 732.116922065 206 732 c 2
 522 716 l 1
 522 658 l 1x06
 206 658 l 2
 154 658 154 629 154 602 c 2
 154 402 l 1x2a
 482 392 l 1
 482 333 l 1x12
 154 323 l 1
 154 123 l 2
 154.963636364 71.9272727273 184.713719008 70.998677686 212.826097671 70.998677686 c 0
 213.886942149 70.998677686 214.945454545 71 216 71 c 2
 522 71 l 1
 522 14 l 1x62
 216 -3 l 2
 210.525242644 -3.33180347614 205.022961901 -3.51910917213 199.535394915 -3.51910917213 c 0
 138.868537602 -3.51910917213 80 19.373448201 80 123 c 2x82
EndSplineSet
Validated: 1
EndChar

StartChar: F
Encoding: 25 70 53
Width: 567
Flags: W
HStem: 0 21G<80 154> 323 79<154 383.6> 333 59<252.4 482> 658 74.1761<160.901 342.745> 658 58<383.75 522>
VStem: 80 74<0 323 402 652.375>
LayerCount: 2
Back
Fore
SplineSet
80 0 m 1xc4
 80 602 l 2
 80 696.180545884 134.490684939 732.176123104 198.205696272 732.176123104 c 0xd4
 200.789632901 732.176123104 203.388740553 732.116922065 206 732 c 2
 522 716 l 5
 522 658 l 1x8c
 206 658 l 2
 154 658 154 629 154 602 c 2
 154 402 l 1xd4
 482 392 l 1
 482 333 l 1xa4
 154 323 l 1
 154 0 l 1
 80 0 l 1xc4
EndSplineSet
Validated: 1
EndChar

StartChar: G
Encoding: 26 71 54
Width: 614
Flags: W
HStem: -5.01799 73.018<207.766 412.528> 314 75<328.605 485> 314 50<317 425.87> 666 74<205.82 510.876>
VStem: 55 74<173.936 567.504> 485 74<114 314> 503 56<0 21.4375>
LayerCount: 2
Back
Fore
SplineSet
55 370 m 0xda
 55 570 90 740 289 740 c 0
 341 740 473 726 543 713 c 1
 543 654 l 1
 537 654 388 666 289 666 c 0
 157 666 129 570 129 368 c 0
 129 146 170 70 293 68 c 0
 293.8 67.9894736842 294.604432133 67.984265928 295.413114448 67.984265928 c 0
 371.429252078 67.984265928 485 114 485 114 c 1
 485 314 l 1xdc
 317 314 l 1
 317 364 l 1xbc
 357 375 410 389 491 389 c 0
 512 389 535 388 559 386 c 1
 559 0 l 1
 503 0 l 1
 487 49 l 1
 449 28 383 -5 293 -5 c 0
 291.757800818 -5.01200192447 290.521939668 -5.01798992046 289.292385216 -5.01798992046 c 0
 85.6290566996 -5.01798992046 55 159.272203993 55 370 c 0xda
EndSplineSet
Validated: 1
EndChar

StartChar: H
Encoding: 27 72 55
Width: 638
Flags: W
HStem: 0 21G<80 154 504 578> 317 74<154 504> 712 20G<80 154 504 578>
VStem: 80 74<0 317 391 732> 504 74<0 317 391 732>
LayerCount: 2
Back
Fore
SplineSet
80 0 m 5
 80 732 l 5
 154 732 l 5
 154 391 l 5
 504 391 l 5
 504 732 l 5
 578 732 l 5
 578 0 l 5
 504 0 l 5
 504 317 l 5
 154 317 l 5
 154 0 l 5
 80 0 l 5
EndSplineSet
Validated: 1
EndChar

StartChar: I
Encoding: 28 73 56
Width: 214
Flags: W
HStem: 0 21G<80 154> 712 20G<80 154>
VStem: 80 74<0 732>
LayerCount: 2
Back
Fore
SplineSet
80 0 m 5
 80 732 l 5
 154 732 l 5
 154 0 l 5
 80 0 l 5
EndSplineSet
Validated: 1
EndChar

StartChar: J
Encoding: 29 74 57
Width: 359
Flags: W
HStem: -6.04957 64.9118<44.4683 197.867> 712 20G<225 299>
VStem: 225 74<88.3998 732>
LayerCount: 2
Back
Fore
SplineSet
35 21 m 1
 39 75 l 1
 68.0529903498 67.9330564014 102.809198593 58.8622794888 134.372626352 58.8622794888 c 0
 183.203458393 58.8622794888 224.392607978 80.5725089004 225 165 c 2
 225 732 l 1
 299 732 l 1
 299 165 l 2
 299 118 297 50 247 18 c 0
 221.66685093 1.74854587993 183.996394685 -6.04956813839 145.891905114 -6.04956813839 c 0
 104.277211659 -6.04956813839 62.1448348752 3.25145412007 35 21 c 1
EndSplineSet
Validated: 1
EndChar

StartChar: K
Encoding: 30 75 58
Width: 591
Flags: W
HStem: 0 21G<80 155 452.061 556> 330 74<155 236> 712 20G<80 154 451.976 556>
VStem: 80 75<0 330 404 732>
LayerCount: 2
Back
Fore
SplineSet
80 0 m 5
 80 732 l 5
 154 732 l 5
 154 404 l 5
 236 404 l 5
 466 732 l 5
 556 732 l 5
 304 367 l 5
 556 0 l 5
 466 0 l 5
 236 330 l 5
 155 330 l 5
 155 0 l 5
 80 0 l 5
EndSplineSet
Validated: 1
EndChar

StartChar: L
Encoding: 31 76 59
Width: 557
Flags: W
HStem: 0 74<161.01 522> 712 20G<80 154>
VStem: 80 74<80.0236 732>
LayerCount: 2
Back
Fore
SplineSet
80 126 m 2
 80 732 l 1
 154 732 l 1
 154 126 l 2
 154 74.9272727273 184.643636364 73.998677686 212.822274981 73.998677686 c 0
 213.885619835 73.998677686 214.945454545 74 216 74 c 2
 522 74 l 1
 522 0 l 1
 216 0 l 2
 150 0 80 13 80 126 c 2
EndSplineSet
Validated: 1
EndChar

StartChar: M
Encoding: 32 77 60
Width: 801
Flags: W
HStem: 0 21G<55 130.338 356.512 445.288 670.495 746> 712 20G<101.689 211.404 582.793 691.53>
LayerCount: 2
Back
Fore
SplineSet
55 0 m 5
 103 732 l 5
 205 732 l 5
 400 123 l 5
 589 732 l 5
 690 732 l 5
 746 0 l 5
 672 0 l 5
 627 598 l 5
 439 0 l 5
 363 0 l 5
 169 598 l 5
 129 0 l 5
 55 0 l 5
EndSplineSet
Validated: 1
EndChar

StartChar: N
Encoding: 33 78 61
Width: 680
Flags: W
HStem: 0 21G<80 155 532.835 620> 712 20G<80 169.131 546 620>
VStem: 80 75<0 594> 546 74<138 732>
LayerCount: 2
Back
Fore
SplineSet
80 0 m 1
 80 732 l 1
 156 732 l 1
 546 138 l 1
 546 732 l 1
 620 732 l 1
 620 0 l 1
 546 0 l 1
 155 594 l 1
 155 0 l 1
 80 0 l 1
EndSplineSet
Validated: 1
EndChar

StartChar: O
Encoding: 34 79 62
Width: 676
Flags: W
HStem: -4 74<219.697 475.299> 663 74<215.42 480.653>
VStem: 65 74<165.414 559.094> 557 74<169.3 563.994>
LayerCount: 2
Back
Fore
SplineSet
65 361 m 4
 65 704 181 737 349 737 c 4
 522 737 631 704 631 361 c 4
 631 38 529 -4 349 -4 c 4
 169 -4 65 28 65 361 c 4
139 361 m 4
 139 104 191 70 349 70 c 4
 505 70 557 112 557 361 c 4
 557 660 485 663 349 663 c 4
 216 663 139 660 139 361 c 4
EndSplineSet
Validated: 1
EndChar

StartChar: P
Encoding: 35 80 63
Width: 581
Flags: W
HStem: 0 21G<60 134> 298 74<134.363 426.956> 318 54<134 354.472> 657 75<134 425.273>
VStem: 60 74<0 318 372 657> 461 75<409.245 618.009>
LayerCount: 2
Back
Fore
SplineSet
60 0 m 5xbc
 60 732 l 5
 361 732 l 6
 440 732 536 699 536 520 c 4
 536 311 435 298 361 298 c 4xdc
 321 298 139 315 134 318 c 5
 134 0 l 5
 60 0 l 5xbc
134 372 m 5xbc
 361 372 l 6xdc
 413 372 461 387 461 520 c 4
 459 651 396 657 361 657 c 6
 134 657 l 5
 134 372 l 5xbc
EndSplineSet
Validated: 1
EndChar

StartChar: Q
Encoding: 36 81 64
Width: 676
Flags: W
HStem: -142.846 75.0458<390.139 536.007> -4 74<218.166 473.746> 663 74<216.209 479.207>
VStem: 65 74<165.414 563.994> 557 74<174.009 563.994>
LayerCount: 2
Back
Fore
SplineSet
65 361 m 0
 65 704 175 737 347 737 c 0
 520 737 631 704 631 361 c 0
 631 38 527 -4 347 -4 c 0
 167 -4 65 28 65 361 c 0
139 361 m 0
 139 104 189 70 347 70 c 0
 503 70 557 112 557 361 c 0
 557 660 483 663 347 663 c 0
 214 663 139 660 139 361 c 0
317 -33 m 1
 369 -33 l 1
 404.179551058 -57.966133009 434.851711019 -67.8003101921 465.400848415 -67.8003101921 c 0
 488.691127998 -67.8003101921 511.909902603 -62.0843456093 537 -53 c 1
 537 -133 l 1
 519.728852636 -139.476680262 499.005245418 -142.846146656 477.25846491 -142.846146656 c 0
 408.347215379 -142.846146656 329.161967252 -109.012295327 317 -33 c 1
EndSplineSet
Validated: 1
EndChar

StartChar: R
Encoding: 37 82 65
Width: 593
Flags: W
HStem: 0 21G<60 134 477.699 568> 313 66<134 234> 657 75<134 430.774>
VStem: 60 74<0 313 379 657> 466 75<404.847 621.147>
LayerCount: 2
Back
Fore
SplineSet
60 0 m 5
 60 732 l 5
 372 732 l 6
 467 732 541 678 541 512 c 4
 541 322 442 306 414 302 c 5
 568 0 l 5
 488 0 l 5
 334 299 l 5
 134 313 l 5
 134 0 l 5
 60 0 l 5
134 379 m 5
 372 379 l 6
 418 379 466 379 466 512 c 4
 466 643 416 657 372 657 c 6
 134 657 l 5
 134 379 l 5
EndSplineSet
Validated: 1
EndChar

StartChar: S
Encoding: 38 83 66
Width: 584
Flags: W
HStem: -8 74<108.551 432.534> 322 74<162.037 442.271> 664.518 73.4818<167.448 263>
VStem: 65 74<417.897 635.158> 465 74<97.8527 300.228>
LayerCount: 2
Back
Fore
SplineSet
65 494 m 2
 65 560 l 2
 65 705 151 738 263 738 c 0
 316 738 475 719 513 714 c 1
 513 654 l 1
 449 658 263 664 263 664 c 2
 255.67821785 664.313790664 248.531483843 664.518176238 241.60328302 664.518176238 c 0
 182.294323595 664.518176238 139 649.540311214 139 560 c 2
 139 494 l 2
 139 403 181 396 241 396 c 2
 383 396 l 2
 516 396 539 306 539 224 c 2
 539 156 l 2
 539 14 436 -8 337 -8 c 0
 288 -8 133 9 87 17 c 1
 87 77 l 1
 127 73 244 66 337 66 c 0
 378 66 465 68 465 156 c 2
 465 224 l 2
 465 281 448 322 383 322 c 2
 243 322 l 2
 83 322 65 410 65 494 c 2
EndSplineSet
Validated: 1
EndChar

StartChar: T
Encoding: 39 84 67
Width: 578
Flags: W
HStem: 0 21G<259 333> 658 74<45 259 333 553>
VStem: 259 74<0 658>
LayerCount: 2
Back
Fore
SplineSet
45 658 m 5
 45 732 l 5
 553 732 l 5
 553 658 l 5
 333 658 l 5
 333 0 l 5
 259 0 l 5
 259 658 l 5
 45 658 l 5
EndSplineSet
Validated: 1
EndChar

StartChar: U
Encoding: 40 85 68
Width: 677
Flags: W
HStem: -5.01681 74.0049<221.825 466.311> 712 20G<80 154 542 617>
VStem: 80 74<152.981 732> 542 75<163.07 732>
LayerCount: 2
Back
Fore
SplineSet
80 320 m 2
 80 732 l 1
 154 732 l 1
 154 320 l 2
 154 74.4646840149 227.021655312 68.9880598665 335.566717196 68.9880598665 c 0
 340.634969113 68.9880598665 345.780669145 69 351 69 c 0
 450 69 542 71 542 320 c 2
 542 732 l 1
 617 732 l 1
 617 320 l 2
 617 -3 472 -5 351 -5 c 0
 344.76504298 -5 338.532187749 -5.01681431187 332.314346157 -5.01681431187 c 0
 202.905518017 -5.01681431187 80 2.2664756447 80 320 c 2
EndSplineSet
Validated: 1
EndChar

StartChar: V
Encoding: 41 86 69
Width: 670
Flags: W
HStem: 0 21G<294.978 383.35> 712 20G<45 132.971 556.704 645>
LayerCount: 2
Back
Fore
SplineSet
45 732 m 5
 126 732 l 5
 340 118 l 5
 564 732 l 5
 645 732 l 5
 376 0 l 5
 302 0 l 5
 45 732 l 5
EndSplineSet
Validated: 1
EndChar

StartChar: W
Encoding: 42 87 70
Width: 962
Flags: W
HStem: 0 21G<294.978 382.471 626.674 714.257> 712 20G<45 133.065 513.997 604 849.859 937>
LayerCount: 2
Back
Fore
SplineSet
45 732 m 5
 126 732 l 5
 339 129 l 5
 520 732 l 5
 604 732 l 5
 536 498 l 5
 669 123 l 5
 856 732 l 5
 937 732 l 5
 708 0 l 5
 634 0 l 5
 497 374 l 5
 376 0 l 5
 302 0 l 5
 45 732 l 5
EndSplineSet
Validated: 1
EndChar

StartChar: X
Encoding: 43 88 71
Width: 596
Flags: W
HStem: 0 21G<48 140.494 473.377 566> 712 20G<45 137.726 478.013 571>
LayerCount: 2
Back
Fore
SplineSet
45 732 m 5
 126 732 l 5
 306 425 l 5
 490 732 l 5
 571 732 l 5
 355 371 l 5
 566 0 l 5
 485 0 l 5
 306 308 l 5
 129 0 l 5
 48 0 l 5
 257 371 l 5
 45 732 l 5
EndSplineSet
Validated: 1
EndChar

StartChar: Y
Encoding: 44 89 72
Width: 630
Flags: W
HStem: 0 21G<278 352> 712 20G<45 135.844 513.115 605>
VStem: 278 74<0 260>
LayerCount: 2
Back
Fore
SplineSet
45 732 m 5
 126 732 l 5
 315 348 l 5
 524 732 l 5
 605 732 l 5
 352 260 l 5
 352 0 l 5
 278 0 l 5
 278 260 l 5
 45 732 l 5
EndSplineSet
Validated: 1
EndChar

StartChar: Z
Encoding: 45 90 73
Width: 563
Flags: W
HStem: 0 74<132 528> 658 74<35 431>
LayerCount: 2
Back
Fore
SplineSet
35 0 m 5
 35 74 l 5
 431 658 l 5
 35 658 l 5
 35 732 l 5
 528 732 l 5
 528 658 l 5
 132 74 l 5
 528 74 l 5
 528 0 l 5
 35 0 l 5
EndSplineSet
Validated: 1
EndChar

StartChar: a
Encoding: 52 97 74
Width: 519
Flags: W
HStem: -6 74<124.061 278.286> 262 57.5556<297.875 395> 469 72.0163<92.8965 373.315>
VStem: 40 74<78.9822 232.113> 395 74<119 262 319.623 449.467> 414 55<0 23.5789>
LayerCount: 2
Back
Fore
SplineSet
40 126 m 2xf8
 40 187 l 2
 40 267 90 320 173 320 c 2
 173 320 271.666666667 319.555555556 337.444444444 319.555555556 c 0
 370.333333333 319.555555556 395 319.666666667 395 320 c 2
 395 320 395.444444444 349.333333333 395.444444444 369.185185185 c 0
 395.444444444 379.111111111 395.333333333 386.666666667 395 387 c 0
 395 448 363 469 313 469 c 0
 241 469 154 464 57 457 c 1
 57 511 l 1
 128 531 217 540 316 541 c 0
 316.900157753 541.010845274 317.798786447 541.01628003 318.695813371 541.01628003 c 0
 400.510104981 541.01628003 469 495.807019845 469 387 c 2xf8
 469 0 l 1
 414 0 l 1xf4
 395 64 l 2
 393 64 264 -6 173 -6 c 0
 100 -6 40 41 40 126 c 2xf8
114 131 m 2
 114 83 139 68 173 68 c 0
 253 68 395 119 395 119 c 1
 395 262 l 1
 173 246 l 2
 130 242 114 213 114 181 c 2
 114 131 l 2
EndSplineSet
Validated: 1
EndChar

StartChar: b
Encoding: 53 98 75
Width: 554
Flags: W
HStem: -6 74<225.261 383.478> 465 74<187.279 387.269>
VStem: 60 73<105.707 443.8 499 785> 430 74<128.042 415.865>
LayerCount: 2
Back
Fore
SplineSet
60 0 m 5
 60 785 l 5
 132 785 l 5
 132 499 l 5
 196 525 284 539 329 539 c 4
 480 539 504 399 504 263 c 4
 504 141 474 -6 329 -6 c 4
 261 -6 159 40 133 59 c 5
 113 0 l 5
 60 0 l 5
133 114 m 5
 187 92 250 68 329 68 c 4
 394 68 430 133 430 263 c 4
 430 426 393 465 329 465 c 4
 252 465 202 457 133 439 c 5
 133 114 l 5
EndSplineSet
Validated: 1
EndChar

StartChar: c
Encoding: 54 99 76
Width: 500
Flags: W
HStem: -5 74<162.645 431.709> 462 74<158.815 440.878>
VStem: 50 74<113 420.51>
LayerCount: 2
Back
Fore
SplineSet
50 266 m 4
 50 498 123 536 225 536 c 4
 277 536 383 523 453 510 c 5
 453 456 l 5
 453 456 314 462 225 462 c 4
 165 462 124 451 124 262 c 4
 124 109 153 69 225 69 c 4
 317 69 460 80 460 80 c 5
 460 24 l 5
 379 1 308 -4 225 -5 c 4
 126 -5 50 33 50 266 c 4
EndSplineSet
Validated: 1
EndChar

StartChar: d
Encoding: 55 100 77
Width: 554
Flags: W
HStem: -6 74<170.522 328.739> 465 74<166.731 366.308>
VStem: 50 74<128.042 415.865> 421 73<105.707 443.8 499 785>
LayerCount: 2
Back
Fore
SplineSet
50 263 m 4
 50 399 74 539 225 539 c 4
 270 539 357 525 421 499 c 5
 421 785 l 5
 494 785 l 5
 494 0 l 5
 441 0 l 5
 421 59 l 5
 395 40 293 -6 225 -6 c 4
 80 -6 50 141 50 263 c 4
124 263 m 4
 124 133 160 68 225 68 c 4
 304 68 367 92 421 114 c 5
 421 439 l 5
 352 457 302 465 225 465 c 4
 161 465 124 426 124 263 c 4
EndSplineSet
Validated: 1
EndChar

StartChar: f
Encoding: 57 102 78
Width: 400
Flags: W
HStem: 0 21G<117 191> 457 74<77.0588 117 191 339> 457 57<20 59.9412> 713 49<279.994 380> 714.02 71.9802<204.675 257 257.088 373.154>
VStem: 117 74<0 457 531 703.09>
LayerCount: 2
Back
Fore
SplineSet
20 457 m 1xa4
 20 514 l 1xa4
 117 531 l 1
 117 630 l 2
 117 684 120 786 240 786 c 0xcc
 289 786 331 777 380 762 c 1
 380 713 l 2x94
 379 713 257 714 257 714 c 2
 256.153921065 714.013219983 255.318677744 714.019798784 254.494131411 714.019798784 c 0
 192.947469603 714.019798784 191 677.365440799 191 630 c 2
 191 531 l 1
 339 531 l 1
 339 457 l 1
 191 457 l 1
 191 0 l 1
 117 0 l 1
 117 457 l 1xcc
 20 457 l 1xa4
EndSplineSet
Validated: 1
EndChar

StartChar: g
Encoding: 58 103 79
Width: 554
Flags: W
HStem: -270 74<140.344 413.093> 11 74<124.085 421.923> 149 74<155.811 372.113> 459 74<157.929 380.441> 477 56<502.5 534>
VStem: 48 74<-176.54 -31 87.9633 146.13 259.919 423.39> 410.139 73.8612<260.463 427.75> 431 74<-178.305 0.397503>
LayerCount: 2
Back
Fore
SplineSet
48 115 m 0xf5
 48 148 66 190 107 198 c 1
 63 226 49 291 49 344 c 0
 49 471 115 533 222 533 c 2xf5
 534 533 l 1
 534 477 l 1xed
 453 459 l 1
 464 438 484 417 484 344 c 0xf6
 484 284 461 149 319 149 c 2
 163 149 l 2
 147 149 122 145 122 119 c 0
 122 93 141 85 163 85 c 2
 376 85 l 2
 459 85 505 30 505 -53 c 2
 505 -116 l 2
 505 -176 486 -270 355 -270 c 2
 205 -270 l 2
 111 -270 45 -220 45 -116 c 2
 45 -31 l 1
 85 34 l 1
 57 54 48 88 48 115 c 0xf5
119 -116 m 2
 119 -189 170 -196 205 -196 c 2
 355 -196 l 2
 414 -196 431 -163 431 -116 c 2
 431 -58 l 2
 431 -11 421 11 363 11 c 2
 164 11 l 2
 133 11 119 19 119 19 c 1
 119 -116 l 2
123 344 m 0
 123 295 138 223 215 223 c 2
 313 223 l 2
 389.349151158 223 410.138807654 290.400042704 410.138807654 337.406286745 c 0xf6
 410.138807654 339.654022169 410.091271221 341.855126305 410 344 c 0
 407 414 391 459 312 459 c 2
 222 459 l 2
 140 459 123 399 123 344 c 0
EndSplineSet
Validated: 1
EndChar

StartChar: h
Encoding: 59 104 80
Width: 544
Flags: W
HStem: 0 21G<60 134 420 494> 466 74<227.78 392.774> 764 20G<60 134>
VStem: 60 74<0 418.956 469 784> 420 74<0 437.431>
LayerCount: 2
Back
Fore
SplineSet
60 0 m 5
 60 784 l 5
 134 784 l 5
 134 469 l 5
 195 504 249 540 330 540 c 4
 436 540 494 458 494 370 c 6
 494 0 l 5
 420 0 l 5
 420 370 l 6
 420 436 382 466 330 466 c 4
 250 466 211 446 134 409 c 5
 134 0 l 5
 60 0 l 5
EndSplineSet
Validated: 1
EndChar

StartChar: i
Encoding: 60 105 81
Width: 197
Flags: W
HStem: 0 21G<60 134> 511 20G<60 134> 594 102<50.1465 146.837>
VStem: 50 97<594.104 695.928> 60 74<0 531>
LayerCount: 2
Back
Fore
SplineSet
50 617 m 6xf0
 50 671 l 6
 50 686 58 696 74 696 c 6
 124 696 l 6
 139 696 147 685 147 671 c 6
 147 617 l 6
 147 602 138 594 124 594 c 6
 74 594 l 6
 60 594 50 603 50 617 c 6xf0
60 0 m 5xe8
 60 531 l 5
 134 531 l 5
 134 0 l 5
 60 0 l 5xe8
EndSplineSet
Validated: 1
EndChar

StartChar: j
Encoding: 61 106 82
Width: 217
Flags: W
HStem: -270 21G<71 130.009> 511 20G<71 145> 594 102<60.1465 156.837>
VStem: 60 97<594.104 695.928> 71 74.1958<-253.213 531> 71 48<-270 -151.818>
LayerCount: 2
Back
Fore
SplineSet
60 617 m 2xf0
 60 671 l 2
 60 686 68 696 84 696 c 2
 134 696 l 2
 149 696 157 685 157 671 c 2
 157 617 l 2
 157 602 148 594 134 594 c 2
 84 594 l 2
 70 594 60 603 60 617 c 2xf0
71 -270 m 1xe4
 71 531 l 1
 145 531 l 1
 145 -4 l 2
 145.11925824 -14.2562086707 145.195848897 -24.7115327319 145.195848897 -35.3083029594 c 0xe8
 145.195848897 -113.567197513 141.018543991 -199.540659229 119 -270 c 1
 71 -270 l 1xe4
EndSplineSet
Validated: 1
EndChar

StartChar: k
Encoding: 62 107 83
Width: 500
Flags: W
HStem: 0 21G<60 134 372.03 480> 268 74<134 174> 511 20G<355.519 480> 762 20G<60 134>
VStem: 60 74<0 268 342 782>
LayerCount: 2
Back
Fore
SplineSet
60 0 m 5
 60 782 l 5
 134 782 l 5
 134 342 l 5
 174 342 l 5
 377 531 l 5
 480 531 l 5
 244 305 l 5
 480 0 l 5
 388 0 l 5
 174 268 l 5
 134 268 l 5
 134 0 l 5
 60 0 l 5
EndSplineSet
Validated: 1
EndChar

StartChar: l
Encoding: 63 108 84
Width: 300
Flags: W
HStem: 0 74<154.414 191> 0 53<191.059 280> 763 20G<60 134>
VStem: 60 74<95.4826 783>
LayerCount: 2
Back
Fore
SplineSet
60 189 m 6x70
 60 783 l 5
 134 783 l 5
 134 189 l 6
 134 102 157 82 191 74 c 6xb0
 191 74 273 53 280 53 c 5
 280 0 l 5
 192 0 l 6
 115 0 60 48 60 189 c 6x70
EndSplineSet
Validated: 1
EndChar

StartChar: m
Encoding: 64 109 85
Width: 898
Flags: W
HStem: 0 21G<60 134 414 488 774 848> 463 74<222.499 382.263 566.626 742.395>
VStem: 60 74<0 416.931> 414 74<0 418.709> 774 74<0 431.686>
LayerCount: 2
Back
Fore
SplineSet
60 0 m 5
 60 531 l 5
 112 531 l 5
 134 467 l 5
 195 502 244 537 323 537 c 4
 388 537 447 508 470 459 c 5
 522 502 595 537 684 537 c 4
 776 537 848 468 848 366 c 6
 848 0 l 5
 774 0 l 5
 774 366 l 6
 774 425 736 463 684 463 c 4
 605 463 554 450 488 407 c 5
 488 368 l 5
 488 0 l 5
 414 0 l 5
 414 366 l 6
 414 425 375 463 323 463 c 4
 246 463 211 444 134 407 c 5
 134 0 l 5
 60 0 l 5
EndSplineSet
Validated: 1
EndChar

StartChar: n
Encoding: 65 110 86
Width: 544
Flags: W
HStem: 0 21G<60 134 420 494> 466 74<227.78 392.581> 511 20G<60 119.097>
VStem: 60 74<0 418.956> 420 74<0 437.431>
LayerCount: 2
Back
Fore
SplineSet
60 0 m 5xd8
 60 531 l 5
 112 531 l 5xb8
 134 469 l 5
 195 504 249 540 330 540 c 4
 436 540 494 458 494 370 c 6
 494 0 l 5
 420 0 l 5
 420 370 l 6
 420 436 381 466 330 466 c 4
 250 466 211 446 134 409 c 5
 134 0 l 5
 60 0 l 5xd8
EndSplineSet
Validated: 1
EndChar

StartChar: o
Encoding: 66 111 87
Width: 568
Flags: W
HStem: -5 74<175.515 395.003> 462 74<173.221 396.872>
VStem: 50 74<124.237 406.335> 444 74<126.206 409.804>
LayerCount: 2
Back
Fore
SplineSet
50 258 m 4
 50 475 110 536 284 536 c 4
 463 536 518 469 518 258 c 4
 518 61 463 -5 284 -5 c 4
 105 -5 50 68 50 258 c 4
124 258 m 4
 124 81 181 69 284 69 c 4
 392 69 444 83 444 258 c 4
 444 448 401 462 284 462 c 4
 172 462 124 449 124 258 c 4
EndSplineSet
Validated: 1
EndChar

StartChar: p
Encoding: 67 112 88
Width: 554
Flags: W
HStem: -270 21G<60 132> -8 74<186.875 387.269> 463 74<224.808 383.478>
VStem: 60 72<-270 32 87.1995 425.293> 60 53<509.263 531> 430 74<115.135 402.958>
LayerCount: 2
Back
Fore
SplineSet
60 -270 m 5xf4
 60 531 l 5
 113 531 l 5xec
 132 472 l 5
 158 491 261 537 329 537 c 4
 474 537 504 390 504 268 c 4
 504 132 480 -8 329 -8 c 4
 284 -8 196 6 132 32 c 5
 132 -270 l 5
 60 -270 l 5xf4
132 92 m 5xf4
 201 74 252 66 329 66 c 4
 393 66 430 105 430 268 c 4
 430 398 394 463 329 463 c 4
 250 463 186 439 132 417 c 5
 132 92 l 5xf4
EndSplineSet
Validated: 1
EndChar

StartChar: q
Encoding: 68 113 89
Width: 555
Flags: W
HStem: -270 21G<421 495> -10 74<170.87 370.126> 463 74<175.36 419.713>
VStem: 50 73.9828<116.185 404.035> 421 74<-270 29 84.3832 463>
LayerCount: 2
Back
Fore
SplineSet
50 268 m 0
 50 436 109 537 234 537 c 0
 340 537 448 518 495 514 c 1
 495 -270 l 1
 421 -270 l 1
 421 29 l 1
 357 3 279 -10 234 -10 c 0
 81 -10 50 110 50 268 c 0
124 268 m 0
 124 262.295081967 123.982800322 256.461166353 123.982800322 250.539701561 c 0
 123.982800322 166.158828272 127.475409836 64 234 64 c 0
 308 64 338 68 421 89 c 1
 421 463 l 1
 234 463 l 2
 127 463 124 331 124 268 c 0
EndSplineSet
Validated: 1
EndChar

StartChar: r
Encoding: 69 114 90
Width: 426
Flags: W
HStem: 0 21G<60 134> 462 75<230.081 405.422>
VStem: 60 74<0 413.98> 60 52<509.682 531>
LayerCount: 2
Back
Fore
SplineSet
60 0 m 5xe0
 60 531 l 5
 112 531 l 5xd0
 134 464 l 5
 195 499 250 537 332 537 c 4
 361 537 394 535 406 529 c 5
 406 456 l 5
 394 459 361 462 332 462 c 4
 252 462 211 441 134 404 c 5
 134 0 l 5
 60 0 l 5xe0
EndSplineSet
Validated: 1
EndChar

StartChar: s
Encoding: 70 115 91
Width: 506
Flags: W
HStem: -5 74<97.198 383.312> 14 55<62 282.5> 227 74<120.694 383.578> 463 73<119.823 414.988> 463 57<216.94 439>
VStem: 40 74<307.663 456.151> 392 74<78.2272 217.859>
LayerCount: 2
Back
Fore
SplineSet
40 358 m 2xa6
 40 404 l 2
 40 486 75 536 178 536 c 0xb6
 230 536 387 525 439 520 c 1
 439 463 l 1x2e
 178 463 l 2
 114 463 114 438 114 404 c 2
 114 358 l 2
 114 303 141 301 178 301 c 2
 336 301 l 2
 423 301 466 247 466 172 c 2
 466 123 l 2
 466 14 400 -5 336 -5 c 0xb6
 287 -5 100 10 62 14 c 1
 62 69 l 1x66
 336 69 l 1
 336 69 337.555555556 68.8333333333 340.148148148 68.8333333333 c 0
 353.111111111 68.8333333333 392 73 392 123 c 2
 392 172 l 2
 392 207 380 227 336 227 c 2
 178 227 l 2
 84 227 40 255 40 358 c 2xa6
EndSplineSet
Validated: 1
EndChar

StartChar: t
Encoding: 71 116 92
Width: 378
Flags: W
HStem: 1 74<213.414 250> 1 53<250.059 339> 458 74<193 348> 458 56<20 58.5>
VStem: 119 74<96.4826 458> 137 56<622.444 680>
LayerCount: 2
Back
Fore
SplineSet
20 458 m 5x58
 20 514 l 5x58
 119 532 l 5x28
 137 680 l 5
 193 680 l 5
 193 532 l 5x24
 348 532 l 5
 348 458 l 5
 193 458 l 5
 193 190 l 6
 193 103 216 83 250 75 c 6xa8
 250 75 332 54 339 54 c 5
 339 1 l 5
 251 1 l 6
 174 1 119 49 119 190 c 6
 119 458 l 5
 20 458 l 5x58
EndSplineSet
Validated: 1
EndChar

StartChar: u
Encoding: 72 117 93
Width: 544
Flags: W
HStem: -9 74<151.419 316.22> 0 21G<424.903 484> 511 20G<50 124 410 484>
VStem: 50 74<93.5694 531> 410 74<112.044 531>
LayerCount: 2
Back
Fore
SplineSet
50 161 m 6xb8
 50 531 l 5
 124 531 l 5
 124 161 l 6
 124 95 163 65 214 65 c 4xb8
 294 65 333 85 410 122 c 5
 410 531 l 5
 484 531 l 5
 484 0 l 5
 432 0 l 5x78
 410 62 l 5
 349 27 295 -9 214 -9 c 4
 108 -9 50 73 50 161 c 6xb8
EndSplineSet
Validated: 1
EndChar

StartChar: v
Encoding: 73 118 94
Width: 536
Flags: W
HStem: 0 21G<221.128 311.023> 511 20G<20 108.867 427.038 516>
LayerCount: 2
Back
Fore
SplineSet
20 531 m 5
 101 531 l 5
 267 109 l 5
 435 531 l 5
 516 531 l 5
 303 0 l 5
 229 0 l 5
 20 531 l 5
EndSplineSet
Validated: 1
EndChar

StartChar: w
Encoding: 74 119 95
Width: 801
Flags: W
HStem: 0 21G<211.505 305.692 494.923 585.646> 511 20G<20 108.441 389.46 476 692.322 781>
LayerCount: 2
Back
Fore
SplineSet
20 531 m 5
 101 531 l 5
 258 109 l 5
 396 531 l 5
 476 531 l 5
 422 361 l 5
 538 109 l 5
 700 531 l 5
 781 531 l 5
 578 0 l 5
 504 0 l 5
 386 260 l 5
 299 0 l 5
 219 0 l 5
 20 531 l 5
EndSplineSet
Validated: 1
EndChar

StartChar: x
Encoding: 75 120 96
Width: 524
Flags: W
HStem: 0 21G<24 130.455 393.545 492> 511 20G<24 130.118 393.49 500>
LayerCount: 2
Back
Fore
SplineSet
24 0 m 5
 216 266 l 5
 24 531 l 5
 116 531 l 5
 260 327 l 5
 408 531 l 5
 500 531 l 5
 306 263 l 5
 492 0 l 5
 408 0 l 5
 262 202 l 5
 116 0 l 5
 24 0 l 5
EndSplineSet
Validated: 1
EndChar

StartChar: y
Encoding: 76 121 97
Width: 554
Flags: W
HStem: -270 21G<177 237.706> 0 74.3028<240.509 271> 511 20G<21 108.217 442.304 532>
LayerCount: 2
Back
Fore
SplineSet
21 531 m 1
 102 531 l 1
 231 116 l 2
 242.032258065 81.064516129 264.709677419 74.3028095734 280.383035145 74.3028095734 c 0
 290.024169105 74.3028095734 297.015082 76.8613274863 297.015082 76.9946060236 c 0
 297.015082 76.9981702358 297.010082339 77 297 77 c 2
 449 531 l 1
 532 531 l 1
 298 -168 l 1
 223 -270 l 1
 177 -270 l 1
 271 0 l 1
 250 0 184 2 151 110 c 2
 21 531 l 1
EndSplineSet
Validated: 1
EndChar

StartChar: z
Encoding: 77 122 98
Width: 456
Flags: W
HStem: 1 74<142 426> 457 74<30 334>
LayerCount: 2
Back
Fore
SplineSet
30 457 m 1
 30 531 l 1
 426 531 l 1
 426 457 l 1
 142 75 l 1
 426 75 l 2
 426.333333333 74.6666666667 426.444444444 66.3333333333 426.444444444 55.3703703704 c 0
 426.444444444 33.4444444444 426 1 426 1 c 1
 45 1 l 1
 45 75 l 1
 334 457 l 1
 30 457 l 1
EndSplineSet
Validated: 1
EndChar

StartChar: bnmAA
Encoding: 144 2494 99
Width: 235
VWidth: 0
Flags: HW
HStem: 0 21G<85 154> 575 61<-10 16 154 246>
VStem: 85 69<0 575>
LayerCount: 2
Back
Fore
SplineSet
-10 575 m 25
 -10 636 l 25
 16 636 l 17
 88 628 l 1
 84 702 l 1
 120 702 l 1
 143 636 l 9
 246 636 l 17
 246 575 l 1
 154 575 l 25
 154 0 l 1
 85 0 l 1
 85 575 l 13
 -10 575 l 25
EndSplineSet
EndChar

StartChar: bnmI
Encoding: 145 2495 100
Width: 233
VWidth: 0
Flags: HW
HStem: 0 21G<96 165> 575 61<-12 82.25 165 244> 726 34<660.181 697.471> 813.1 66.3999<144.906 341.066>
VStem: 62 73<640.731 800.62> 96 69<0 575>
LayerCount: 2
Back
Fore
SplineSet
135 706 m 2xf8
 135 677 135 655 162 636 c 9
 244 636 l 17
 244 575 l 1
 165 575 l 25
 165 0 l 1
 96 0 l 1xf4
 96 575 l 9
 -12 575 l 25
 -12 636 l 25
 14 636 l 17
 92 628 l 17
 65 646 62 680 62 704 c 2
 62 764 l 2
 62 851.02616028 110.844013951 879.500179613 188.3128601 879.500179613 c 0
 251.492270202 879.500179613 333.560272734 859.922623472 424 839 c 0
 558 808 707 764 707 764 c 1
 695 726 l 1
 282 803 l 2
 258.015172365 807.471747525 229.237788928 813.100318865 203.528158927 813.100318865 c 0
 165.994967545 813.100318865 135 801.104289826 135 756 c 2
 135 706 l 2xf8
EndSplineSet
EndChar

StartChar: bnmII
Encoding: 146 2496 101
Width: 235
Flags: HW
HStem: 0 21G<73 142> 575 61<-19 73 151.5 251> 680 60<-471.719 -195.861> 844 69<-294.449 10.6025>
VStem: -535 58<746.981 829.942> -193 63<635 673.36> 73 69<0 575 636 760.272>
LayerCount: 2
Back
Fore
SplineSet
143 628 m 9
 211 636 l 9
 251 636 l 25
 251 575 l 25
 142 575 l 21
 142 0 l 1
 73 0 l 1
 73 575 l 25
 -19 575 l 1
 -19 636 l 1
 73 636 l 17
 73 703 55 844 -51 844 c 0
 -143 844 -398 835 -426 833 c 0
 -474 830 -477 830 -477 783 c 0
 -477 740 -461 740 -303 740 c 0
 -143 740 -130 740 -130 635 c 9
 -193 635 l 17
 -193 680 -200 680 -319 680 c 0
 -511 680 -535 685 -535 783 c 0
 -535 882 -512 889 -422 894 c 2
 -422 894 -125.501929327 913 -74 913 c 0
 122 913 143 751 143 628 c 9
EndSplineSet
EndChar

StartChar: bnmE
Encoding: 151 2503 102
Width: 270
VWidth: 0
Flags: HW
HStem: 575 61<-14 144 214 283>
VStem: 60.0088 71.0781<142.141 356.348>
LayerCount: 2
Back
Fore
SplineSet
214 575 m 1
 214 575 131.086914062 337 131.086914062 217.426757812 c 0
 131.086914062 167.399985763 143.181036182 133.535922972 196.314453125 100.990234375 c 2
 343.80078125 16.2861328125 l 1
 325.78515625 -28.4794921875 l 1
 325.78515625 -28.4794921875 196.778320312 17.8046875 158.08203125 41.439453125 c 0
 80.2683462705 87.333071612 60.0087890625 132 60.0087890625 205.8984375 c 0
 60.0087890625 307.052622933 144 575 144 575 c 13
 -14 575 l 25
 -14 636 l 9
 283 636 l 17
 283 575 l 1
 214 575 l 1
EndSplineSet
EndChar

StartChar: bnmAI
Encoding: 152 2504 103
Width: 270
VWidth: 0
Flags: HW
HStem: 575 61<-14 169 270 283> 709 64<-83 189.626>
VStem: 85.0088 71.0781<142.141 356.348> 202 68<636 696.414>
LayerCount: 2
Back
Fore
SplineSet
239 575 m 1
 239 575 155.766313086 325.421275581 156.086914062 217.426757812 c 0
 156.235590908 167.344925726 168.08110564 133.597133195 221.314453125 100.990234375 c 6
 368.80078125 13.2861328125 l 1
 350.78515625 -28.4794921875 l 5
 350.78515625 -28.4794921875 221.778320312 17.8046875 183.08203125 41.439453125 c 0
 99.631228493 90.6577789912 84.314453125 143.062025001 84.314453125 227.100585938 c 0
 84.314453125 314 169 575 169 575 c 9
 -14 575 l 25
 -14 636 l 1
 202 636 l 17
 202 690 185 709 137 709 c 0
 105 709 -83 709 -83 709 c 9
 -87 759 l 1
 -87 759 73 773 143 773 c 0
 237 773 270 714 270 636 c 9
 283 636 l 1
 283 575 l 1
 239 575 l 1
EndSplineSet
EndChar

StartChar: bnAUlengthmark
Encoding: 157 2519 106
Width: 233
VWidth: 0
Flags: HW
HStem: 0 21G<85 154> 575 61.3281<-10 74 154 246> 708 64<-212.208 62.626>
VStem: 74 69<636 696.221> 85 69<0 575>
LayerCount: 2
Back
Fore
SplineSet
143 636 m 9xf0
 246 636 l 17
 246 575 l 1
 154 575 l 25
 154 0 l 1
 85 0 l 1xe8
 86 575 l 9
 -10 575 l 25
 -10 636.328125 l 25
 16 636 l 1
 74 630 l 17
 74 689 58 708 10 708 c 4
 -58 708 -332 708 -332 708 c 13
 -336 758 l 1
 -336 758 -43.0751464463 772 16 772 c 4
 115 772 143 714 143 636 c 9xf0
EndSplineSet
EndChar

StartChar: bnNukta
Encoding: 143 2492 107
Width: 0
VWidth: 0
Flags: W
HStem: -179.752 97.9033<-204.327 -109>
VStem: -204.327 95.3271<-179.752 -81.8486>
LayerCount: 2
Back
Fore
SplineSet
-204.327148438 -160 m 2
 -204.327148438 -103.318359375 l 2
 -204.327148438 -90.4365234375 -197.456054688 -81.8486328125 -183.715820312 -81.8486328125 c 2
 -130.469726562 -81.8486328125 l 2
 -115.010742188 -81.8486328125 -109 -89.578125 -109 -103.318359375 c 2
 -109 -160 l 2
 -109 -175.458007812 -118.447265625 -179.751953125 -130.469726562 -179.751953125 c 2
 -183.715820312 -179.751953125 l 2
 -195.73828125 -179.751953125 -204.327148438 -172.0234375 -204.327148438 -160 c 2
EndSplineSet
Validated: 1
EndChar

StartChar: bnmU
Encoding: 147 2497 108
Width: 0
VWidth: 2048
GlyphClass: 4
Flags: HW
HStem: -286.098 67.918<-298.07 -206.995> -96.6025 74.3525<-303.362 -235.099>
VStem: -412.729 80.6592<-189.638 -130.92>
LayerCount: 2
Back
Fore
SplineSet
-78 4.6201171875 m 17
 -109.799804688 -109.60546875 l 1
 -109.799804688 -109.60546875 -92.2333334746 -119.235625649 -63 -140 c 0
 -22.9375564661 -168.456268105 44 -232 44 -232 c 5
 22 -261 l 1
 -137 -161 l 21
 -137 -161 -190.803797851 -286.35825169 -223.330078125 -286.09765625 c 4
 -275.018848897 -285.683533952 -412.729492188 -213.482421875 -412.729492188 -186.697265625 c 0
 -412.729492188 -146.520507812 -322.095703125 -22.25 -295.669921875 -22.25 c 0
 -260 -22.25 -173.620117188 -77.16796875 -173.620117188 -77.16796875 c 1
 -149.790039062 4.6201171875 l 1
 -78 4.6201171875 l 17
-196.190429688 -137.432617188 m 1
 -196.190429688 -137.432617188 -263 -96.6025390625 -281.150390625 -96.6025390625 c 0
 -293.490234375 -96.6025390625 -332.0703125 -155.858398438 -332.0703125 -169.740234375 c 0
 -332.0703125 -183.1328125 -260 -218.1796875 -247.26953125 -218.1796875 c 0
 -232 -218.1796875 -196.190429688 -137.432617188 -196.190429688 -137.432617188 c 1
EndSplineSet
EndChar

StartChar: bnmUU
Encoding: 148 2498 109
Width: 0
VWidth: 2048
GlyphClass: 4
Flags: HW
HStem: -298.059 76.0293<-280.824 -189.915> -271 21G<23.2785 75.2857> -101 70<-354 -270.083>
VStem: -416 78<-208.5 -109.764>
LayerCount: 2
Back
Fore
SplineSet
-123 -118 m 1xb0
 -74 -118 l 1
 -74 -118 -17 -154 1 -168 c 0
 43 -198 86 -236 86 -236 c 1
 61 -271 l 1x70
 -88 -192 l 0
 -88 -192 -155 -298.05859375 -182.103515625 -298.05859375 c 0
 -205.740819407 -298.05859375 -217.770983917 -294.661070955 -239 -289 c 0
 -318 -268 -416 -225 -416 -192 c 0
 -416 -152 -368 -31 -340 -31 c 0
 -316 -31 -280 -51 -280 -51 c 1
 -250 11 l 1
 -186 11 l 1
 -244 -117 l 1
 -244 -117 -290 -101 -305 -101 c 0
 -320 -101 -338 -149 -338 -163 c 0
 -338 -176.004054345 -258.261157443 -222.029296875 -212.65234375 -222.029296875 c 0
 -200.146484375 -222.029296875 -123 -118 -123 -118 c 1xb0
EndSplineSet
EndChar

StartChar: bnmvR
Encoding: 149 2499 110
Width: 0
VWidth: 2048
GlyphClass: 4
Flags: HW
LayerCount: 2
Back
Fore
SplineSet
24 -325 m 1
 -350 -170 l 1
 -363 -99 l 1
 -123 22 l 1
 -90 -37 l 1
 -263 -127 l 5
 -263 -127 -195.689974959 -155.172131242 -126 -189 c 4
 -62.0258763557 -220.053365421 -39 -230 48 -281 c 1
 24 -325 l 1
EndSplineSet
EndChar

StartChar: bnOne
Encoding: 166 2535 113
Width: 563
Flags: HW
HStem: -2.06487 84.3218<229.51 348.752>
VStem: 423 87<177.039 286.016>
LayerCount: 2
Back
Fore
SplineSet
284 555 m 0
 309 506 510 321 510 250 c 0
 510 179 454 105 417 54 c 0
 388.035952879 14.8985363867 347.65332652 -2.06486543924 303.839096082 -2.06486543924 c 0
 256.890671173 -2.06486543924 206.002131675 17.412249477 161 50 c 0
 106 90 44 145 44 145 c 5
 85 197 l 5
 85 197 146 155 198 122 c 0
 226.021266973 104.230416066 268.989663564 82.2569519271 303.920204495 82.2569519271 c 0
 320.099136221 82.2569519271 334.553702685 86.9709303649 345 99 c 0
 378 137 423 198 423 239 c 0
 423 301 241 448 213 526 c 0
 198 570 185 654 185 654 c 5
 240 666 l 5
 240 666 264 595 284 555 c 0
EndSplineSet
EndChar

StartChar: bnTwo
Encoding: 167 2536 114
Width: 596
VWidth: 0
Flags: HW
VStem: 420.53 89.8055<349.88 442.183>
LayerCount: 2
Back
Fore
SplineSet
467 303 m 0
 422.195589238 260.446163154 253 207 253 207 c 21
 517 29 l 1
 487 -27 l 1
 487 -27 271.480687953 78.6543265318 69 244 c 9
 109 307 l 1
 173 265 l 1
 173 265 352.838728373 309.83093858 399 350 c 0
 414.350487061 363.357835169 420.529674597 378.171978161 420.529674597 392.859087938 c 0
 420.529674597 421.152257715 397.599269834 448.705798246 374 464 c 0
 344.044830822 483.413329488 125 628 125 628 c 9
 153 675 l 1
 153 675 329.854672796 590.19342506 413 531 c 0
 445.30942669 507.998038352 510.335127307 451.879580726 510.335127307 387.750667249 c 0
 510.335127307 360.34082274 497.743019751 332.198764684 467 303 c 0
EndSplineSet
EndChar

StartChar: bnThree
Encoding: 168 2537 115
Width: 836
VWidth: 0
Flags: HW
HStem: -5 86<378.081 515.444> 523 78<355.024 635.413>
VStem: 688 76.5069<306.439 473.528>
LayerCount: 2
Back
Fore
SplineSet
558 601 m 4
 706 601 764.50686076 503.797473888 764.50686076 406.236801144 c 0
 764.50686076 368.187322256 758.755863673 335.462686982 748 302 c 0
 723 225 648 74 535 17 c 0
 509 4 480 -5 449 -5 c 0
 385 -5 317.846254041 26.7481394091 232 123 c 0
 133 234 44 407 44 407 c 1
 85 442 l 1
 289 190 l 2
 354 109 397 81 447 81 c 0
 468 81 488 87 507 97 c 0
 589 140 659 279 675 329 c 0
 683 357 688 382 688 403 c 0
 688 483 625 523 537 523 c 4
 479.663991431 523 287 503 287 503 c 5
 276 566 l 1
 276 566 463.197988103 601 558 601 c 4
EndSplineSet
EndChar

StartChar: bnFour
Encoding: 169 2538 116
Width: 680
Flags: HW
HStem: -1 77<158.02 497.308> 311 80<187.086 472.622> 564 72<186.004 472.155>
VStem: 76 76<83.9189 302.281> 105 76<397.315 556.77> 478 80<398.249 556.693> 506 80<84.5189 301.179>
LayerCount: 2
Back
Fore
SplineSet
426 391 m 2xec
 452 391 478 401 478 435 c 2
 478 518 l 2
 477 554 459 564 427 564 c 2
 233 564 l 2
 201 564 182 554 181 518 c 2
 181 434 l 2
 181 401 207 391 233 391 c 2
 426 391 l 2xec
435 636 m 2
 497 636 558 622 558 518 c 2
 558 456 l 18xec
 558 422 557 376 517 362 c 1
 559 349 585 326 586 279 c 2
 586 124 l 2
 586 123 586 121 586 120 c 0
 586 27 552 -1 451 -1 c 2
 211 -1 l 2
 128 -1 76 21 76 122 c 2
 76 274 l 2xf2
 76 321 104 350 146 363 c 1
 106 377 105 422 105 456 c 2
 105 520 l 2
 105 618 166 636 236 636 c 2
 435 636 l 2
152 123 m 2xf2
 152 80 186 76 220 76 c 2
 438 76 l 2
 493 76 506 96 506 124 c 2
 506 260 l 6
 506 293 491 311 438 311 c 2
 220 311 l 2
 178 311 152 303 152 258 c 2
 152 123 l 2xf2
EndSplineSet
EndChar

StartChar: bnSix
Encoding: 171 2540 117
Width: 750
VWidth: 0
Flags: HW
HStem: -0 77<345.837 450.505> 370 69<405.767 618.541>
VStem: 340 65<432 614> 623 70<268.519 361.863>
LayerCount: 2
Back
Fore
SplineSet
340 614 m 25
 405 614 l 25
 405 429 l 5
 405 429 497.735392479 439 557 439 c 0
 660 439 693 391 693 327 c 0
 693 311 683 284 678 274 c 0
 657 235 607 134 496 41 c 0
 465 15 436 -0 404 -0 c 0
 361 -0 312.004948547 28.0048054561 245 97 c 0
 144 201 74 398 74 398 c 1
 121 416 l 1
 121 416 224 225 294 150 c 0
 334 106 363 77 397 77 c 0
 415 77 434 85 457 104 c 0
 562 191 593 253 608 281 c 0
 614 292 623 317 623 329 c 0
 623 364 598 370 551 370 c 0
 504.732470261 370 340 357 340 357 c 9
 340 614 l 25
EndSplineSet
EndChar

StartChar: bnNine
Encoding: 174 2543 118
Width: 688
Flags: HW
HStem: 1 21G<347 347> 258.829 71.1658<176.56 270.315>
VStem: 61.9861 70.009<117.883 224.907> 539 79<217.591 295.319>
LayerCount: 2
Back
Fore
SplineSet
335 0 m 1
 335 0 310.576171875 89.744140625 291 163 c 0
 278.944676622 208.112143463 273.2900759 258.828706473 237.864115004 258.828706473 c 0
 217.76270831 258.828706473 187.666787712 242.833393856 170 234 c 0
 141.629319007 221.334517414 131.995045673 203.022446217 131.995045673 182.314548671 c 0
 131.995045673 162.147774831 141.132386069 139.708750648 151 118 c 0
 167 82 179 57 179 57 c 9
 124 35 l 17
 124 35 85 112 78 130 c 0
 67.6303186945 154.627993101 61.9860896029 177.260795266 61.9860896029 197.898406497 c 0
 61.9860896029 240.946798716 86.5444659677 275.31399655 144 301 c 0
 183.541238731 318.753209226 213.314612653 329.99450858 245.93182705 329.99450858 c 0
 300.488145756 329.99450858 329.274888309 304.290342518 346 253 c 0
 361 207 383 115 383 115 c 5
 383 115 539.89090985 211.223440751 539 252 c 0
 537.951518461 299.988547451 225 617 225 617 c 1
 262 663 l 1
 459 495 617.078786419 332.994887587 618 250 c 0
 619.179105449 143.770862371 335 0 335 0 c 1
EndSplineSet
EndChar

StartChar: bnEight
Encoding: 173 2542 119
Width: 655
VWidth: 0
Flags: HW
HStem: 0 75<128.752 244.371> 355 71<184.039 424.931>
VStem: 46 67<90.6372 336 394 636> 432 75.4513<244.237 346.612>
LayerCount: 2
Back
Fore
SplineSet
113 336 m 13
 113 166 l 1
 113 106 129 75 178 75 c 0
 231 75 338 144 400 229 c 0
 424 262 432 288 432 307 c 0
 432 343 402 355 375 355 c 0
 335.16981571 355 127.289366127 337.145560998 113 336 c 13
46 636 m 9
 113 636 l 17
 113 394 l 17
 113 394 146.898106179 400.979543961 184 407 c 0
 315.119449532 428.2765118 371 424 421 426 c 0
 450 427 626 474 626 474 c 1
 636 428 l 1
 636 428 584.028186096 397.001359153 493 367 c 5
 493 367 507.451250789 353.219585175 507.451250789 315.050475199 c 4
 507.451250789 285.383629999 496.264112362 254.807151935 482 230 c 0
 411 106 251 0 174 0 c 0
 109 0 46 37 46 159 c 2
 46 636 l 9
EndSplineSet
EndChar

StartChar: bnSeven
Encoding: 172 2541 120
Width: 548
VWidth: 0
Flags: HW
HStem: 246 70<117.129 389.92> 561 71<258.668 373.836>
VStem: 33 71<328.646 429.863> 390 67<58.0011 257 316 545.391>
LayerCount: 2
Back
Fore
SplineSet
390 101 m 0
 390 152.00318546 390 257 390 257 c 1
 390 257 272 246 158 246 c 4
 79 246 33 293 33 369 c 0
 33 398 40.59591876 426.255588557 54 447 c 0
 138 577 258 632 329 632 c 0
 394 632 457 594.999023438 457 473 c 1
 457 473 457 137 457 117 c 0
 457 92.7294921875 503.9375 9.9873046875 503.9375 9.9873046875 c 1
 456 -21 l 1
 456 -21 390 58 390 101 c 0
390 316 m 1
 390 466 l 1
 390 526 377 561 325 561 c 0
 283 561 190 508 139 448 c 0
 112.772441519 417.144048846 104 389 104 370 c 0
 104 334 135 316 162 316 c 0
 235.821764663 316 390 316 390 316 c 1
EndSplineSet
EndChar

StartChar: bnZero
Encoding: 165 2534 121
Width: 600
Flags: W
HStem: 1 74<193.515 413.003> 468 74<191.221 414.872>
VStem: 68 74<130.237 412.335> 462 74<132.206 415.804>
LayerCount: 2
Back
Fore
SplineSet
68 264 m 4
 68 481 128 542 302 542 c 4
 481 542 536 475 536 264 c 4
 536 67 481 1 302 1 c 4
 123 1 68 74 68 264 c 4
142 264 m 4
 142 87 199 75 302 75 c 4
 410 75 462 89 462 264 c 4
 462 454 419 468 302 468 c 4
 190 468 142 455 142 264 c 4
EndSplineSet
Validated: 1
EndChar

StartChar: bnFive
Encoding: 170 2539 122
Width: 619
VWidth: 0
Flags: HW
HStem: -0.157068 84.9448<144.855 256.752>
VStem: 57.1837 78.3915<88.2473 472.706> 373 70<261.524 398.793>
LayerCount: 2
Back
Fore
SplineSet
153 662 m 1
 155 586 l 1
 428 507 l 1
 476 588 l 1
 523 572 l 1
 523 572 443 364 443 298 c 0
 443 271.593495935 546.172450261 180.259501619 546.172450261 158.206082434 c 0
 546.172450261 126.012617214 246.758745331 -0.157068332131 148.706458499 -0.157068332131 c 0
 127.953322644 -0.157068332131 111.391859541 3.81299373943 101 13 c 0
 68.1095890411 41.8630136986 57.1836648527 116 57.1836648527 222.508388451 c 0
 57.1836648527 414.570260767 100 666 100 666 c 1
 153 662 l 1
406 445 m 1
 151 517 l 1
 151 517 135.575195312 347.036132812 135.575195312 236.2734375 c 0
 135.575195312 166.34375 136.74573359 107.25426641 153 91 c 0
 157.315691513 86.6843084869 165.250927415 84.7877094547 175.799969142 84.7877094547 c 0
 232.711767913 84.7877094547 436.940992768 162.719147976 436.940992768 183.384543738 c 0
 436.940992768 198.053090072 373 255.730769231 373 281 c 0
 373 323 406 445 406 445 c 1
EndSplineSet
EndChar

StartChar: bnCandrabindu
Encoding: 96 2433 123
Width: 0
VWidth: 0
GlyphClass: 4
Flags: HW
HStem: 656.862 62.0538<-151.147 -63.265>
LayerCount: 2
Back
Fore
SplineSet
-270 763 m 1
 -232 806 l 1
 -232 806 -133.46440191 718.916154905 -103.41564622 718.916154905 c 0
 -97.9202774333 718.916154905 -92.7875192188 720.207973313 -88 723 c 0
 -47.2850620489 746.744488143 42 835 42 835 c 9
 74 804 l 5
 74 804 6.83370718271 715.746017201 -41 682 c 4
 -65.7392276718 664.546817888 -87.008892452 656.86240321 -107.168005676 656.86240321 c 0
 -157.21342068 656.86240321 -270 763 -270 763 c 1
-111 771 m 2
 -142 795 l 2
 -150 801 -152 809 -146 817 c 2
 -122 849 l 2
 -116 857 -107 857 -99 851 c 2
 -68 828 l 2
 -59 821 -60 813 -65 806 c 2
 -89 774 l 2
 -95 767 -103 766 -111 771 c 2
EndSplineSet
EndChar

StartChar: bnAnusvara
Encoding: 97 2434 124
Width: 445
Flags: HW
HStem: 219 69.3058<93.0392 232.552> 359 61<158.898 289.959> 569 60<160.476 288.865>
VStem: 92 58<428.065 559.238> 298 59<426.934 561.407>
LayerCount: 2
Back
Fore
SplineSet
88 279 m 1
 91.6103884604 279.369244274 166.895998486 288.305783288 185.775166813 288.305783288 c 0
 232.555911955 288.305783288 292.186773245 267.223973494 337 186 c 0
 358 146 412 62 431 -17 c 1
 388 -33 l 1
 275 149 l 2
 236 212 193 219 167 219 c 0
 142.860982965 219 93 213 93 213 c 1
 88 279 l 1
92 490 m 0
 92 608 138 629 224 629 c 0
 314 629 357 608 357 490 c 0
 357 383 314 359 224 359 c 0
 135 359 92 386 92 490 c 0
150 490 m 0
 150 420 175 420 224 420 c 0
 278 420 298 421 298 490 c 0
 298 568 275 569 224 569 c 0
 176 569 150 568 150 490 c 0
EndSplineSet
EndChar

StartChar: bnVisarga
Encoding: 98 2435 125
Width: 445
Flags: W
HStem: 9 60.208<159.161 290.055> 218.283 60.208<160.623 288.922> 359.342 60.208<159.161 290.055> 568.625 60.208<160.623 288.922>
VStem: 92.1709 58.21<77.6899 208.884 428.032 559.226> 298.22 59.1602<76.4482 209.296 426.79 559.638>
LayerCount: 2
Back
Fore
SplineSet
92.1708984375 140.006835938 m 0
 92.1708984375 257.693359375 137.551757812 278.491210938 224.299804688 278.491210938 c 0
 313.54296875 278.491210938 357.379882812 257.552734375 357.379882812 140.006835938 c 0
 357.379882812 32.2900390625 313.54296875 9 224.299804688 9 c 0
 135.05859375 9 92.1708984375 35.7802734375 92.1708984375 140.006835938 c 0
150.380859375 140.006835938 m 0
 150.380859375 69.341796875 175.28515625 69.2080078125 224.299804688 69.2080078125 c 0
 278.14453125 69.2080078125 298.219726562 70.3388671875 298.219726562 140.006835938 c 0
 298.219726562 217.931640625 274.840820312 218.283203125 224.299804688 218.283203125 c 0
 176.251953125 218.283203125 150.380859375 217.65234375 150.380859375 140.006835938 c 0
92.1708984375 490.348632812 m 0
 92.1708984375 608.03515625 137.551757812 628.833007812 224.299804688 628.833007812 c 0
 313.54296875 628.833007812 357.379882812 607.89453125 357.379882812 490.348632812 c 0
 357.379882812 382.631835938 313.54296875 359.341796875 224.299804688 359.341796875 c 0
 135.05859375 359.341796875 92.1708984375 386.122070312 92.1708984375 490.348632812 c 0
150.380859375 490.348632812 m 0
 150.380859375 419.68359375 175.28515625 419.549804688 224.299804688 419.549804688 c 0
 278.14453125 419.549804688 298.219726562 420.680664062 298.219726562 490.348632812 c 0
 298.219726562 568.2734375 274.840820312 568.625 224.299804688 568.625 c 0
 176.251953125 568.625 150.380859375 567.994140625 150.380859375 490.348632812 c 0
EndSplineSet
Validated: 1
EndChar

StartChar: bnVirama
Encoding: 155 2509 126
Width: 0
VWidth: 2048
Flags: HW
HStem: -231 218.148
VStem: -197 275
LayerCount: 2
Back
Fore
SplineSet
-162.615234375 -12.8515625 m 1
 -162.615234375 -12.8515625 -153.416816453 -18.3920700748 -117 -44 c 0
 -43.0169524943 -96.0241163478 20 -143 78 -194 c 1
 50 -231 l 1
 -197 -73 l 1
 -162.615234375 -12.8515625 l 1
EndSplineSet
EndChar

StartChar: bnTAkhanda
Encoding: 156 2510 127
Width: 500
VWidth: 0
Flags: HW
HStem: 561 76<171.803 345.941>
VStem: 88 73<346.067 547.531> 354.045 67.9551<88.2913 177.527>
LayerCount: 2
Back
Fore
SplineSet
413 547 m 1
 413 547 251 561 218 561 c 0
 190 561 161 541 161 508 c 2
 161 385 l 2
 161 300 422 256 422 183 c 1
 422 107 381 -15 381 -15 c 1
 331 -6 l 1
 331 -6 354.044921875 106.173250578 354.044921875 156.09765625 c 0
 354.044921875 192.764648438 88 256.903320312 88 366 c 2
 88 523 l 2
 88 617 162 637 213 637 c 0
 264 637 422 599 422 599 c 1
 413 547 l 1
EndSplineSet
EndChar

StartChar: NameMe.65536
Encoding: 195 -1 128
Width: 633
VWidth: 2048
Flags: W
HStem: 0 48<132 495> 648 48<132 495>
VStem: 84 48<48 648> 495 48<48 648>
LayerCount: 2
Back
Fore
SplineSet
84 696 m 1
 543 696 l 1
 543 0 l 1
 84 0 l 1
 84 696 l 1
132 48 m 1
 495 48 l 1
 495 648 l 1
 132 648 l 1
 132 48 l 1
EndSplineSet
Validated: 1
EndChar

StartChar: bnK_SSA
Encoding: 223 -1 156
Width: 980
VWidth: 0
Flags: HW
HStem: 0 21G<604 669.053> 256 73<273.014 348.74> 377 61<505.149 604 670 825.115> 456 70<151.041 225.772> 575 61<-14 239 302 449 501 604 670 990>
VStem: 75 67<380.571 452.385> 182 72<163.093 238.238> 264 66<497.257 564.886> 354.586 72.4984<319.73 382.849> 442.701 58.2991<439.431 575> 604 66<0 164.01 221 377 438 575> 843 70<267.916 359.661>
LayerCount: 2
Back
Fore
SplineSet
670 377 m 25
 669 0 l 1
 604 0 l 9
 604 158 l 17
 604 158 366 237 315 253 c 0
 309 255 304 256 300 256 c 0
 289 256 282 249 269 228 c 0
 259 211 254 201 254 194 c 0
 254 186 257.128206807 179.146418332 264 173 c 0
 302.708414056 138.377580632 364 88 364 88 c 1
 335 49 l 1
 335 49 263.868814208 81.1038550049 217 126 c 0
 198.099771762 144.10473343 182 169 182 191 c 0
 182 214 187 222 210 261 c 0
 242 315 263 329 290 329 c 0
 307 329 344 319 344 319 c 1
 344 319 354.586310373 344.39801968 354.586310373 357.355012541 c 0
 354.586310373 365.765058921 351.659179135 373.276811381 343 378 c 0
 324 388 216 442 183 454 c 0
 179 455 175 456 173 456 c 0
 165 456 160 451 152 436 c 0
 145 423 142 418 142 410 c 0
 142 404 143.799704261 398.791338459 149 394 c 0
 175.168546386 369.889378412 190 356 190 356 c 1
 167 317 l 1
 167 317 113.854011165 348.17029793 102 359 c 0
 88.3867032788 371.43696717 75 383 75 402 c 0
 75 419 85 439 102 467 c 0
 124 506 132 526 161 526 c 0
 190 526 242 497 242 497 c 1
 242 497 264 521.037489832 264 531 c 0
 264 546 239 575 239 575 c 1
 -14 575 l 1
 -14 636 l 1
 990 636 l 1
 990 575 l 25
 670 575 l 1
 670 438 l 25
 803 438 l 2
 855 438 913 388 913 315 c 0
 913 293 908 270 896 245 c 0
 874 201 813 143 813 143 c 1
 761 169 l 17
 830 274 l 2
 839.597301331 288.604588981 843 303 843 316 c 0
 843 352 812 377 766 377 c 2
 670 377 l 25
604 438 m 25
 604 575 l 25
 501 575 l 17
 501 575 501 552.384034623 501 543 c 0
 501 523 502 495 504 466 c 0
 505 444 519 438 532 438 c 1
 604 438 l 25
604 377 m 1
 545 377 477 377 452 423 c 0
 444.921568627 436.411764706 442.700884275 460.926951173 442.700884275 486.410965617 c 0
 442.700884275 526 449 575 449 575 c 9
 299 575 l 17
 299 575 330 534 330 518 c 0
 330 506 303 471 303 471 c 1
 303 471 385.43555475 425.807286441 411 404 c 0
 419.639057158 396.63060895 427.084758544 388.022742626 427.084758544 377.023113003 c 0
 427.084758544 348.083575202 410 300 410 300 c 1
 604 221 l 25
 604 377 l 1
EndSplineSet
Ligature2: "'akhn' Akhand lookup 2 subtable" bnKA bnVirama bnSSA
EndChar

StartChar: bnJ_NYA
Encoding: 224 -1 157
Width: 975
VWidth: 0
Flags: HW
HStem: 24.8799 75.2969<357.951 466.021> 103 66<616.5 829.81> 275 60<751 829.639> 291 66<404.073 570.805> 438 78<742.416 830.064> 575 62<-15 385 448 987>
VStem: 604.099 71.1387<225.991 287.673> 834 71<175.018 269.459 340.875 434.708>
LayerCount: 2
Back
Fore
SplineSet
606 402 m 1xdf
 606 402 751 516 804 516 c 0
 870.732564213 516 906 480.778549861 906 394 c 0
 906 361 902 314 861 308 c 1
 904.093321615 300.642603627 905 250.93304853 905 215 c 0
 905 106 833.708470536 103 779 103 c 0
 693 103 576 128.766601562 576 128.766601562 c 1
 576 128.766601562 526.761961224 80.9066859795 509 65 c 0
 479.735212065 38.7919824234 446.823242188 24.8798828125 415.9140625 24.8798828125 c 0
 371.612304688 24.8798828125 321.138726452 55.1357244896 253 126 c 0
 178 204 82 427 82 427 c 1
 129 448 l 1
 129 448 242 254 302 179 c 0
 340.392521852 131.009347685 375.477539062 100.176757812 412.411132812 100.176757812 c 0
 430.375 100.176757812 449.40234375 108.001953125 471 126 c 0
 516 163 576 212 595 242 c 0
 601.315429688 251.735351562 604.098632812 259.740234375 604.098632812 266.250976562 c 0
 604.098632812 284.484375 582.264648438 291 555 291 c 0
 526 291 335 291 335 291 c 9
 385 575 l 25
 -15 575 l 1
 -15 637 l 1
 987 637 l 1
 987 575 l 25
 448 575 l 25
 444 555 l 1
 606 402 l 1xdf
619 347 m 1
 619 347 675.237304688 318 675.237304688 265.31640625 c 0
 675.237304688 251.5546875 668.977648189 238.692766539 662 226 c 0
 654.270597454 211.939746554 616 169 616 169 c 9
 793 169 l 2
 823 169 834 182 834 214 c 0
 834 259.24376958 824.764004623 275 781 275 c 2
 751 275 l 17
 751 335 l 9
 781 335 l 2xef
 818 335 834 346 834 384 c 0
 834 420.769300626 827.544316547 438 792 438 c 0
 777 438 761.895350825 433.173532177 750 426 c 2
 619 347 l 1
571 357 m 1xdf
 433 492 l 1
 404 347 l 1
 404 347 504.351359381 355.916093785 571 357 c 1xdf
EndSplineSet
Ligature2: "'akhn' Akhand lookup 2 subtable" bnJA bnVirama bnNYA
EndChar

StartChar: bnReph
Encoding: 225 -1 158
Width: 0
VWidth: 2048
GlyphClass: 4
Flags: HW
HStem: 652.612 229.966
VStem: -208.544 293.839
LayerCount: 2
Back
Fore
SplineSet
-208.543945312 704.838867188 m 1
 -208.543945312 704.838867188 -201.334554703 712.726620516 -164.298828125 739.693359375 c 0
 -90.3306321756 793.551652659 -7.6767578125 844.537109375 59.5390625 882.578125 c 1
 85.294921875 843.981445312 l 1
 -163.018554688 652.612304688 l 1
 -208.543945312 704.838867188 l 1
EndSplineSet
Ligature2: "'rphf' Reph Form lookup 3 subtable" bnRA bnVirama
EndChar

StartChar: bnRAc2
Encoding: 226 -1 159
Width: 0
VWidth: 0
GlyphClass: 4
Flags: HW
HStem: -228 72<-467.385 -293.361>
VStem: -157 69<-76 99> -135 47<-228 -201.273>
LayerCount: 2
Back
Fore
SplineSet
-88 134 m 9xa0
 -88 -228 l 1
 -135 -228 l 1xa0
 -157 -144 l 1
 -157 -144 -308.972687564 -228 -404 -228 c 0
 -447 -228 -512.275390625 -222.181640625 -567 -139 c 0
 -592 -101 -622 -25 -622 -25 c 1
 -575 5 l 1
 -510 -90 l 2
 -470.559570312 -147.643554688 -429 -156 -401 -156 c 0
 -304 -156 -157 -76 -157 -76 c 1
 -157 99 l 1xc0
 -88 134 l 9xa0
EndSplineSet
Ligature2: "'blwf' Below Base Forms lookup 4 subtable" bnRA bnVirama
EndChar

StartChar: bnBAc2
Encoding: 227 -1 160
Width: 0
VWidth: 0
GlyphClass: 4
Flags: W
VStem: -177 67.5938<-206 1>
LayerCount: 2
Back
Fore
SplineSet
-109.40625 -281.99609375 m 21
 -177 -282 l 5
 -426 -108 l 5
 -426 -27 l 5
 -176 76 l 29
 -109.40625 76 l 29
 -109.40625 -281.99609375 l 21
-177 -206 m 29
 -177 1 l 29
 -361 -73 l 29
 -177 -206 l 29
EndSplineSet
Ligature2: "'blwf' Below Base Forms lookup 4 subtable" bnBA bnVirama
EndChar

StartChar: BNGka_SIGvirama.half
Encoding: 228 -1 161
Width: 635
VWidth: 0
GlyphClass: 3
Flags: HW
HStem: 575 61<-12 312 377 647>
VStem: 312 65<212 467 542 574> 554.146 71.5596<332.102 420.17>
LayerCount: 2
Back
Fore
SplineSet
378 467 m 1
 377 130 l 1
 312 130 l 1
 36 348 l 1
 36 429 l 1
 312 542 l 25
 312 574 l 1
 -12 575 l 1
 -12 636 l 1
 647 636 l 1
 647 575 l 1
 377 575 l 25
 378 538 l 1
 526 500 l 2
 572.287109375 486.239257812 625.705078125 445.88671875 625.705078125 380.375976562 c 0
 625.705078125 359.4765625 622.153320312 334.643554688 607 309 c 0
 581 265 537 217 537 217 c 1
 484 242 l 1
 484 242 533 324 533 324 c 2
 546.279671233 346.223123288 554.145507812 367.150390625 554.145507812 378.802734375 c 0
 554.145507812 411.979492188 525.6953125 432.6875 477 444 c 2
 378 467 l 1
312 212 m 25
 312 469 l 25
 104 380 l 25
 312 212 l 25
EndSplineSet
LCarets2: 1 0
Ligature2: "'half' Half Forms lookup 5 subtable" bnKA bnVirama
EndChar

StartChar: BNGga_SIGvirama.half
Encoding: 230 -1 163
Width: 376
VWidth: 0
GlyphClass: 3
Flags: HW
HStem: 553.962 71.3504<109.191 240.188>
VStem: 19 81<479 549.62> 196 71<312.415 382.666>
LayerCount: 2
Back
Fore
SplineSet
409 541 m 5
 384 494 l 25
 207 541 l 2
 175.313316238 549.413978174 161.278761188 553.96175965 136.145569664 553.96175965 c 0
 117.863737265 553.96175965 111.323857336 543.148143497 101 509 c 0
 100 507 100 504 100 502 c 0
 100 487 141 475 197 452 c 0
 235 437 245 426 254 401 c 0
 258.700983449 388.777443032 267 349.525169502 267 318 c 0
 267 275 101 189 101 189 c 1
 71 236 l 1
 71 236 196 318.582867876 196 341 c 0
 196 363 196 374 172 384 c 0
 111 409 19 441 19 479 c 0
 19 484 20 492 22 498 c 0
 48 570 50 583 81 610 c 0
 95.09375 622.528320312 113.480066039 625.312160377 133.277292449 625.312160377 c 0
 157.251895366 625.312160377 186.796547521 618.677442055 204 615 c 0
 300.218830341 594.432083556 409 541 409 541 c 5
EndSplineSet
LCarets2: 1 0
Ligature2: "'half' Half Forms lookup 5 subtable" bnGA bnVirama
EndChar

StartChar: BNGnga_SIGvirama.half
Encoding: 232 -1 165
Width: 590
GlyphClass: 3
Flags: HW
HStem: 123 71<227.626 367.987> 342 70<290.085 493.471> 446 59<291 438.76> 575 61<-10 236 495 601> 587 49<297.728 442.071>
VStem: 42 47<419.185 447.681> 228 63<396 446 505 573.236> 443 55<509.683 574.636> 494 69<272.281 336.597>
LayerCount: 2
Back
Fore
SplineSet
236 575 m 1xf680
 -10 575 l 1
 -10 636 l 1
 601 636 l 1
 601 575 l 1
 495 575 l 17
 495 575 497.891139968 562.564528136 498 544 c 1xf7
 498 479 490 446 413 446 c 2
 291 446 l 1
 291 396 l 1
 291 396 407.896143602 412 450 412 c 0
 527 412 563 374 563 321 c 0
 563 236.555252557 491.776661465 198.888330732 392 149 c 0
 357 131 318 123 287 123 c 0
 243 123 183.760555841 142.854218748 140 215 c 0
 66 337 42 445 42 445 c 5
 89 463 l 5
 89 463 140 352 185 271 c 0
 215 217 247 194 284 194 c 0
 302 194 328 200 354 210 c 0
 419.020229523 235.095527184 494 273.061749222 494 315 c 0
 494 335 474 341 432 342 c 0
 403 342 228 342 228 342 c 9
 228 521 l 2
 228 553.537224454 236 575 236 575 c 1xf680
291 505 m 1
 396 505 l 2
 428 505 443 517 443 542 c 1
 443 587 442 587 365 587 c 0xef
 303.251558209 587 291 582.650678812 291 505 c 1
EndSplineSet
LCarets2: 1 0
Ligature2: "'half' Half Forms lookup 5 subtable" bnNGA bnVirama
EndChar

StartChar: BNGca_SIGvirama.half
Encoding: 233 -1 166
Width: 575
VWidth: 0
GlyphClass: 3
Flags: HW
HStem: 134 71<169.774 301.332> 575 61<-10 86 153 588>
VStem: 86 67<220.608 464.205 515 574> 445 65<321.198 408.903>
LayerCount: 2
Back
Fore
SplineSet
153 464.205078125 m 9
 153 300 l 1
 153 240 169 205 218 205 c 0
 260 205 349 235 410 305 c 0
 436.60546875 335.53125 445 353 445 372 c 0
 445 414.705979222 404.252621681 417.69319387 365 425 c 0
 257.381224458 445.033044805 153 464.205078125 153 464.205078125 c 9
153 516 m 25
 153 516 225.327148438 508.337890625 262 504 c 0
 355 493 383 489.985379156 406 485.205078125 c 0
 476.172095007 470.620567772 510 445.766502434 510 386 c 0
 510 357 501.151367188 325.504882812 489 306 c 0
 414.010742188 185.627929688 283 134 214 134 c 0
 149 134 86 171 86 293 c 2
 86 575 l 1
 -10 575 l 1
 -10 636 l 1
 584 636 l 1
 584 575 l 1
 153 575 l 17
 153 516 l 25
EndSplineSet
LCarets2: 1 0
Ligature2: "'half' Half Forms lookup 5 subtable" bnCA bnVirama
EndChar

StartChar: BNGtta_SIGvirama.half
Encoding: 238 -1 171
Width: 571
VWidth: 0
GlyphClass: 3
Flags: HW
HStem: 134 71<163.774 280.327> 427 59<256 430.517> 427 51<256 366.363> 575 61<-13 80 147 404 474 582> 708 64<117.379 392.718>
VStem: 80 67<220.608 574> 404 70<636 696.221> 439 65<326.182 415.749>
LayerCount: 2
Back
Fore
SplineSet
147 300 m 1xde
 147 240 163 205 212 205 c 0
 254 205 342 253 398 305 c 0
 427.67578125 332.556640625 439 355 439 386 c 0
 439 427 372 427 331 427 c 0
 306.909195783 427 256 427 256 427 c 1xdd
 250 478 l 1xbd
 250 478 333 486 368 486 c 0
 456.883238564 486 504 446.14711977 504 381 c 0xdd
 504 351 488.268554688 317.013671875 474 299 c 0
 394 198 277 134 208 134 c 0
 143 134 80 171 80 293 c 2
 80 575 l 1
 -13 575 l 1
 -13 636 l 1
 404 636 l 17
 404 690 388 708 340 708 c 0
 243.678977095 708 47 708 47 708 c 9
 43 758 l 1
 43 758 287.67348719 771.856055521 346 772 c 0
 439.999713744 772.231982664 474 714 474 636 c 9
 582 636 l 1
 582 575 l 1
 147 575 l 1
 147 300 l 1xde
EndSplineSet
LCarets2: 1 0
Ligature2: "'half' Half Forms lookup 5 subtable" bnTTA bnVirama
EndChar

StartChar: BNGddha_SIGvirama.half
Encoding: 246 -1 179
Width: 571
VWidth: 0
GlyphClass: 3
Flags: HW
HStem: 134 71<163.774 280.327> 427 59<256 430.517> 427 51<256 366.363> 575 61<-13 80 147 582>
VStem: 80 67<220.608 574> 439 65<325.668 415.749>
LayerCount: 2
Back
Fore
SplineSet
-816 39 m 1049,0,-1
-13 636 m 9,1,-1
 582 636 l 17,2,-1
 582 575 l 1,3,-1
 147 575 l 1,4,-1
 147 300 l 1,5,-1
 147 240 163 205 212 205 c 0,8,-1
 254 205 342 253 398 305 c 0,11,-1
 428 333 439 355 439 386 c 0,14,-1
 439 427 372 427 331 427 c 0,17,-1
 306.495692253 427 256 427 256 427 c 1,20,-1
 250 478 l 1,23,-1
 250 478 333 486 368 486 c 0,26,-1
 456.883238564 486 504 446.14711977 504 381 c 0,32,-1
 504 351 488 317 474 299 c 0,35,-1
 394 198 277 134 208 134 c 0,38,-1
 143 134 80 171 80 293 c 2,41,-1
 80 575 l 5,42,-1
 -13 575 l 5,43,-1
 -13 636 l 9,1,-1
EndSplineSet
LCarets2: 1 0
Ligature2: "'half' Half Forms lookup 5 subtable" bnDDHA bnVirama
EndChar

StartChar: BNGba_SIGvirama.half
Encoding: 247 -1 180
Width: 435
VWidth: 0
GlyphClass: 3
Flags: HW
HStem: 575 61<-12 317 383 444>
VStem: 317 65<212 469 542 574>
LayerCount: 2
Back
Fore
SplineSet
382 575 m 5
 382 130 l 1
 317 130 l 1
 29 348 l 1
 29 429 l 1
 317 542 l 29
 317 575 l 5
 -12 575 l 5
 -12 636 l 1
 444 636 l 1
 444 575 l 5
 382 575 l 5
317 212 m 25
 317 469 l 25
 97 380 l 25
 317 212 l 25
EndSplineSet
LCarets2: 1 0
Ligature2: "'half' Half Forms lookup 5 subtable" bnBA bnVirama
EndChar

StartChar: BNGpa_SIGvirama.half
Encoding: 248 -1 181
Width: 555
VWidth: 0
GlyphClass: 3
Flags: HW
HStem: 549.054 69.6719<246.6 386.518>
LayerCount: 2
Back
Fore
SplineSet
440 483 m 1
 440 483 425.878189147 498.578114456 401.114257812 517 c 0
 370.937222858 539.448692675 347.134765625 549.053710938 315.592773438 549.053710938 c 0
 288.19921875 549.053710938 268.87890625 539.012695312 255 531 c 0
 230.674804688 516.956054688 166.114257812 474.833007812 166.114257812 474.833007812 c 1
 252 344 l 1
 440 483 l 1
555.322265625 384 m 1
 486.885742188 442.362304688 l 25
 260 272 l 1
 215 279 l 1
 115.114257812 442 l 1
 54.1142578125 400 l 1
 23.1142578125 440 l 1
 23.1142578125 440 136.114257812 539 216.114257812 585 c 0
 246.829101562 602.661132812 278.34375 618.725585938 307 618.725585938 c 0
 342.7265625 618.725585938 374.131887639 609.319773412 397 595 c 0
 472.653713985 547.626433485 587 425 587 425 c 9
 555.322265625 384 l 1
EndSplineSet
LCarets2: 1 0
Ligature2: "'half' Half Forms lookup 5 subtable" bnPA bnVirama
EndChar

StartChar: BNGna_SIGvirama.half
Encoding: 249 -1 182
Width: 450
VWidth: 0
GlyphClass: 3
Flags: HW
HStem: 420.554 70.1729<182.576 322.489> 575.328 61<-13 462>
VStem: 90.3555 68.3916<288.075 396.178>
LayerCount: 2
Back
Fore
SplineSet
465 346.328125 m 1
 465 346.328125 312.732744554 420.553710938 231.708007812 420.553710938 c 0
 187.444335938 420.553710938 158.747070312 378.515625 158.747070312 340.033203125 c 0
 158.747070312 328.383789062 161.182729018 316.945715656 167 307.328125 c 0
 194.512091021 261.842874207 283 176.328125 283 176.328125 c 1
 254 130.328125 l 1
 254 130.328125 175 183 136 230.328125 c 0
 107.740995629 264.621604263 90.35546875 306.356445312 90.35546875 347.759765625 c 0
 90.35546875 387.459960938 104.629882812 425.36328125 134 450.328125 c 0
 169.502929688 480.505859375 204.908203125 490.7265625 252.963867188 490.7265625 c 0
 330.859375 490.7265625 492 396.328125 492 396.328125 c 9
 465 346.328125 l 1
462 575.328125 m 17
 -13 575.328125 l 1
 -13 636.328125 l 1
 462 636.65625 l 9
 462 575.328125 l 17
EndSplineSet
LCarets2: 1 0
Ligature2: "'half' Half Forms lookup 5 subtable" bnNA bnVirama
EndChar

StartChar: BNGda_SIGvirama.half
Encoding: 250 -1 183
Width: 495
GlyphClass: 3
Flags: HW
HStem: 575.328 61<-11 104.9 171.9 499>
VStem: 104.9 67<420 574.656>
LayerCount: 2
Back
Fore
SplineSet
105 575.328125 m 21
 104.900390625 382.500976562 l 25
 139.900390625 332 l 1
 353.099609375 434 l 1
 298.499023438 146 l 1
 336.19921875 146 l 1
 387.599609375 247 l 1
 432.099609375 500 l 1
 386.900390625 523 l 1
 171.900390625 420 l 25
 171.900390625 575.328125 l 1
 509 575.328125 l 1
 509 636.328125 l 1
 -11 636.328125 l 1
 -11 575.328125 l 9
 105 575.328125 l 21
EndSplineSet
LCarets2: 1 0
Ligature2: "'half' Half Forms lookup 5 subtable" bnDA bnVirama
EndChar

StartChar: BNGnna_SIGvirama.half
Encoding: 251 -1 184
Width: 460
VWidth: 0
GlyphClass: 3
Flags: HW
HStem: 538.592 68.2524<170.512 325.776>
VStem: 77.3553 68.3918<406.983 513.054>
LayerCount: 2
Back
Fore
SplineSet
462 460 m 1
 462 460 313 538.591627969 222.335916795 538.591627969 c 0
 176.018837109 538.591627969 145.747141609 496.931050812 145.747141609 458.264707012 c 0
 145.747141609 446.868633322 148.162848349 435.605926682 154 426 c 0
 181.731474924 380.36361246 262 306 262 306 c 1
 233 260 l 1
 233 260 157 312 123 349 c 0
 92.9329599881 381.720014131 77.3553127274 425.028632832 77.3553127274 466.431560212 c 0
 77.3553127274 506.131693282 91.6298631522 544.035383679 121 569 c 0
 155.547608888 598.365467554 199.378285507 606.844032712 237.792922667 606.844032712 c 0
 336 606.844032712 486 507 486 507 c 5
 462 460 l 1
EndSplineSet
LCarets2: 1 0
Ligature2: "'half' Half Forms lookup 5 subtable" bnNNA bnVirama
EndChar

StartChar: BNGdda_SIGvirama.half
Encoding: 252 -1 185
Width: 630
VWidth: 0
GlyphClass: 3
Flags: HW
HStem: 154 63.9822<267.301 361.544> 410 62<345.455 491.232> 575 61<-14 280 345 645>
VStem: 280 65<458 575> 494 64<332.385 406.535>
LayerCount: 2
Back
Fore
SplineSet
402 189 m 0
 371.599109236 164.489066913 338 154 324 154 c 0
 281 154 235.33984027 163.260558246 177 239 c 0
 120 313 74 403 74 403 c 1
 120 423 l 1
 120 423 157 373 221 291 c 0
 258 244 280 218 314 218 c 0
 324.343081699 218 336.314291598 218.141603039 352 230 c 0
 424.990286419 285.180663087 494 333.650668059 494 372 c 0
 494 394 489 410 447 410 c 4
 394 410 280 397 280 397 c 13
 280 575 l 25
 -14 575 l 1
 -14 636 l 1
 645 636 l 1
 645 575 l 25
 345 575 l 25
 345 458 l 1
 345 458 393.010638203 472 453 472 c 0
 539 472 558 426 558 382 c 0
 558 307.635572611 468.43068889 242.560212526 402 189 c 0
EndSplineSet
LCarets2: 1 0
Ligature2: "'half' Half Forms lookup 5 subtable" bnDDA bnVirama
EndChar

StartChar: BNGma_SIGvirama.half
Encoding: 253 -1 186
Width: 544
VWidth: 0
GlyphClass: 3
Flags: HW
HStem: 342 67<332.722 413.263> 421 69<135.765 189.345> 575 61<-10 141 216 409 469 557>
VStem: 54 65<331.99 407.748> 208.834 67.1661<478.314 530.166> 439 67<435.732 545.159>
LayerCount: 2
Back
Fore
SplineSet
412 342 m 0
 374.515556003 342 218.301504289 421 161 421 c 0
 150 421 145 415 132 394 c 0
 122 377 119 369 119 362 c 0
 119 354 124.185963768 347.210387285 131 341 c 0
 153.580794922 320.419616087 176 301 176 301 c 1
 152 261 l 1
 152 261 107.092458212 282.953494309 90 296 c 0
 69.0140239228 312.018389685 54 336 54 357 c 0
 54 380 59 398 76 426 c 0
 108 479 122 490 149 490 c 0
 166 490 203 478 203 478 c 1
 203 478 208.833858761 494.81957013 208.833858761 500.767096583 c 0
 208.833858761 520.212347729 141 575 141 575 c 1
 -10 575 l 17
 -10 636 l 1
 557 636 l 1
 557 575 l 9
 469 575 l 1
 469 575 506 508.091106113 506 478 c 0
 506 434 432 342 412 342 c 0
264 459 m 1
 264 459 365 409 387 409 c 0
 400 409 439 458 439 480 c 0
 439 509 409 575 409 575 c 1
 216 575 l 1
 216 575 276 530 276 510 c 0
 276 496 264 459 264 459 c 1
EndSplineSet
LCarets2: 1 0
Ligature2: "'half' Half Forms lookup 5 subtable" bnMA bnVirama
EndChar

StartChar: BNGla_SIGvirama.half
Encoding: 254 -1 187
Width: 585
VWidth: 0
GlyphClass: 3
Flags: HW
HStem: 426 64<158.875 324.585 434.319 571.755> 575 61<-14 595>
VStem: 73 65<300.059 403.122> 126 46<197.87 227.562> 346 52<272 308.909>
LayerCount: 2
Back
Fore
SplineSet
585 384 m 1xe8
 585 384 569.266199883 426 520 426 c 2
 495 426 l 2
 437 426 419 402 409 330 c 2
 398 272 l 1
 346 271 l 1
 343 329 l 2
 340 404 318 427 271 427 c 2
 212 427 l 2
 169 427 138 394 138 348 c 0xe8
 138 341 138 334 140 326 c 2
 172 200 l 1
 126 186 l 1xd8
 126 186 93 241 75 333 c 0
 73 343 73 353 73 362 c 0
 73 449 139 494 209 494 c 2
 272 494 l 2
 331 494 368 480 380 439 c 1
 402 482 438 490 499 490 c 2
 519 490 l 2
 580.616265421 490 628 421 628 421 c 1
 585 384 l 1xe8
595 575 m 21
 -14 575 l 1
 -14 636 l 1
 596 636 l 9
 595 575 l 21
EndSplineSet
EndChar

StartChar: BNGsha_SIGvirama.half
Encoding: 255 -1 188
Width: 510
VWidth: 0
GlyphClass: 3
Flags: HW
HStem: 264 66.751<37 184.45 283.794 403.674> 526 69<15.3355 190.982 284.308 472.632>
VStem: 201 71<348.986 511.392>
LayerCount: 2
Back
Fore
SplineSet
506 502 m 1
 506 502 400 521 349 521 c 0
 294.770783589 521 272 511 272 459 c 2
 272 384 l 2
 273 355 292.764648438 331 312 331 c 0
 344 331 402 336 402 336 c 5
 411 281 l 5
 411 281 341.999937483 264.066152843 307 264 c 0
 263.115283315 263.917054173 239 301 239 301 c 1
 239 301 204.072931834 264 154 264 c 0
 116 264 30 272 30 272 c 1
 37 334 l 1
 37 334 95.6904296875 331 128 331 c 0
 156 331 201 345 201 395 c 2
 201 469 l 2
 201 513 169 526 143 526 c 0
 108 526 -1 511 -1 511 c 1
 -10 567 l 1
 -10 567 105 595 157 595 c 0
 197 595 223 588 247 558 c 1
 267 588 299 590 342 590 c 0
 440 590 528 554 528 554 c 1
 506 502 l 1
EndSplineSet
EndChar

StartChar: BNGsa_SIGvirama.half
Encoding: 256 -1 189
Width: 710
VWidth: 0
GlyphClass: 3
Flags: HW
HStem: 324 75<126.545 208.755 467.67 553.331> 575 61<-10 288 352.787 554 617 718>
VStem: 578 75<425.284 539.057>
LayerCount: 2
Back
Fore
SplineSet
324 484 m 1
 324 484 510.126642049 399 526 399 c 0
 544 399 578 445 578 465 c 0
 578 485 554 575 554 575 c 1
 362 575 l 1
 324 484 l 1
550 324 m 0
 494 324 296 425 296 425 c 1
 296 425 241 324 194 324 c 0
 162 324 49 383 49 383 c 5
 68 431 l 1
 68 431 167 399 182 399 c 0
 212 399 288 575 288 575 c 1
 -10 575 l 17
 -10 636 l 1
 718 636 l 1
 718 575 l 9
 617 575 l 1
 617 575 653 487 653 463 c 0
 653 439.756835938 581 324 550 324 c 0
EndSplineSet
EndChar

StartChar: BNGssa_SIGvirama.half
Encoding: 258 -1 191
Width: 505
VWidth: 0
GlyphClass: 3
Flags: HW
HStem: 575 61<-14 77 141 372 432 516>
VStem: 40.7046 62.2209<404.615 506.349> 406 63<424.46 536.61>
LayerCount: 2
Back
Fore
SplineSet
57 369 m 0
 45.1123595506 379.078651685 40.7045827547 397.705718975 40.7045827547 419.789821964 c 0
 40.7045827547 488 77 575 77 575 c 1
 -14 575 l 1
 -14 636 l 1
 516 636 l 1
 516 575 l 9
 432 575 l 1
 432 575 469 488.923223454 469 459 c 0
 469 415 399 305 379 305 c 0
 348 305 122 314 57 369 c 0
119 507 m 1
 119 507 102.925522585 450.517378909 102.925522585 423.730571013 c 0
 102.925522585 415.969600124 104.202362362 410.038166445 107 407 c 0
 115.218138902 398.075300994 340 372 340 372 c 1
 119 507 l 1
385 424 m 1
 385 424 406 450 406 472 c 0
 406 499.057377047 372 575 372 575 c 1
 141 575 l 25
 135 561 l 1
 385 424 l 1
EndSplineSet
EndChar

StartChar: NameMe.65640
Encoding: 292 -1 225
Width: 915
VWidth: 0
Flags: HW
HStem: -0 72<242.42 416.639> 447 73<397.426 532.36> 575 61<-14 929>
VStem: 553 69<152 354> 575 47<0 26.7273> 774.586 67.5596<219.464 313.434>
LayerCount: 2
Back
Fore
SplineSet
622 354 m 1xf4
 622 0 l 1
 575 0 l 1xec
 553 84 l 17
 553 84 401.027312436 0 306 -0 c 0
 263 -0 198 6 143 89 c 0
 118 127 65 254 65 254 c 1
 105 279 l 1
 200 138 l 2
 239 80 281 72 309 72 c 0
 403 72 553 152 553 152 c 9
 553 366 l 1
 553 424 521 447 472 447 c 0
 404.672794711 447 258 347 258 347 c 9
 226 388 l 1
 299 452 392.000094617 519.876960684 472 520 c 4
 599.499092331 520.196092745 611.708007812 425 611.708007812 425 c 5
 758 382 l 2
 805.858875685 367.932711533 842.145507812 330.313476562 842.145507812 274.802734375 c 0
 842.145507812 253.903320312 832.020507812 224.470703125 814.440429688 200.426757812 c 0
 790 167 762.145507812 133.802734375 762.145507812 133.802734375 c 5
 720.145507812 161.802734375 l 25
 761.440429688 234.426757812 l 2
 770.040789249 249.551927833 774.5859375 262.577148438 774.5859375 274.229492188 c 0
 774.5859375 305.40625 755.961914062 317.390625 716 328 c 2
 622 354 l 1xf4
929 575 m 25
 -14 575 l 1
 -14 636 l 1
 929 636 l 1
 929 575 l 25
EndSplineSet
EndChar

StartChar: NameMe.65641
Encoding: 293 -1 226
Width: 725
VWidth: 0
Flags: HW
HStem: -166 72<244.615 416.867> 450.622 62.9746<141.998 274.321> 575 62<624 738>
VStem: 71.1729 62.1426<522.986 578.523> 559 65<-13 10.9898 82 575> 577 47<-166 -139.273>
LayerCount: 2
Back
Fore
SplineSet
559 0 m 1xf8
 150 235 l 1
 150 316 l 1
 402 426 l 1
 402 426 390.06530558 466.643266609 383 486 c 0
 378.542581069 498.211937458 374 507 364 503 c 0
 355.643709782 499.657483913 250 450.622070312 183.05078125 450.622070312 c 0
 151.828125 450.622070312 122.745117188 458.42578125 102 480 c 0
 84.8232421875 497.731445312 71.1728515625 527.5234375 71.1728515625 552.572265625 c 0
 71.1728515625 572.73046875 78.6793983392 597.097163456 97 614 c 0
 132.526027751 646.776796923 224 653 224 653 c 1
 236 614 l 17
 236 614 182.187563674 591.181367813 154 578 c 0
 140.550258123 571.710488898 133.315429688 561.45703125 133.315429688 550.35546875 c 0
 133.315429688 527.166039664 157.125444337 513.596679688 183.138671875 513.596679688 c 0
 268.794784954 513.596679688 386.886335468 591.2265625 400.76171875 591.2265625 c 0
 413.106445312 591.2265625 427.397314856 582.242024465 442 535 c 0
 457.890705972 483.591021933 487 390 487 390 c 9
 229 273 l 25
 559 82 l 25
 559 636 l 17
 554 702 l 1
 590 702 l 1
 613 637 l 1
 738 637 l 17
 738 575 l 1
 624 575 l 1
 624 -166 l 1
 577 -166 l 1xf4
 555 -82 l 17
 555 -82 402.524546104 -166 308 -166 c 0
 265 -166 199.724609375 -160.181640625 145 -77 c 0
 120 -39 90 37 90 37 c 1
 137 67 l 1
 202 -28 l 2
 241.440429688 -85.6435546875 283 -94 311 -94 c 0
 402.021299469 -94 559 -13 559 -13 c 1
 559 0 l 1xf8
EndSplineSet
EndChar

StartChar: NameMe.65642
Encoding: 294 -1 227
Width: 675
VWidth: 0
Flags: HW
HStem: -68 72<210.615 384.639> 502 62<489.84 522.617> 549.388 71.3906<243.923 402.654> 575 61<590 693>
VStem: 136.851 82.9395<446.022 515.932> 341.035 71.0049<258.289 339.419> 521 69<83 502 564 575> 543 47<-68 -41.2727>
LayerCount: 2
Back
Fore
SplineSet
520.6171875 502 m 1xde
 340 541 l 0
 317.241210938 546.090820312 299.7734375 549.387695312 285.770507812 549.387695312 c 0
 253.01171875 549.387695312 245.213867188 543.342773438 227 488 c 0
 215.506678243 453.533749917 286.718268143 447.066379295 343 424 c 0
 381 409 391 398 400 373 c 0
 404.759931195 360.624178893 418.040039062 307.348816276 418.040039062 275.68359375 c 0
 418.040039062 230.756835938 252 147 252 147 c 1
 222 194 l 1
 222 194 347 276 347 299 c 0
 347 319.099751242 342 346 318 356 c 0
 256.085691773 380.950321117 120.11351141 405.549992333 146 477 c 0
 172 549 178.879396761 578.159999174 212 603 c 0
 229.905273438 616.428710938 256.889648438 620.778320312 282.793945312 620.778320312 c 0xae
 303.184570312 620.778320312 322.929391051 618.191272133 337 615 c 0
 434 593 521 565 521 565 c 9
 521.162109375 618 l 1
 515 702 l 1
 551 702 l 1
 577 636 l 9
 693 636 l 17
 693 575 l 1
 590 575 l 5
 590 575 590 179.666666667 590 -18 c 5
 543 -18 l 1xdd
 521 66 l 1
 521 66 369.02734375 -18 274 -18 c 0
 231 -18 165.724609375 -12.181640625 111 71 c 0
 86 109 56 185 56 185 c 1
 103 215 l 1
 168 120 l 2
 209.05078125 60.0029296875 248.809570313 54 282 54 c 0
 365 54 521 133 521 133 c 1
 520.6171875 502 l 1xde
EndSplineSet
EndChar

StartChar: NameMe.65643
Encoding: 295 -1 228
Width: 650
VWidth: 0
Flags: HW
HStem: -171 72<201.615 373.867> 365 60.8096<170.517 330> 575 61<-12 155 201.707 516 582 660>
VStem: 99 65<435.737 519.241> 516 65<-18 9.4307 78 575> 534 47<-171 -144.273>
LayerCount: 2
Back
Fore
SplineSet
213 575 m 1xf8
 213 575 164 494 164 469 c 0
 164 460 164 452 172 443 c 0
 184.99609375 428.704101562 243.596679688 425.809570312 304.997070312 425.809570312 c 0
 338.084960938 425.809570312 400 426 400 426 c 1
 421 342 l 1
 215 225 l 1
 516 78 l 25
 516 575 l 25
 213 575 l 1xf8
516 0 m 1
 133 185 l 1
 132 260 l 5
 330 365 l 1
 330 365 305 364.543945312 279.78125 364.543945312 c 0
 222.145507812 364.543945312 133.8359375 369.178710938 111 408 c 0
 103 422 99 436 99 451 c 0
 99 492 155 575 155 575 c 1
 -12 575 l 1
 -12 636 l 1
 660 636 l 1
 660 575 l 9
 582 575 l 1
 581 -171 l 1
 534 -171 l 1xf4
 512 -87 l 17
 512 -87 360.027312436 -171 265 -171 c 0
 222 -171 156.724609375 -165.181640625 102 -82 c 0
 77 -44 47 32 47 32 c 1
 94 62 l 1
 159 -33 l 2
 198.440429688 -90.6435546875 236 -99 268 -99 c 0
 357.991898445 -99 516 -18 516 -18 c 9
 516 0 l 1
EndSplineSet
EndChar

StartChar: NameMe.65644
Encoding: 296 -1 229
Width: 0
VWidth: 0
Flags: HW
HStem: -181.028 72<214.615 382.66> 3.16211 75.3477<305.991 414.129> 287 70<365.085 568.608> 428 59<366 513.76> 577 57<375.185 515.907>
VStem: 304.912 61.042<341 428 497.002 568.075> 518 55<491.683 573.301> 547 65<-15.0283 118> 565 47<-168.028 -141.301> 569.148 68.3691<214.189 282.735>
LayerCount: 2
Back
Fore
SplineSet
547 118 m 17xfd
 547 118 477.90234375 61.990234375 452 42 c 0
 420.8671875 17.9736328125 392.525390625 3.162109375 361.516601562 3.162109375 c 0
 317.512695312 3.162109375 269.230638607 33.7693613934 200 103 c 0
 114 189 30 398 30 398 c 1
 77 416 l 1
 77 416 181 231 249 156 c 0
 290.0546875 110.234375 321.59765625 78.509765625 358.565429688 78.509765625 c 0
 376.525390625 78.509765625 395.607421875 86.2060546875 418 103 c 0
 466 139 539 195 554 218 c 0
 565.44921875 235.555664062 569.1484375 250.099609375 569.1484375 260.221679688 c 0xfc40
 569.1484375 280.35546875 548.923828125 286.334960938 507 287 c 0
 478 287 305 287 305 287 c 9
 305 435 l 17
 305 435 231.647122738 456.524415914 177 484 c 0
 150.519689189 497.313820927 141 503 141 503 c 9
 164 549 l 1
 305 497 l 17
 305 528 305.30126199 572.414522361 331 599 c 0
 354 623 373 634 433 634 c 0
 539 634 573 633 573 526 c 0xfe
 573 461 565 428 488 428 c 2
 366 428 l 1
 366 341 l 1
 366 341 482.368193206 357 525 357 c 0
 599 357 637.517578125 318.931640625 637.517578125 265.57421875 c 0xfc40
 637.517578125 248.67578125 633.770898977 230.212568984 626 211 c 0
 619.455720532 194.820093261 611.625 184.971679688 611.625 184.971679688 c 9
 612 -168.028320312 l 17
 565 -168.028320312 l 1xfc80
 543 -84.0283203125 l 17
 543 -84.0283203125 374.612348665 -181.028320312 278 -181.028320312 c 0
 235 -181.028320312 169.724609375 -175.209960938 115 -92.0283203125 c 0
 90 -54.0283203125 60 21.9716796875 60 21.9716796875 c 1
 107 51.9716796875 l 1
 172 -43.0283203125 l 2
 211.440429688 -100.671875 253 -109.028320312 281 -109.028320312 c 0
 371.987511467 -109.028320312 547 -15.0283203125 547 -15.0283203125 c 9
 547 118 l 17xfd
366 487 m 1
 471 487 l 2
 503 487 518 499 518 524 c 0xfe
 518 576 517 577 440 577 c 0
 378.674401799 577 366 565 366 487 c 1
EndSplineSet
EndChar

StartChar: NameMe.65645
Encoding: 297 -1 230
Width: 625
VWidth: 0
Flags: HW
HStem: -31 72<193.42 367.639> 123 71<238.626 378.787> 342 70<301.085 503.973> 446 59<302 449.76> 575 61<-11 247 506 635> 587 49<308.728 453.071>
VStem: 53 47<419.185 447.681> 239 63<396 446 505 573.236> 454 55<509.683 574.636> 504 69<121 205 271.137 336.467> 526 47<-31 -4.27273>
LayerCount: 2
Back
Fore
SplineSet
302 505 m 1xf780
 407 505 l 2
 439 505 454 517 454 542 c 0
 454 587 453 587 376 587 c 0
 314.251558209 587 302 582.650678812 302 505 c 1xf780
504 205 m 1xfb40
 504 205 440.848324487 164.84889155 403 149 c 0
 367.026632191 133.936241886 329 123 298 123 c 0
 254 123 193.020197696 141.826897116 151 215 c 0
 93 316 53 445 53 445 c 1
 100 463 l 1
 100 463 151 352 196 271 c 0
 226 217 258 194 295 194 c 0
 313 194 339 200 365 210 c 0
 432.837307272 236.182820351 505 264.126960497 505 315 c 0
 505 335 485 341 443 342 c 0
 414 342 309 342 239 342 c 9
 239 521 l 2
 239 553.268647378 247 575 247 575 c 1
 -11 575 l 1
 -11 636 l 1
 635 636 l 1
 635 575 l 1
 506 575 l 17
 506 575 509 562.334684454 509 544 c 0xfb80
 509 481 501 446 424 446 c 2
 302 446 l 1
 302 396 l 1
 302 396 418.296889854 412 461 412 c 0
 533.305671066 412 573 374.61465648 573 320 c 10xfb40
 573 -31 l 1
 526 -31 l 1xfb20
 504 53 l 1
 504 53 352.027312436 -31 257 -31 c 0
 214 -31 149 -25 94 58 c 0
 69 96 39 172 39 172 c 1
 86 202 l 1
 151 107 l 2
 190 49 232 41 260 41 c 0
 346 41 504 121 504 121 c 9
 504 205 l 1xfb40
EndSplineSet
EndChar

StartChar: NameMe.65646
Encoding: 298 -1 231
Width: 700
VWidth: 0
Flags: HW
HStem: -177 72<209.615 383.639> 0 71<278.136 392.983> 575 61<-12 194 261 710>
VStem: 194 67<86.6083 408 463 574> 520 69<-25 102> 542 47<-177 -150.273> 581 71<242.707 343.49>
LayerCount: 2
Back
Fore
SplineSet
261 408 m 9xf2
 261 166 l 1
 261 106 277 71 326 71 c 0
 381 71 496 144 551 229 c 0
 573 263 581 288 581 307 c 0
 581 349.405287627 539.802439428 352.407981228 501 360 c 0
 394.3128294 380.874228885 261 408 261 408 c 9xf2
520 102 m 1xf8
 520 102 410 0 322 0 c 0
 257 0 194 37 194 159 c 2
 194 575 l 1
 -12 575 l 1
 -12 636 l 1
 710 636 l 1
 710 575 l 1
 261 575 l 17
 261 463 l 17
 261 463 332.928283678 455.358256888 370 451 c 0
 489.001162332 437.00988336 513 434 542 429 c 0xf4
 618.956979911 415.733307955 652 371.742633643 652 312 c 0xf2
 652 290 641.375139202 249.413073497 631 227 c 0
 618.147639704 199.235466889 589 159 589 159 c 9
 589 -177 l 1
 542 -177 l 1xf4
 520 -93 l 17
 520 -93 360.017213331 -177 273 -177 c 0
 230 -177 164.724609375 -171.181640625 110 -88 c 0
 85 -50 55 26 55 26 c 1
 102 56 l 1
 167 -39 l 2
 206.440429688 -96.6435546875 248 -105 276 -105 c 0
 366.757165585 -105 520 -25 520 -25 c 1
 520 102 l 1xf8
EndSplineSet
EndChar

StartChar: NameMe.65647
Encoding: 299 -1 232
Width: 735
VWidth: 0
Flags: HW
HStem: -181 72<202.42 376.639> 174 82<214.064 278.305> 575 61<-12 142 209 745>
VStem: 142 67<259.941 463 516 574> 426 70<344.354 404.796> 535 47<-181 -154.273> 591 66<254.732 377.514>
LayerCount: 2
Back
Fore
SplineSet
406 345 m 0
 412 349 426 359 426 379 c 0
 426 422.79122171 385.859684119 427.940980882 346 437 c 0
 302 447 209 463 209 463 c 1
 209 317 l 1
 210 273 219 256 238 256 c 0
 247 256 259 260 274 268 c 0
 323 294 400 341 406 345 c 0
513 -19 m 1
 513 -19 361.264587713 27.5949003357 279 70 c 9
 287 143 l 1
 287 143 567.901893333 208.123979588 585 278 c 0
 590.649589888 301.088571504 591 312 591 337 c 0
 591 364 584.25323102 374.658092299 546 389 c 0
 520.922297149 398.402136501 492 405 492 405 c 1
 492 405 496 390.605397405 496 381 c 0
 496 346 480 316 436 289 c 0
 392 262 326 223 270 190 c 0
 253 180 234 174 216 174 c 0
 177 174 142 205 142 289 c 2
 142 575 l 1
 -12 575 l 1
 -12 636 l 1
 745 636 l 1
 745 575 l 1
 209 575 l 1
 209 516 l 17
 209 516 298.146849551 503.887495194 355 496 c 0
 430.083244712 485.583361218 472 478 545 461 c 0
 615 445 657 417 657 342 c 0
 657 314 650.628918097 274.071835346 645 244 c 0
 630.006336288 163.898108557 383 101 383 101 c 1
 683 -13 l 9
 668 -61 l 1
 582 -37 l 25
 582 -181 l 1
 535 -181 l 1
 513 -97 l 17
 513 -97 361.027312436 -181 266 -181 c 0
 223 -181 158 -175 103 -92 c 0
 78 -54 48 22 48 22 c 1
 95 52 l 1
 160 -43 l 2
 199 -101 241 -109 269 -109 c 0
 359.486207984 -109 513 -29 513 -29 c 1
 513 -19 l 1
EndSplineSet
EndChar

StartChar: NameMe.65648
Encoding: 300 -1 233
Width: 925
VWidth: 0
Flags: HW
HStem: -152 72<234.615 446.908> 24.8799 75.2969<361.952 470.021> 291 66<421.081 607.173> 575 62<-13 359 422 935>
VStem: 359 63<345 493 551.756 575> 608.099 71.1387<226.334 287.791> 713 66<7 91.7273> 732 47<-152 -125.273> 794.237 68.2441<307.115 395.602>
LayerCount: 2
Back
Fore
SplineSet
779 68 m 9xfe80
 779 -152 l 1
 732 -152 l 1xfd80
 710 -68 l 17
 710 -68 391.549531374 -152 298 -152 c 0
 255 -152 189.724609375 -146.181640625 135 -63 c 0
 110 -25 80 51 80 51 c 1
 127 81 l 1
 192 -14 l 2
 231.440429688 -71.6435546875 273 -80 301 -80 c 0
 391.320051984 -80 720 7 720 7 c 1
 713 72 l 17
 713 72 794.237304688 324 794.237304688 362.006835938 c 0
 794.237304688 397.352539062 754.232421875 407.93359375 712 420 c 0
 654 437 422 493 422 493 c 1
 422 345 l 1
 422 345 532.387490024 357 575 357 c 0
 639 357 679.237304688 314.080078125 679.237304688 265.31640625 c 0
 679.237304688 195.743579682 577.618329612 119.046974058 513 65 c 0
 482.866197809 39.7959931019 450.823242188 24.8798828125 419.9140625 24.8798828125 c 0
 375.612304688 24.8798828125 320.186563435 50.68672237 257 126 c 0
 158 244 86 427 86 427 c 1
 133 448 l 1
 133 448 246 254 306 179 c 0
 344.392578125 131.009765625 379.477539062 100.176757812 416.411132812 100.176757812 c 0
 434.375 100.176757812 452.343108405 109.355069538 475 126 c 0
 520.677621567 159.557155511 608.098632812 219.906535624 608.098632812 266.250976562 c 0
 608.098632812 284.484375 586.264648438 291 559 291 c 0
 530 291 358 291 358 291 c 9
 359 575 l 25
 -13 575 l 1
 -13 637 l 1
 935 637 l 5
 935 575 l 25
 422 575 l 25
 422 555 l 1
 501 542 633 518 719 491 c 0
 794.010742188 467.1328125 862.481445312 447.625976562 862.481445312 373.022460938 c 0
 862.481445312 314 779 68 779 68 c 9xfe80
EndSplineSet
EndChar

StartChar: NameMe.65649
Encoding: 301 -1 234
Width: 825
VWidth: 0
Flags: HW
HStem: -166 72<206.615 378.867> 575 61<-15 521 760 840>
VStem: 521 65<-13 14.5485 82 198 271 459 532 575> 539 47<-166 -139.273> 695 65<39 160 219 575>
LayerCount: 2
Back
Fore
SplineSet
586 -166 m 1
 539 -166 l 1xd8
 517 -82 l 1
 517 -82 365.027312436 -166 270 -166 c 0
 227 -166 161.724609375 -160.181640625 107 -77 c 0
 82 -39 52 37 52 37 c 1
 99 67 l 1
 164 -28 l 2
 203.440429688 -85.6435546875 245 -94 273 -94 c 0
 369 -94 521 -13 521 -13 c 9
 521 0 l 1
 143 281 l 1
 143 362 l 1
 521 532 l 25
 521 575 l 1xe8
 -15 575 l 17
 -15 636 l 1
 586 636 l 9xd8
 586 271 l 25
 695 219 l 25
 695 636 l 1
 690 702 l 1
 726 702 l 1
 749 636 l 1
 840 636 l 17
 840 575 l 1
 760 575 l 25
 760 39 l 1
 695 39 l 1
 695 160 l 25
 586 198 l 17
 586 -166 l 1
521 82 m 25xe8
 521 459 l 25
 214 316 l 25
 521 82 l 25xe8
EndSplineSet
EndChar

StartChar: NameMe.65650
Encoding: 302 -1 235
Width: 0
VWidth: 0
Flags: HW
HStem: -200 72<246.615 420.871> 5 72<247.42 421.639> 108 63<639 781.981> 283 60<682 783.639> 449 56<627 699.333> 459 65<627.823 784.713> 559 76<404.888 537.482>
VStem: 558 69<-48 89 179 449 505 538.558> 580 47<-200 -173.273> 788 71<175.276 277.459 348.875 455.189>
LayerCount: 2
Back
Fore
SplineSet
558 89 m 1xf740
 558 89 406.027312436 5 311 5 c 0
 268 5 203 11 148 94 c 0
 123 132 70 259 70 259 c 1
 110 284 l 1
 205 143 l 2
 244 85 286 77 314 77 c 0
 400 77 558 157 558 157 c 9
 558 478 l 1
 558 536 523 559 477 559 c 0
 417 559 227 440 227 440 c 9
 197 478 l 1
 270 546 392 635 472 635 c 0
 570 635 627 580 627 505 c 1xfb40
 627 505 705 524 742 524 c 0
 806 524 860 523 860 410 c 2
 860 402 l 2
 860 369 856 322 815 316 c 1
 856 309 859 262 859 229 c 2
 859 220 l 2
 859 108 810 108 742 108 c 0
 706.222217077 108 627 129 627 129 c 9
 627 -200 l 1
 580 -200 l 1xf6c0
 558 -116 l 17
 558 -116 405.012759268 -200 310 -200 c 0
 267 -200 201.724609375 -194.181640625 147 -111 c 0
 122 -73 92 3 92 3 c 1
 139 33 l 1
 204 -62 l 2
 243.440429688 -119.643554688 285 -128 313 -128 c 0
 407 -128 558 -48 558 -48 c 9
 558 89 l 1xf740
627 179 m 21
 627 179 701.904807624 171 742 171 c 0
 768 171 788 181 788 213 c 2
 788 234 l 2
 788 272 772 283 735 283 c 2
 682 283 l 17
 682 343 l 9
 735 343 l 2
 772 343 788 354 788 392 c 2
 788 417 l 2
 788 450 769 459 744 459 c 0xf740
 703.355385059 459 627 449 627 449 c 9
 627 179 l 21
EndSplineSet
EndChar

StartChar: NameMe.65651
Encoding: 303 -1 236
Width: 710
VWidth: 0
Flags: HW
HStem: -177 72<208.42 382.639> 0 71<277.774 389.364> 337 66<383 571.897> 337 58<383 519.344> 575 61<-12 194 261 530 600 734> 708 64<246.908 518.718>
VStem: 194 67<86.6083 574> 519 69<-25 102> 530 70<636 696.221> 541 47<-177 -150.273> 582 72<241.416 324.635>
LayerCount: 2
Back
Fore
SplineSet
519 102 m 1xef
 519 102 411 0 322 0 c 0
 257 0 194 37 194 159 c 2
 194 575 l 1
 -12 575 l 1
 -12 636 l 1
 530 636 l 17
 530 690 514 708 466 708 c 0
 368.527123245 708 161 708 161 708 c 9
 157 758 l 1
 157 758 412.623666251 771.84249267 472 772 c 0
 565.999669272 772.249352494 600 714 600 636 c 9xee80
 734 636 l 1
 734 575 l 1
 261 575 l 17
 261 166 l 1
 261 106 277 71 326 71 c 0
 381 71 487 150 551 229 c 0
 573 256 582 277 582 292 c 0
 582 332 534 337 481 337 c 0
 449.438702534 337 383 337 383 337 c 1xee20
 377 395 l 1xde20
 377 395 435 403 521 403 c 0
 610.323421401 403 654 362.557271089 654 297 c 0xee20
 654 271 644.331799203 244.441023408 630 222 c 0
 616.620672391 201.050376034 588 156 588 156 c 9
 588 -177 l 1
 541 -177 l 1xee40
 519 -93 l 1
 519 -93 367.027312436 -177 272 -177 c 0
 229 -177 164 -171 109 -88 c 0
 84 -50 54 26 54 26 c 1
 101 56 l 1
 166 -39 l 2
 205 -97 247 -105 275 -105 c 0
 368 -105 519 -25 519 -25 c 9
 519 102 l 1xef
EndSplineSet
EndChar

StartChar: NameMe.65652
Encoding: 304 -1 237
Width: 666
VWidth: 0
Flags: HW
HStem: -172 72<195.615 369.639> -0.148438 74.1484<324.496 405.155> 574.179 61.8213<-13 254 326 679>
VStem: 254 72<534.535 574> 506 69<-20 88.373> 528 47<-172 -145.273> 541 73<186.263 263.177>
LayerCount: 2
Back
Fore
SplineSet
541 222 m 0xf2
 541 264.802734375 371.094726562 414.038085938 371.094726562 414.038085938 c 1
 371.094726562 387.907226562 356.845703125 369.026367188 335.094726562 340.038085938 c 0
 295.540039062 287.321289062 217 185 217 185 c 1
 217 185 322.485170639 74 362 74 c 0
 389.641601562 74 541 185 541 222 c 0xf2
150 149 m 1
 151 217 l 1
 151 217 246.045898438 332.290039062 278.094726562 374.038085938 c 0
 298.725585938 400.913085938 312 421.7890625 312 444 c 0
 312 464.1328125 299.094726562 481.038085938 276.094726562 513.038085938 c 0
 256.250976562 540.646484375 254 562 254 574 c 1
 -13 574 l 1
 -13 636 l 1
 255.591796875 636 l 1
 255.591796875 636 256.014212762 659.939806915 282 687 c 0
 343.223512961 750.754854409 436 816 436 816 c 1
 468 779 l 1
 468 779 369.41952898 690.534629531 340 658 c 0
 332.262465736 649.44317331 323.81640625 636 323.81640625 636 c 1
 679 636 l 1
 679 574 l 9
 326 574 l 17
 326 507 614 319 614 225 c 0xf2
 614 192.984030899 575 152 575 152 c 9
 575 -172 l 1
 528 -172 l 1xf4
 506 -88 l 17
 506 -88 354.027312436 -172 259 -172 c 0
 216 -172 150.724609375 -166.181640625 96 -83 c 0
 71 -45 41 31 41 31 c 1
 88 61 l 1
 153 -34 l 2
 192.440429688 -91.6435546875 234 -100 262 -100 c 0
 348 -100 506 -20 506 -20 c 9
 506 88.373046875 l 9xf8
 506 88.373046875 399 0 355 0 c 0
 311 0 150 149 150 149 c 1
EndSplineSet
EndChar

StartChar: NameMe.65653
Encoding: 305 -1 238
Width: 710
VWidth: 0
Flags: HW
HStem: -177 72<208.42 382.639> 0 71<277.774 389.364> 337 66<383 571.897> 337 58<383 519.344> 575 61<-12 194 261 734>
VStem: 194 67<86.6083 574> 519 69<-25 102> 541 47<-177 -150.273> 582 72<241.416 324.635>
LayerCount: 2
Back
Fore
SplineSet
-12 636 m 9xee
 734 636 l 17
 734 575 l 1
 261 575 l 17
 261 166 l 1
 261 106 277 71 326 71 c 0
 381 71 487 150 551 229 c 0
 573 256 582 277 582 292 c 0
 582 332 538 337 481 337 c 0
 449.233479002 337 383 337 383 337 c 1xec80
 377 395 l 1xdc80
 377 395 486 403 521 403 c 0
 610.323421401 403 654 362.557271089 654 297 c 0xec80
 654 240.534676408 588 156 588 156 c 9
 588 -177 l 1
 541 -177 l 1xed
 519 -93 l 21
 519 -93 367.027312436 -177 272 -177 c 0
 229 -177 164 -171 109 -88 c 0
 84 -50 54 26 54 26 c 1
 101 56 l 1
 166 -39 l 2
 205 -97 247 -105 275 -105 c 0
 371 -105 519 -25 519 -25 c 9
 519 102 l 1
 519 102 415 0 322 0 c 0
 257 0 194 37 194 159 c 2
 194 575 l 1
 -12 575 l 1
 -12 636 l 9xee
EndSplineSet
EndChar

StartChar: NameMe.65654
Encoding: 306 -1 239
Width: 666
VWidth: 0
Flags: HW
HStem: -21 72<202.42 376.639> 539 68<221.627 377.883> 575 61<582 683>
VStem: 128 69<406.771 513.074> 513 69<131 474.527 540 575> 535 47<-21 5.72727>
LayerCount: 2
Back
Fore
SplineSet
582 -21 m 1
 535 -21 l 1xb4
 513 63 l 1
 513 63 361.027312436 -21 266 -21 c 0
 223 -21 158 -15 103 68 c 0
 78 106 48 182 48 182 c 1
 95 212 l 1
 160 117 l 2
 199 59 241 51 269 51 c 0
 365 51 513 131 513 131 c 1
 513 465 l 1
 513 465 386.418787765 539 273 539 c 0
 227 539 197 497 197 458 c 0
 197 407 321 295 321 295 c 9
 292 249 l 1
 292 249 217 302 174 349 c 0
 143.895610402 381.904797932 128 425 128 466 c 0
 128 506 143 544 172 569 c 0
 207 598 250 607 289 607 c 0xd8
 370.778469728 607 513 540 513 540 c 1
 513 636 l 25xb8
 535 702 l 1
 582 702 l 1
 582 636 l 25xb4
 683 636 l 17
 683 575 l 1
 582 575 l 17
 582 -21 l 1
EndSplineSet
EndChar

StartChar: NameMe.65655
Encoding: 307 -1 240
Width: 690
VWidth: 0
Flags: HW
HStem: -0 72<242.42 416.639> 447 73<397.426 532.229> 575 61<-14 699>
VStem: 553 69<152 424.203> 575 47<0 26.7273>
LayerCount: 2
Back
Fore
SplineSet
622 370 m 4xf0
 622 299 622 0 622 0 c 5
 575 0 l 5xe8
 553 84 l 5
 553 84 401.027312436 0 306 -0 c 4
 263 -0 198 6 143 89 c 4
 118 127 65 254 65 254 c 5
 105 279 l 5
 200 138 l 6
 239 80 281 72 309 72 c 4
 404 72 553 152 553 152 c 13
 553 366 l 5
 553 424 518 447 472 447 c 4
 411 447 258 347 258 347 c 13
 226 388 l 5
 299 452 392 520 472 520 c 4
 585.717773438 520 622 428 622 370 c 4xf0
699 575 m 25
 -14 575 l 1
 -14 636 l 1
 699 636 l 1
 699 575 l 25
EndSplineSet
EndChar

StartChar: NameMe.65656
Encoding: 308 -1 241
Width: 690
VWidth: 0
Flags: HW
HStem: -165 72<242.42 416.639> 533 72<130.073 378.469> 575 61<622 704>
VStem: 393 69<415.883 516.88> 557 38<677.684 702> 575 47<-165 -138.273>
LayerCount: 2
Back
Fore
SplineSet
553 0 m 1xb4
 153 231 l 1
 152 317 l 1
 152 317 393 381 393 454 c 0
 393 514 377 533 282 533 c 0
 232.426949214 533 130 533 130 533 c 1
 122 586 l 1
 122 586 213.121149167 605 280 605 c 0
 445 605 462 550.814348828 462 441 c 0
 462 339 230 266 230 266 c 25
 557 82 l 0
 557 702 l 25
 595 702 l 1xd8
 614 636 l 9
 704 636 l 17
 704 575 l 1
 622 575 l 1
 622 -165 l 1
 575 -165 l 1
 553 -81 l 1
 553 -81 401.027312436 -165 306 -165 c 0
 263 -165 198 -159 143 -76 c 0
 118 -38 88 38 88 38 c 1
 135 68 l 1
 200 -27 l 2
 239 -85 281 -93 309 -93 c 0
 402 -93 553 -13 553 -13 c 9
 553 0 l 1xb4
EndSplineSet
EndChar

StartChar: NameMe.65657
Encoding: 309 -1 242
Width: 675
VWidth: 0
Flags: HW
HStem: -32 72<109.42 283.639> 575 61<2 126 193 603>
VStem: 126 67<332 575> 415 74<119 224.778> 442 47<-32 -5.27273>
LayerCount: 2
Back
Fore
SplineSet
502 175 m 1xf0
 529 367 l 1xe8
 248 244 l 1
 213 295 l 25
 213 575 l 1
 -10 575 l 1
 -10 636 l 1
 690 636 l 1
 690 575 l 1
 280 575 l 1
 280 332 l 25
 559 452 l 1
 604 429 l 1
 576 217 l 9xf0
 576 -32 l 1
 529 -32 l 1xe8
 507 52 l 5
 507 52 355.027312436 -32 260 -32 c 0
 217 -32 152 -26 97 57 c 0
 72 95 42 171 42 171 c 5
 89 201 l 1
 154 106 l 2
 193 48 235 40 263 40 c 0
 345 40 502 119 502 119 c 9
 502 175 l 1xf0
EndSplineSet
EndChar

StartChar: NameMe.65658
Encoding: 310 -1 243
Width: 665
VWidth: 0
Flags: HW
HStem: -165 72<227.615 400.711> 575 61<603 678> 606.29 55.7998<251.3 382.959>
VStem: 179.42 62.707<516.104 597.539> 538 65<-13 9.6554 77 459 528 575> 556 47<-165 -137.318>
LayerCount: 2
Back
Fore
SplineSet
603 -165 m 5
 556 -165 l 5
 534 -78 l 21
 534 -78 386.545724846 -165 291 -165 c 4
 248 -165 182.724609375 -159.181640625 128 -76 c 4
 103 -38 73 38 73 38 c 5
 120 68 l 5
 185 -27 l 6
 224.440429688 -84.6435546875 266 -93 294 -93 c 4
 381 -93 535 -13 535 -13 c 13
 535 0 l 5
 160 281 l 1
 160 358 l 1
 296 419.513671875 l 1
 296 419.513671875 179.419921875 485.525448648 179.419921875 552.463867188 c 0
 179.419921875 605.021990764 213.489275232 662.08984375 274.192382812 662.08984375 c 0
 326 662.08984375 393 639 393 639 c 1
 383 599 l 17
 383 599 336 606.290039062 295.51953125 606.290039062 c 0xb4
 266.011672933 606.290039062 242.126953125 588.914898228 242.126953125 554.307617188 c 0
 242.126953125 510.03109687 364 450 364 450 c 1
 538 528 l 25
 538 636 l 1
 534 702 l 1
 570 702 l 1
 593 636 l 9
 678 636 l 17
 678 575 l 1
 603 575 l 21
 603 -165 l 5
538 77 m 25x98
 538 459 l 25
 226 315 l 25
 538 77 l 25x98
EndSplineSet
EndChar

StartChar: NameMe.65659
Encoding: 311 -1 244
Width: 650
VWidth: 0
Flags: HW
HStem: -13 72<198.615 372.639> 419.827 70.1729<222.612 372.835> 575 61<-9 509 576 660>
VStem: 130.392 68.3916<287.348 395.451> 509 67<139 361.318 426 574> 531 45<-13 13.7273>
LayerCount: 2
Back
Fore
SplineSet
576 -13 m 17xf4
 531 -13 l 1xf4
 509 71 l 17
 509 71 357.027312436 -13 262 -13 c 0
 219 -13 153.724609375 -7.181640625 99 76 c 0
 74 114 44 190 44 190 c 1
 91 220 l 1
 156 125 l 2
 195.440429688 67.3564453125 237 59 265 59 c 0
 357 59 509 139 509 139 c 9
 509 353 l 1
 509 353 384.528634141 419.827148438 271.744140625 419.827148438 c 0
 227.48046875 419.827148438 198.783203125 377.7890625 198.783203125 339.306640625 c 0
 198.783203125 282 323.036132812 175.6015625 323.036132812 175.6015625 c 1
 294.036132812 129.6015625 l 1
 294.036132812 129.6015625 210 193 176.036132812 229.6015625 c 0
 145.810314912 262.174772048 130.391601562 305.629882812 130.391601562 347.033203125 c 0
 130.391601562 386.733398438 144.666015625 424.63671875 174.036132812 449.6015625 c 0
 209.5390625 479.779296875 249.944335938 490 288 490 c 0
 362.504748138 490 509 426 509 426 c 25
 509 575 l 1xf8
 -9 575 l 1
 -9 636 l 1
 660 636 l 1
 660 575 l 1
 576 575 l 1
 576 -13 l 17xf4
EndSplineSet
EndChar

StartChar: NameMe.65660
Encoding: 312 -1 245
Width: 735
VWidth: 0
Flags: HW
HStem: -42 72<204.615 394.531> 549.054 69.6719<281.6 421.518> 575 61<658 746>
VStem: 591 67<111 384 455 575> 611 47<-42 -15.2727>
LayerCount: 2
Back
Fore
SplineSet
493.114257812 470.637695312 m 1xc0
 493.114257812 470.637695312 458.282226562 500.018554688 436.114257812 517 c 0
 406.256835938 539.872070312 382.134765625 549.053710938 350.592773438 549.053710938 c 0
 323.19921875 549.053710938 304.899706994 540.975711981 291 533 c 0
 267.20792768 519.348006016 201.114257812 474.833007812 201.114257812 474.833007812 c 1
 301.114257812 313 l 1
 493.114257812 470.637695312 l 1xc0
590.322265625 384 m 1
 538 431 l 25
 312.114257812 240 l 1
 267.114257812 247 l 1
 150.114257812 442 l 1
 89.1142578125 400 l 1
 58.1142578125 440 l 1
 58.1142578125 440 171.114257812 539 251.114257812 585 c 0
 281.829101562 602.661132812 313.34375 618.725585938 342 618.725585938 c 0xc8
 377.7265625 618.725585938 409.156695118 609.359313897 432 595 c 0
 507.686773914 547.423252673 591 455 591 455 c 9
 591 617 l 5
 583 702 l 5
 619 702 l 1
 645 636 l 9
 746 636 l 17
 746 575 l 1
 658 575 l 17
 658 -42 l 1
 611 -42 l 1xa8
 589 42 l 17
 589 42 362.158067451 -42 268 -42 c 0
 225 -42 159.724609375 -36.181640625 105 47 c 0
 80 85 50 161 50 161 c 1
 97 191 l 1
 162 96 l 2
 201.440429688 38.3564453125 243 30 271 30 c 0
 364 30 591 111 591 111 c 1
 590.322265625 384 l 1
EndSplineSet
EndChar

StartChar: NameMe.65661
Encoding: 313 -1 246
Width: 900
VWidth: 0
Flags: HW
HStem: -165 72<223.42 396.711> 432 61<599 763.115> 575 61<-14 144 179 915>
VStem: 343 81<379.507 431.383> 533 66<-13 9.84032 75 432> 552 47<-165 -137.318> 781 70<321.78 414.661>
LayerCount: 2
Back
Fore
SplineSet
599 -165 m 1
 552 -165 l 1xf6
 530 -78 l 17
 530 -78 382.545724846 -165 287 -165 c 0
 244 -165 179 -159 124 -76 c 0
 99 -38 69 38 69 38 c 1
 116 68 l 1
 181 -27 l 2
 220 -85 262 -93 290 -93 c 0
 380.99806959 -93 531 -13 531 -13 c 1
 531 0 l 1
 166 197 l 1
 165 272 l 1
 165 272 343 386 343 409 c 0
 343 416 338.133789062 421.205078125 329 427 c 0
 289.639648438 451.97265625 133 543 133 543 c 9
 144 575 l 1
 -14 575 l 1
 -14 636 l 1
 915 636 l 1
 915 575 l 25
 179 575 l 1
 179 575 297.476764722 522.757527721 367 481 c 0
 401.990318346 459.983872335 424 440 424 415 c 0
 424 356 233 238 233 238 c 1
 533 75 l 25
 533 493 l 25
 741 493 l 18
 793 493 851 443 851 370 c 0
 851 348 846 325 834 300 c 0
 812 256 786 222 751 186 c 1
 699 212 l 2
 700 213 768 329 768 329 c 2
 777 344 781 358 781 371 c 0
 781 407 750 432 704 432 c 2
 599 432 l 17
 599 -165 l 1
EndSplineSet
EndChar

StartChar: NameMe.65662
Encoding: 314 -1 247
Width: 665
VWidth: 0
Flags: HW
HStem: -165 72<205.615 378.711> 575 61<-14 516 582 678>
VStem: 516 65<-13 14.5422 82 459 532 575> 534 47<-165 -137.318>
LayerCount: 2
Back
Fore
SplineSet
516 0 m 1xe0
 138 281 l 1
 138 362 l 1
 516 532 l 25
 516 575 l 1
 -14 575 l 17
 -14 636 l 1
 678 636 l 1
 678 575 l 9
 582 575 l 17
 581 0 l 9xe0
 581 -165 l 1
 534 -165 l 1xd0
 512 -78 l 21
 512 -78 364.193740978 -165 269 -165 c 4
 226 -165 160.724609375 -159.181640625 106 -76 c 0
 81 -38 51 38 51 38 c 5
 98 68 l 1
 163 -27 l 2
 202.440429688 -84.6435546875 244 -93 272 -93 c 0
 362.927896767 -93 516 -13 516 -13 c 5
 516 0 l 1xe0
516 82 m 25
 516 459 l 25
 209 316 l 25
 516 82 l 25
EndSplineSet
EndChar

StartChar: NameMe.65663
Encoding: 315 -1 248
Width: 700
VWidth: 0
Flags: HW
HStem: 0 72<206.615 391.076> 286 68<241.552 439.472> 340 85<482.14 539.964> 456 60.0977<241.122 370> 575 61<-10 710>
VStem: 175 65<356.449 454.844> 562 69<152 318.688> 584 47<0 26.7273>
LayerCount: 2
Back
Fore
SplineSet
710 574 m 1x9c
 -10 575 l 1
 -10 636 l 1
 710 636 l 1
 710 574 l 1x9c
631 280 m 0xbe
 631 0 l 1
 584 0 l 1xbd
 562 84 l 17
 562 84 364.448003365 0 270 0 c 0
 227 0 161.724609375 5.818359375 107 89 c 0
 82 127 52 203 52 203 c 1
 99 233 l 1
 164 138 l 2
 203.440429688 80.3564453125 245.000022452 72.0354585588 273 72 c 0
 363.101142215 71.8858978854 562 152 562 152 c 9
 562 277 l 1
 562 295 529 340 517 340 c 0
 506.37416101 340 443.527957042 286 416 286 c 0
 347 286 303 286 261 286 c 0
 230 286 175 304 175 359 c 0
 175 388 175 398 175 428 c 0
 175 464 185 492 200 504 c 0
 211.946289062 513.134765625 236.236328125 516.09765625 262.72265625 516.09765625 c 0
 318 516.09765625 375 506 375 506 c 1
 370 456 l 17
 370 456 293.551987899 456 257 456 c 0
 240 456 240 430 240 414 c 0
 240 401 241 393 241 377 c 0
 241 363 255 354 271 354 c 0
 296 354 338 354 394 354 c 0xde
 423.324485156 354 502.469979103 425 520 425 c 0
 558 425 631 318 631 280 c 0xbe
EndSplineSet
EndChar

StartChar: NameMe.65664
Encoding: 316 -1 249
Width: 650
VWidth: 0
Flags: HW
HStem: 0 72<229.42 403.639> 315 70<438.753 516.506> 421 69<208.765 262.349> 575 61<8 214 289 482 544 712>
VStem: 127 65<331.99 407.748> 281.834 67.166<478.314 530.166> 540 69<152 335 408.469 503.418> 562 47<0 26.7273>
LayerCount: 2
Back
Fore
SplineSet
317 459 m 1xfc
 317 459 454 385 468 385 c 0
 481 385 521 425 521 451 c 0
 521 491.387695312 462 575 462 575 c 1
 269 575 l 1
 269 575 328 529 329 510 c 0
 329.735351562 496.01953125 317 459 317 459 c 1xfc
520.045898438 335 m 1
 520.045898438 335 499 315 486 315 c 0
 455 315 279.431640625 396.186523438 229 418 c 0
 223.1953125 420.510742188 218 421 214 421 c 0
 203 421 198 415 185 394 c 0
 175 377 172 369 172 362 c 0
 172 354 177.247070312 347.27734375 184 341 c 0
 212.09375 314.885742188 229 301 229 301 c 1
 205 261 l 1
 205 261 159.932617188 283.010742188 143 296 c 0
 122.051757812 312.068359375 107 336 107 357 c 0
 107 380 112 398 129 426 c 0
 161 479 175 490 202 490 c 0
 218 490 256 478 256 478 c 1
 256 478 261.833984375 494.819335938 261.833984375 500.767578125 c 0
 261.833984375 504.564453125 260.796875 507.543945312 259 510 c 0
 248.069335938 524.943359375 194 575 194 575 c 1
 -12 575 l 17
 -12 636 l 1
 662 636 l 1
 662 575 l 9
 528 575 l 1
 528 575 589 488 589 451 c 9xfe
 589 0 l 1
 542 0 l 1xfd
 520 84 l 1
 520 84 368.02734375 0 273 0 c 0
 230 0 165 6 110 89 c 0
 85 127 55 203 55 203 c 1
 102 233 l 1
 167 138 l 2
 206 80 248 72 276 72 c 0
 368 72 520 152 520 152 c 9xfe
 520.045898438 335 l 1
EndSplineSet
EndChar

StartChar: NameMe.65665
Encoding: 317 -1 250
Width: 700
VWidth: 0
Flags: HW
HStem: -167 72<235.615 409.639> 575 61<-13 155 187 550 616 712>
VStem: 344.049 88.168<380.118 431.281> 550 65<-15 9.8843 82 575> 568 47<-167 -140.273>
LayerCount: 2
Back
Fore
SplineSet
187 575 m 1xf0
 187 575 298.362529816 523.080968294 368 481 c 0
 404.288093073 459.071602975 432.216796875 438.158203125 432.216796875 414.08984375 c 0
 432.216796875 367.799804688 243 242 243 242 c 1
 550 82 l 25
 550 575 l 25
 187 575 l 1xf0
550 0 m 1
 167 197 l 1
 166 272 l 1
 166 272 344.048828125 386.241210938 344.048828125 408.984375 c 0
 344.048828125 426 142 545 142 545 c 9
 155 575 l 25
 -13 575 l 1
 -13 636 l 5
 712 636 l 5
 712 575 l 9
 616 575 l 17
 615 -167 l 1
 568 -167 l 1xe8
 546 -83 l 17
 546 -83 394.027312436 -167 299 -167 c 0
 256 -167 190.724609375 -161.181640625 136 -78 c 0
 111 -40 98 -12 81 36 c 1
 128 66 l 1
 193 -29 l 2
 232.440429688 -86.6435546875 274.000016324 -94.9697654762 302 -95 c 0
 392.15467308 -95.0973494713 550 -15 550 -15 c 9
 550 0 l 1
EndSplineSet
EndChar

StartChar: NameMe.65666
Encoding: 318 -1 251
Width: 665
VWidth: 0
Flags: HW
HStem: -167 72<209.615 381.867> -0.433594 97.9033<245.673 341> 575 61<-10 524 590 672>
VStem: 245.673 95.3271<-0.433594 97.4697> 524 65<-13 14.5485 82 459 532 575> 542 47<-167 -140.273>
LayerCount: 2
Back
Fore
SplineSet
245.672851562 19.318359375 m 2xf0
 245.672851562 76 l 2
 245.672851562 88.8818359375 252.543945312 97.4697265625 266.284179688 97.4697265625 c 2
 319.530273438 97.4697265625 l 2
 334.989257812 97.4697265625 341 89.740234375 341 76 c 2
 341 19.318359375 l 2
 341 3.8603515625 331.552734375 -0.43359375 319.530273438 -0.43359375 c 2
 266.284179688 -0.43359375 l 2
 254.26171875 -0.43359375 245.672851562 7.294921875 245.672851562 19.318359375 c 2xf0
524 82 m 25xf8
 524 459 l 25
 217 316 l 25
 524 82 l 25xf8
524 0 m 1
 146 281 l 1
 146 362 l 1
 524 532 l 25
 524 575 l 1
 -10 575 l 17
 -10 636 l 1
 672 636 l 1
 672 575 l 9
 590 575 l 17
 589 0 l 9xf8
 589 -167 l 1
 542 -167 l 1xf4
 520 -83 l 17
 520 -83 368.027312436 -167 273 -167 c 0
 230 -167 164.724609375 -161.181640625 110 -78 c 0
 85 -40 55 36 55 36 c 1
 102 66 l 1
 167 -29 l 2
 206.440429688 -86.6435546875 248 -95 276 -95 c 0
 370 -95 524 -13 524 -13 c 9
 524 0 l 1
EndSplineSet
EndChar

StartChar: NameMe.65667
Encoding: 319 -1 252
Width: 700
VWidth: 0
Flags: HW
HStem: -68 72<217.615 399.061> 426 67<207.219 325.224 426.523 546.807> 575 61<-10 562 629 710>
VStem: 122 65<299.385 406.122> 167 46<216.87 249.792> 347 47<292 324.455> 562 67<84 411.076 477 574> 582 47<-68 -41.2727>
LayerCount: 2
Back
Fore
SplineSet
562 338 m 2
 562 387 552 426 494 426 c 2
 491 426 l 2
 433 426 420.182617188 413.391601562 405 343 c 2
 394 292 l 1
 347 291 l 1
 344 342 l 2
 340.224609375 406.189453125 314 427 278 427 c 2
 261 427 l 2
 218 427 187 397 187 351 c 0xf6
 187 314.730536945 213 219 213 219 c 1
 167 205 l 1xec
 167 205 122 277.280840528 122 365 c 0
 122 452 188 497 258 497 c 2
 279 498 l 2
 338 498 364 483 376 442 c 1
 398 485 434 493 495 493 c 2
 499 493 l 2
 525.384332911 493 562 477 562 477 c 13
 562 575 l 1xf6
 -10 575 l 1
 -10 636 l 1
 710 636 l 1
 710 575 l 1
 629 575 l 1xe5
 629 -68 l 1
 582 -68 l 1xe5
 560 16 l 1
 560 16 375.598699952 -68 281 -68 c 0
 238 -68 172.724609375 -62.181640625 118 21 c 0
 93 59 63 135 63 135 c 1
 110 165 l 1
 175 70 l 2
 214.440429688 12.3564453125 256 4 284 4 c 0
 380 4 562 84 562 84 c 9
 562 338 l 2
EndSplineSet
EndChar

StartChar: NameMe.65668
Encoding: 320 -1 253
Width: 660
VWidth: 0
Flags: HW
HStem: -74 72<186.615 360.639> 264 66.751<47 194.45 293.794 413.674> 526 69<25.3355 200.982 294.308 486.52> 575 61<566 670>
VStem: 211 71<348.986 511.392> 497 69<78 509.715 572 575 636 661.773> 519 47<-74 -47.2727 691.227 717>
LayerCount: 2
Back
Fore
SplineSet
497 489 m 0
 497 519 410 521 359 521 c 0
 304.770783589 521 282 507 282 459 c 2
 282 384 l 2
 283 355 296 331 322 331 c 0
 355 331 412 333 412 333 c 1
 421 278 l 1
 421 278 357 264 317 264 c 0
 273.115198592 264 249 301 249 301 c 1
 249 301 216 264 164 264 c 0
 129 264 40 274 40 274 c 1
 47 334 l 1
 47 334 123.690429688 330 156 330 c 0
 188 330 211 358 211 384 c 2
 211 469 l 2
 211 513 179 526 153 526 c 0
 118 526 9 511 9 511 c 1
 0 567 l 1
 0 567 115 595 167 595 c 0xec
 207 595 233 588 257 558 c 1
 277 588 309 590 352 590 c 0
 388 590 468 587 497 572 c 1
 497 636 l 9xdc
 519 717 l 1
 566 717 l 1xda
 566 636 l 25
 670 636 l 17
 670 575 l 1
 566 575 l 17
 566 -74 l 1
 519 -74 l 1xda
 497 10 l 1
 497 10 345.027312436 -74 250 -74 c 0
 207 -74 141.724609375 -68.181640625 87 15 c 0
 62 53 32 129 32 129 c 1
 79 159 l 1
 144 64 l 2
 183.440429688 6.3564453125 225 -2 253 -2 c 0
 343 -2 497 78 497 78 c 1
 497 78 497 462 497 489 c 0
EndSplineSet
EndChar

StartChar: NameMe.65669
Encoding: 321 -1 254
Width: 675
VWidth: 0
Flags: HW
HStem: -167 72<227.615 401.639> 335 64<445.25 542> 575 61<-10 170 199 542 608 689>
VStem: 542 65<-15 9.87791 70 335 399 575> 560 47<-167 -140.273>
LayerCount: 2
Back
Fore
SplineSet
542 0 m 1xf0
 154 196 l 1
 153 271 l 1
 153 271 324 374 324 394 c 0
 324 406 318.881265552 413.835824349 305 424 c 0
 281.508581572 441.200946289 153 544 153 544 c 9
 170 575 l 25
 -10 575 l 1
 -10 636 l 1
 689 636 l 1
 689 575 l 9
 607 575 l 21
 607 -167 l 1
 560 -167 l 1xe8
 538 -83 l 17
 538 -83 386.027312436 -167 291 -167 c 0
 248 -167 182.724609375 -161.181640625 128 -78 c 0
 103 -40 73 36 73 36 c 1
 120 66 l 1
 185 -29 l 2
 224.440429688 -86.6435546875 266 -95 294 -95 c 4
 391 -95 542 -15 542 -15 c 9
 542 0 l 1xf0
199 575 m 17
 199 575 312.156682492 492.889552971 365 461 c 0
 389.961664451 445.936291696 469 399 542 399 c 9
 542 575 l 25
 199 575 l 17
542 335 m 17
 464.237988619 335.009308965 407 363 407 363 c 1
 218 238 l 1
 542 70 l 25
 542 335 l 17
EndSplineSet
EndChar

StartChar: NameMe.65670
Encoding: 322 -1 255
Width: 710
VWidth: 0
Flags: HW
HStem: 0 72<222.615 400.582> 324 75<126.545 208.755 475.576 549.262> 575 61<-10 288 352.787 554 617 718>
VStem: 550 69<152 324> 572 47<0 26.7273> 578 75<424.281 539.057>
LayerCount: 2
Back
Fore
SplineSet
324 484 m 1xe4
 324 484 509.654049557 399 526 399 c 0
 542 399 578 445 578 465 c 0
 578 498 554 575 554 575 c 1
 362 575 l 1
 324 484 l 1xe4
550 324 m 0xf0
 506 324 296 425 296 425 c 1
 296 425 243 324 194 324 c 0
 151 324 49 383 49 383 c 1
 68 431 l 1
 68 431 146.920004424 399 182 399 c 0
 212 399 288 575 288 575 c 1
 -10 575 l 17
 -10 636 l 1
 718 636 l 1
 718 575 l 9
 617 575 l 1
 617 575 653 500 653 463 c 0xe4
 653 440.612703315 619 391 619 391 c 9
 619 0 l 1
 572 0 l 1xe8
 550 84 l 1
 550 84 380.789621471 0 286 0 c 0
 243 0 177.724609375 5.818359375 123 89 c 0
 98 127 68 203 68 203 c 1
 115 233 l 1
 180 138 l 2
 219.440429688 80.3564453125 261 72 289 72 c 0
 380.04847523 72 550 152 550 152 c 9
 550 324 l 0xf0
EndSplineSet
EndChar

StartChar: NameMe.65671
Encoding: 323 -1 256
Width: 675
VWidth: 0
Flags: HW
HStem: -162 72<172.509 322.567> 443 72<192.128 503.041> 575 61<-12 687>
VStem: 453 47<-162 -134.667> 527 65<303.208 423.284>
LayerCount: 2
Back
Fore
SplineSet
687 575 m 25
 -12 575 l 1
 -12 636 l 1
 687 636 l 1
 687 575 l 25
431 -2 m 1
 431 -2 275.47202862 70.7160205305 192 128 c 9
 200 198 l 1
 200 198 527 250 527 342 c 0
 527 439 489 443 419 443 c 0
 345.447543284 443 192 443 192 443 c 1
 184 496 l 1
 184 496 314.589306472 514.961529291 409 515 c 0
 581.553159914 515 592 426.578815596 592 319 c 0
 592 211 307 147 307 147 c 1
 590 -18 l 9
 565 -65 l 1
 500 -34 l 25
 500 -162 l 1
 453 -162 l 1
 432 -80 l 17
 432 -80 309.947349522 -162 241 -162 c 0
 198 -162 131 -154 91 -79 c 0
 71 -42 56 3 56 3 c 1
 97 30 l 1
 138 -30 l 2
 177 -88 211 -90 239 -90 c 0
 289.6177507 -90 431 -22 431 -22 c 1
 431 -2 l 1
EndSplineSet
EndChar

StartChar: NameMe.65672
Encoding: 324 -1 257
Width: 750
VWidth: 0
Flags: HW
HStem: -200 72<293.42 467.639> -88 98<338 433> 44 77<351.837 455.977> 378 70<396.16 609.751> 575 61<-8 331 396 760>
VStem: 331 65<432 575> 338 95<-88 10> 604 69<-48 182> 620 69<275.219 366.171>
LayerCount: 2
Back
Fore
SplineSet
338 -68 m 2xfa
 338 -11 l 2
 338 2 345 10 358 10 c 2
 412 10 l 2
 427 10 433 2 433 -11 c 2
 433 -68 l 2
 433 -83 424 -88 412 -88 c 2
 358 -88 l 2
 346 -88 338 -80 338 -68 c 2xfa
604 182 m 1xf9
 604 182 538.782214457 117.804176391 502 85 c 0
 471.878221665 58.1359260365 442 44 410 44 c 0
 367 44 312.41593352 66.9859262713 251 141 c 0
 134 282 80 442 80 442 c 1
 127 460 l 1
 127 460 230 269 300 194 c 0
 340 150 369 121 403 121 c 0
 421 121 440 129 463 148 c 0
 567.307177824 237.095714391 620 279.215387742 620 329 c 0
 620 364 595 378 550 378 c 0
 503.34844399 378 334 362 334 362 c 13
 334 575 l 29
 -8 575 l 1
 -8 636 l 1
 760 636 l 1
 760 575 l 25
 396 575 l 25
 396 432 l 1
 396 432 496.250289439 448 556 448 c 0
 646 448 689 386 689 326 c 0xfc80
 689 295.874006572 673 266 673 266 c 9
 673 -200 l 1
 626 -200 l 1
 604 -116 l 17
 604 -116 451.626721815 -200 357 -200 c 0
 314 -200 249 -194 194 -111 c 0
 169 -73 139 3 139 3 c 1
 186 33 l 1
 251 -62 l 2
 290 -120 332 -128 360 -128 c 0
 451.096153948 -128 604 -48 604 -48 c 1
 604 182 l 1xf9
EndSplineSet
EndChar

StartChar: NameMe.65673
Encoding: 325 -1 258
Width: 750
VWidth: 0
Flags: HW
HStem: -200 98<290 385> -68 72<294.42 468.639> 78 77<350.309 456.984> 403 70<397.16 610.751> 575 61<-12 332 397 761>
VStem: 290 95<-200 -102> 332 65<457 575> 605 69<84 207> 621 69<300.751 391.171>
LayerCount: 2
Back
Fore
SplineSet
290 -180 m 2xfc
 290 -123 l 2
 290 -110 297 -102 310 -102 c 2
 364 -102 l 2
 379 -102 385 -110 385 -123 c 2
 385 -180 l 2
 385 -195 376 -200 364 -200 c 2
 310 -200 l 2
 298 -200 290 -192 290 -180 c 2xfc
605 207 m 1xf9
 605 207 539.998327301 148.997139703 503 119 c 0
 471.571948755 93.5190738992 443 78 411 78 c 0
 368 78 308.395523585 99.08581934 250 175 c 0
 140 318 83 462 83 462 c 1
 128 485 l 1
 128 485 241 303 301 228 c 0
 338 181 370 155 404 155 c 0
 422 155 441 164 464 182 c 0
 568.400900498 264.650712894 621 305.225123551 621 354 c 0
 621 389 596 403 551 403 c 0
 504.855279599 403 332 387 332 387 c 9
 332 575 l 25
 -12 575 l 1
 -12 636 l 1
 761 636 l 1
 761 575 l 25
 397 575 l 25
 397 457 l 1
 397 457 497.266676479 473 557 473 c 0
 645 473 690 411 690 351 c 0xfa80
 690 313.874006572 674 291 674 291 c 1
 674 -68 l 1
 627 -68 l 1
 605 16 l 17
 605 16 453.027312436 -68 358 -68 c 0
 315 -68 250 -62 195 21 c 0
 170 59 157 87 140 135 c 1
 187 165 l 1
 252 70 l 2
 291 12 333 4 361 4 c 0
 432 4 605 84 605 84 c 9
 605 207 l 1xf9
EndSplineSet
EndChar

StartChar: NameMe.65674
Encoding: 326 -1 259
Width: 725
VWidth: 0
Flags: HW
HStem: -201 72<215.42 389.639> -92 98<268 363> 35 71<284.774 396.364> 372 66<390 578.897> 372 58<390 526.344> 575 61<-10 201 268 734>
VStem: 201 67<121.608 574> 268 95<-92 6> 526 69<-49 137> 548 47<-201 -174.273> 589 72<276.416 359.635>
LayerCount: 2
Back
Fore
SplineSet
-10 636 m 9xf680
 734 636 l 17
 734 575 l 1
 268 575 l 17xf5
 268 201 l 1
 268 141 284 106 333 106 c 0
 388 106 494 185 558 264 c 0
 580 291 589 312 589 327 c 0
 589 367 546 372 488 372 c 0
 456.303266076 372 390 372 390 372 c 1xf620
 384 430 l 1xee20
 384 430 493 438 528 438 c 0
 617.323421401 438 661 397.557271089 661 332 c 0xf620
 661 306 650.143260778 280.157173751 637 257 c 0
 616 220 595 191 595 191 c 9
 595 -200 l 1
 548 -200 l 1xf440
 526 -116 l 1
 526 -116 374.02734375 -200 279 -200 c 0
 236 -200 171 -195 116 -112 c 0
 91 -74 61 2 61 2 c 1
 108 32 l 1
 173 -63 l 2
 212 -121 254 -129 282 -129 c 0
 373.072450095 -129 526 -49 526 -49 c 1
 526 137 l 1
 526 137 418 35 329 35 c 0
 264 35 201 72 201 194 c 2
 201 575 l 1
 -10 575 l 1
 -10 636 l 9xf680
268 -72 m 2
 268 -15 l 2
 268 -2 275 6 288 6 c 2
 342 6 l 2
 357 6 363 -2 363 -15 c 2
 363 -72 l 2
 363 -87 354 -92 342 -92 c 2
 288 -92 l 2
 276 -92 268 -84 268 -72 c 2
EndSplineSet
EndChar

StartChar: NameMe.65675
Encoding: 327 -1 260
Width: 700
VWidth: 0
Flags: HW
HStem: -166.672 72<238.615 412.639> -34 97<258 353> 575.328 61<-10 158 190 553 619 712>
VStem: 258 95<-34 63> 347.049 88.168<380.446 431.609> 553 65<-14.6719 10.2124 82.3281 575.328> 571 47<-166.672 -139.945>
LayerCount: 2
Back
Fore
SplineSet
190 575.328125 m 1xec
 190 575.328125 301.624688349 523.233948077 371 481.328125 c 0
 407.291965679 459.406137816 435.216796875 438.486328125 435.216796875 414.41796875 c 0
 435.216796875 368.127929688 246 242.328125 246 242.328125 c 1
 553 82.328125 l 25
 553 575.328125 l 25
 190 575.328125 l 1xec
553 0.328125 m 1
 170 197.328125 l 1
 169 272.328125 l 1
 169 272.328125 347.048828125 386.569335938 347.048828125 409.3125 c 0
 347.048828125 426.613245339 145 545.328125 145 545.328125 c 9
 158 575.328125 l 25
 -10 575.328125 l 1
 -10 636.328125 l 1
 712 636.328125 l 1
 712 575.328125 l 9
 618 575.328125 l 17
 618 -166.671875 l 1
 571 -166.671875 l 1xe2
 549 -82.671875 l 1
 549 -82.671875 385 -166.671875 302 -166.671875 c 0
 259 -166.671875 193.724609375 -160.853515625 139 -77.671875 c 0
 114 -39.671875 84 36.328125 84 36.328125 c 1
 131 66.328125 l 1
 196 -28.671875 l 2
 235.440429688 -86.3154296875 277.00003961 -94.6247779445 305 -94.671875 c 0
 395.257499085 -94.8236917305 553 -14.671875 553 -14.671875 c 9
 553 0.328125 l 1
258 -15 m 2xf0
 258 42 l 2
 258 55 265 63 278 63 c 2
 332 63 l 2
 347 63 353 56 353 42 c 2
 353 -15 l 2
 353 -30 344 -34 332 -34 c 2
 278 -34 l 2
 266 -34 258 -27 258 -15 c 2xf0
EndSplineSet
EndChar

StartChar: NameMe.65676
Encoding: 328 -1 261
Width: 983
VWidth: 0
Flags: HW
HStem: -118 72<273.42 445.741> 256 73<297.014 372.74> 377 61<529.149 628 694 849.115> 456 70<175.041 249.772> 575 61<10 263 326 473 525 628 694 1014>
VStem: 99 67<380.571 452.385> 206 72<163.093 238.238> 288 66<497.257 564.886> 378.586 72.4984<319.73 382.849> 466.701 58.2991<439.431 575> 628 66<37 164.01 221 377 438 575> 646 47<-118 -91.2727> 867 70<267.916 359.661>
LayerCount: 2
Back
Fore
SplineSet
608 438 m 25xffe8
 608 575 l 25
 505 575 l 17
 505 575 505 553.626953125 505 543 c 0
 505 520 506 495 508 466 c 0
 509 444 523 438 536 438 c 1
 608 438 l 25xffe8
608 377 m 1
 549 377 481 377 456 423 c 0
 448.921875 436.412109375 446.701171875 460.926757812 446.701171875 486.411132812 c 0
 446.701171875 534 453 575 453 575 c 9
 306 575 l 17
 306 575 334 526 334 518 c 0
 334 508 307 471 307 471 c 1
 307 471 389.541992188 425.791992188 415 404 c 0
 423.626953125 396.616210938 431.084960938 388.022460938 431.084960938 377.0234375 c 0
 431.084960938 348.104492188 414 300 414 300 c 1
 608 221 l 25
 608 377 l 1
608 158 m 1
 608 158 347.0546875 256 304 256 c 0
 293 256 286 249 273 228 c 0
 263 211 258 201 258 194 c 0
 258 186 261.140625 179.161132812 268 173 c 0
 306.708007812 138.231445312 368 88 368 88 c 1
 339 49 l 1
 339 49 267.873046875 81.08203125 221 126 c 0
 202.103515625 144.108398438 186 169 186 191 c 0
 186 214 191 222 214 261 c 0
 246 315 267 329 294 329 c 0
 311 329 348 319 348 319 c 1
 348 319 358.5859375 344.3984375 358.5859375 357.35546875 c 0
 358.5859375 365.764648438 355.659179688 373.276367188 347 378 c 0
 329.557617188 387.1796875 211.501953125 456 177 456 c 0
 169 456 164 451 156 436 c 0
 149 423 146 418 146 410 c 0
 146 404 147.81640625 398.809570312 153 394 c 0
 179.168945312 369.720703125 194 356 194 356 c 1
 171 317 l 1
 171 317 117.725585938 348.15625 106 359 c 0
 92.4619140625 371.51953125 79 383 79 402 c 0
 79 419 89 439 106 467 c 0
 128 506 136 526 165 526 c 0
 192 526 246 497 246 497 c 1
 246 497 268 520 268 531 c 0
 268 540 243 575 243 575 c 1
 -10 575 l 1
 -10 636 l 1
 994 636 l 1
 994 575 l 25
 674 575 l 1
 674 438 l 25
 807 438 l 2
 859 438 917 388 917 315 c 0
 917 293 912 270 900 245 c 0
 878 201 817 143 817 143 c 1
 765 169 l 17
 765 169 834 274 834 274 c 2
 843 289 847 303 847 316 c 0
 847 352 816 377 770 377 c 2
 674 377 l 17xffe8
 674 -118 l 1
 626 -118 l 1xffd8
 604 -34 l 17
 604 -34 391.975585938 -118 317 -118 c 0
 274 -118 209 -112 154 -29 c 0
 129 9 99 85 99 85 c 1
 146 115 l 1
 211 20 l 2
 250 -38 292 -46 320 -46 c 0
 388.268554688 -46 608 37 608 37 c 1
 608 158 l 1
EndSplineSet
EndChar

StartChar: NameMe.65677
Encoding: 329 -1 262
Width: 975
VWidth: 0
Flags: HW
HStem: -125 72<298.42 489.11> 25 75<362.807 470.312> 103 66<728.032 834.938> 275 60<756 834.639> 291 66<409.073 575.692> 438 78<747.416 835.064> 575 62<-10 390 453 986>
VStem: 609 71<225.994 287.502> 659 69<27 108> 681 47<-125 -98.2727> 839 71<175.018 269.459 340.875 434.708>
LayerCount: 2
Back
Fore
SplineSet
624 347 m 1xf720
 624 347 680 330 680 265 c 0
 680 228.017166329 622 170 622 170 c 1
 622 170 739.13601851 169 798 169 c 0
 828 169 839 182 839 214 c 2
 839 226 l 2
 839 264 823 275 786 275 c 2
 756 275 l 17
 756 335 l 1
 786 335 l 2
 823 335 839 346 839 384 c 2
 839 391 l 2
 839 424 829 438 797 438 c 0
 767.227539062 438 624 347 624 347 c 1xf720
572 355 m 1xee20
 437 483 l 1
 409 347 l 1
 409 347 505.426757812 354.038085938 572 355 c 1xee20
659 114 m 1xeea0
 586 129 l 1
 586 129 537.349165894 85.6825091142 514 65 c 0
 484.844602964 39.1743766068 452 25 421 25 c 0
 377 25 325.400376263 54.4305282984 258 126 c 0
 161 229 87 427 87 427 c 1
 134 448 l 1
 134 448 247.38342899 254.305142328 307 179 c 0
 345 131 380 100 417 100 c 0
 435 100 454 108 476 126 c 0
 521.570812249 163.469334516 609 229.865041947 609 266 c 0xef20
 609 284 587 291 560 291 c 0
 531 291 340 291 340 291 c 9
 390 575 l 25
 -10 575 l 1
 -10 637 l 1
 986 637 l 1
 986 575 l 25
 453 575 l 25
 449 555 l 1
 611 402 l 1
 611 402 747 516 809 516 c 0
 873 516 911 503 911 399 c 2
 911 394 l 2
 911 361.067219774 907 314 866 308 c 1
 907 301 910 254 910 221 c 2
 910 215 l 2
 910 106 849 103 784 103 c 0
 770.535146738 103 728 108 728 108 c 9xeea0
 728 -125 l 1
 681 -125 l 1xee60
 659 -41 l 17
 659 -41 466.231173628 -125 362 -125 c 0
 319 -125 254 -119 199 -36 c 0
 174 2 144 78 144 78 c 1
 191 108 l 1
 256 13 l 2
 295 -45 337 -53 365 -53 c 0
 459 -53 659 27 659 27 c 9
 659 114 l 1xeea0
EndSplineSet
EndChar

StartChar: bnYAc2
Encoding: 330 -1 263
Width: 235
VWidth: 0
Flags: HW
HStem: 575 61<-14 99 165 246>
VStem: 41.1172 67.3458<380.6 504.114> 124.255 69.4916<121.057 257.367>
LayerCount: 2
Back
Fore
SplineSet
99 575 m 9
 -14 575 l 1
 -14 636 l 1
 246 636 l 1
 246 575 l 1
 165 575 l 17
 165 575 148.988461342 541.943109064 131 506 c 0
 120.923676681 485.866294224 108.462985573 466.324889016 108.462985573 444.599443332 c 0
 108.462985573 352.002492273 193.74702668 269.242322667 193.74702668 183.026903797 c 0
 193.74702668 142.577476594 173.228459498 91.3278665922 130 49 c 0
 112 31 55 -14 55 -14 c 1
 25 22 l 1
 82 92 l 2
 101.794914524 116.50798941 124.255398034 149.01268578 124.255398034 179.46366811 c 0
 124.255398034 247.069750803 41.1171858225 368.387978741 41.1171858225 439.998481556 c 0
 41.1171858225 468.766689304 54.1649651401 496.151750022 69 524 c 0
 85.2946983942 554.588322743 99 575 99 575 c 9
EndSplineSet
EndChar

StartChar: NameMe.65679
Encoding: 331 -1 264
Width: 695
VWidth: 0
Flags: HW
HStem: 575 61<12 336 401 671>
VStem: 336 66<1.48633 207.486 278.096 467 542 574> 578.146 71.5596<332.102 420.17>
LayerCount: 2
Back
Fore
SplineSet
278 256 m 25
 336 278.095703125 l 1
 336 469 l 25
 128 380 l 1
 278 256 l 25
207 229.216796875 m 1
 60 348 l 1
 60 429 l 1
 336 542 l 25
 336 574 l 1
 -12 575 l 1
 -12 636 l 1
 704 636 l 1
 704 575 l 1
 401 575 l 25
 402 538 l 1
 550 500 l 2
 596.287109375 486.239257812 649.705078125 445.88671875 649.705078125 380.375976562 c 0
 649.705078125 359.4765625 646.153320312 334.643554688 631 309 c 0
 605 265 591 252 561 217 c 1
 508 242 l 17
 508 242 564.999718409 338.999147381 565 339 c 2
 573.833984375 354.033203125 578.145507812 367.150390625 578.145507812 378.802734375 c 0
 578.145507812 411.979492188 549.6953125 432.6875 501 444 c 2
 402 467 l 1
 400.9921875 -75.513671875 l 1
 335.294921875 -75.513671875 l 1
 86.294921875 98.486328125 l 1
 86.294921875 179.486328125 l 1
 207 229.216796875 l 1
335.294921875 207.486328125 m 25
 151.294921875 133.486328125 l 25
 335.294921875 1.486328125 l 25
 335.294921875 207.486328125 l 25
EndSplineSet
EndChar

StartChar: NameMe.65681
Encoding: 333 -1 266
Width: 572
VWidth: 0
Flags: HW
HStem: 502 62<376.69 411.617> 547.388 73.3906<128.695 292.44> 575 61<479 582>
VStem: 31.8506 85.9395<465.178 532.477> 202 71.0049<296.051 368.915> 413 66<-54 152 226 502 564 575>
LayerCount: 2
Back
Fore
SplineSet
433 502 m 25
 247 537 l 0
 224.241210938 542.090820312 194.002929688 548 180 548 c 0
 165 548 135.790039062 500 135.790039062 483.06640625 c 0
 135.790039062 462.001953125 165.241210938 462.405273438 222 439 c 0
 259.768554688 423.42578125 269.461914062 412.799804688 279 388 c 0
 283.72265625 375.720703125 293.004882812 332.989257812 293.004882812 301.4453125 c 0
 293.004882812 268.518554688 126.96484375 172.76171875 126.96484375 172.76171875 c 1
 96.96484375 219.76171875 l 1
 96.96484375 219.76171875 222 302.459960938 222 324 c 0
 222 324.258789062 221.99609375 324.513671875 221.96484375 324.76171875 c 0
 219.96484375 340.76171875 214.19140625 364.484375 197 371 c 0
 135.9375 394.143554688 51.8505859375 421.694335938 51.8505859375 465.177734375 c 0
 51.8505859375 500 101.091796875 588.069335938 121 603 c 0
 138.905273438 616.428710938 156.889648438 622.778320312 191.793945312 622.778320312 c 0x5c
 212.184570312 622.778320312 231.905273438 618.083007812 246 615 c 0
 343 593 431.837890625 564 431.837890625 564 c 9
 432 617 l 1
 424 702 l 1
 460 702 l 1
 486 636 l 9
 582 636 l 17
 582 575 l 1
 499 575 l 17
 499 -131 l 1
 433 -131 l 1
 184 43 l 1
 184 124 l 1
 433 226 l 25xbc
 433 502 l 25
433 -54 m 25
 433 152 l 25
 249 78 l 25
 433 -54 l 25
EndSplineSet
EndChar

StartChar: NameMe.271
Encoding: 334 -1 267
Width: 886
VWidth: 0
Flags: HW
HStem: 24.8799 75.2969<371.951 480.021> 291 66<431.081 617.173> 575 62<-1 369 432 972>
VStem: 369 63<345 493 551.756 575> 618.099 71.1387<226.334 287.791> 734 65<-171 35> 804.237 68.2441<307.918 395.602>
LayerCount: 2
Back
Fore
SplineSet
757 86 m 9
 757 -248 l 17
 692 -248 l 1
 443 -74 l 1
 443 7 l 1
 691 109 l 17
 691 109 762.237304688 324 762.237304688 362.006835938 c 0
 762.237304688 397.352539062 722.232421875 407.93359375 680 420 c 0
 622 437 389 493 389 493 c 1
 389 345 l 1
 389 345 500.602369629 357 543 357 c 0
 609 357 647.237304688 314.080078125 647.237304688 265.31640625 c 0
 647.237304688 205.743579682 545.618329612 123.046974058 481 65 c 0
 451.8203125 38.697265625 418.823242188 24.8798828125 387.9140625 24.8798828125 c 0
 343.612304688 24.8798828125 291.680942389 53.7623124115 225 126 c 0
 141 217 54 427 54 427 c 1
 101 448 l 1
 101 448 214 254 274 179 c 0
 312.392578125 131.009765625 347.477539062 100.176757812 384.411132812 100.176757812 c 0
 402.375 100.176757812 420.5795489 109.037929982 443 126 c 0
 488.677621567 160.557155511 576.098632812 229.906535624 576.098632812 266.250976562 c 0
 576.098632812 284.484375 554.264648438 291 527 291 c 0
 498 291 326 291 326 291 c 9
 326 575 l 25
 -11 575 l 1
 -11 637 l 1
 895 637 l 1
 895 575 l 25
 390 575 l 25
 390 555 l 1
 390 555 601 518 687 491 c 0
 762.010742188 467.1328125 830.481445312 447.625976562 830.481445312 373.022460938 c 0
 830.481445312 322 757 86 757 86 c 9
692 -171 m 25
 692 35 l 25
 508 -39 l 25
 692 -171 l 25
EndSplineSet
EndChar

StartChar: NameMe.278
Encoding: 335 -1 268
Width: 585
VWidth: 0
Flags: HW
HStem: 538.592 68.2524<190.512 348.632> 575 61<551 652>
VStem: 97.3553 68.3918<406.747 513.054> 482 69<-4 202 276 474.527 540 575>
LayerCount: 2
Back
Fore
SplineSet
501 -81 m 1x70
 432 -81 l 1
 183 93 l 1
 183 174 l 1
 432 276 l 1
 432 465 l 1
 432 465 306.426757812 538.591796875 192.3359375 538.591796875 c 0
 146.018554688 538.591796875 116.271484375 496.927734375 115.747070312 458.264648438 c 0
 114.9453125 399.072265625 239 294 239 294 c 1
 210 248 l 1
 210 248 139.30078125 296.6953125 93 349 c 0
 63.5458984375 382.2734375 47.35546875 425.028320312 47.35546875 466.431640625 c 0
 47.35546875 506.131835938 61.6298828125 544.03515625 91 569 c 0
 125.547851562 598.365234375 169.377929688 606.84375 207.79296875 606.84375 c 0xb0
 289.974609375 606.84375 432 540 432 540 c 1
 432 636 l 25
 454 702 l 1
 501 702 l 1
 501 636 l 25
 592 636 l 21
 592 575 l 5
 501 575 l 25
 501 -81 l 1x70
432 -4 m 25
 432 202 l 25
 248 128 l 25
 432 -4 l 25
EndSplineSet
EndChar

StartChar: NameMe.279
Encoding: 336 -1 269
Width: 650
VWidth: 0
Flags: HW
HStem: 444 72<245.086 510.216> 575 61<-11 660>
VStem: 480 65<-58 148> 529 71<289.837 424.664>
LayerCount: 2
Back
Fore
SplineSet
288 143 m 17xe0
 288 143 245.178771546 158.25868642 183 220 c 0
 103.721611192 298.7206267 38 403 38 403 c 1
 79 437 l 1
 233 272 l 2
 285.63671875 215.603515625 333 191 378 191 c 0
 396 191 414.612304688 194.885742188 431 203 c 0
 460.659179688 217.685546875 500.7578125 271.102539062 517 309 c 0
 526 330 529 345 529 364 c 0
 529 425 505 444 414 444 c 0
 365 444 245 444 245 444 c 1
 237 497 l 1
 237 497 352 516 431 516 c 0
 564.163376386 516 600 444.190573711 600 362 c 0xd0
 599 339 594.832096798 319.060113716 587 297 c 0
 575.928940733 265.816929526 545 213 545 213 c 1
 545 -135 l 1
 480 -135 l 1
 231 39 l 1
 231 120 l 1
 288 143 l 17xe0
660 575 m 1
 -11 575 l 1
 -11 636 l 1
 660 636 l 1
 660 575 l 1
480 -58 m 25xe0
 480 148 l 25
 296 74 l 25
 480 -58 l 25xe0
EndSplineSet
EndChar

StartChar: NameMe.280
Encoding: 337 -1 270
Width: 610
VWidth: 0
Flags: HW
HStem: 533 72.0107<112.063 349.158> 575 61<589 671>
VStem: 360 69<438.363 520.21> 524 65<-81 125 198 575> 524 38<677.684 702>
LayerCount: 2
Back
Fore
SplineSet
342 145.616210938 m 1x70
 111 278 l 1
 110 364 l 1
 110 364 310 404 310 482 c 0
 310 527 267 533 199 533 c 0
 143 533 62 533 62 533 c 1
 56 586 l 1
 56 586 129.219726562 605 197 605 c 0
 348 605 379 556.7890625 379 469 c 0
 379 367 198 315 198 315 c 1
 433 183.34375 l 1
 474 198 l 1xb0
 474 702 l 25
 512 702 l 1xa8
 531 636 l 9
 621 636 l 17
 621 575 l 1
 539 575 l 25
 539 -158 l 17
 473 -158 l 1
 224 16 l 1
 224 97 l 1
 342 145.616210938 l 1x70
474 -81 m 25
 474 125 l 25
 289 51 l 25
 474 -81 l 25
EndSplineSet
EndChar

StartChar: NameMe.281
Encoding: 338 -1 271
Width: 580
VWidth: 0
Flags: HW
HStem: 575.328 61<-9.90039 114 181 591.1>
VStem: 114 67<332 574.656> 412.1 65<-63 143>
LayerCount: 2
Back
Fore
SplineSet
475.099609375 214 m 13
 475.099609375 -140 l 1
 410.099609375 -140 l 1
 161.099609375 34 l 1
 161.099609375 115 l 1
 403.099609375 215 l 1
 424.19921875 363 l 1
 147 244 l 1
 113 294.500976562 l 25
 113 574.65625 l 1
 -11.900390625 575.328125 l 1
 -11.900390625 636.328125 l 1
 589.099609375 636.328125 l 1
 589.099609375 575.328125 l 1
 181 575.328125 l 1
 181 332 l 25
 458 452 l 1
 503.19921875 429 l 1
 475.099609375 214 l 13
410.099609375 -63 m 25
 410.099609375 143 l 25
 226.099609375 69 l 25
 410.099609375 -63 l 25
EndSplineSet
EndChar

StartChar: NameMe.282
Encoding: 339 -1 272
Width: 950
VWidth: 0
Flags: HW
HStem: 0 21G<396.5 530 813.039 905.035> 575 61<530 840 906 1008> 606.29 55.7998<178.3 309.959>
VStem: 106.42 62.707<516.104 597.539> 465 65<77 229.963 393.481 459 528 575> 840 65<82 459 532 575>
LayerCount: 2
Back
Fore
SplineSet
489 636 m 1xdc
 958 636 l 5
 958 575 l 13
 875 575 l 17xdc
 874 0 l 1
 809 0 l 1
 499 229.962890625 l 25
 499 0 l 1
 434 0 l 1
 56 281 l 1
 56 358 l 1
 192 419.513671875 l 1
 192 419.513671875 75.419921875 485.525390625 75.419921875 552.463867188 c 0
 75.419921875 605.014648438 109.489257812 662.08984375 170.192382812 662.08984375 c 0
 221 662.08984375 289 639 289 639 c 1
 279 599 l 17
 279 599 226 606.290039062 191.51953125 606.290039062 c 0xbc
 162.01171875 606.290039062 138.126953125 588.915039062 138.126953125 554.307617188 c 0
 138.126953125 510.03125 260 450 260 450 c 1
 434 528 l 25
 435 636 l 1
 430 702 l 1
 466 702 l 1
 489 636 l 1xdc
499 575 m 17
 499 393.481445312 l 25
 809 532 l 9
 809 575 l 1
 499 575 l 17
809 82 m 25
 809 459 l 25
 502 316 l 25
 809 82 l 25
434 77 m 25
 434 459 l 25
 122 315 l 25
 434 77 l 25
EndSplineSet
EndChar

StartChar: NameMe.283
Encoding: 340 -1 273
Width: 646
VWidth: 0
Flags: HW
HStem: 449.226 70.1729<193.576 334.656> 575 61<-11 491 558 658>
VStem: 101.355 68.3916<316.391 424.85> 491 67<-41 165 240 370 431 574>
LayerCount: 2
Back
Fore
SplineSet
491 370 m 17
 491 370 343.838809029 449.225585938 242.708007812 449.225585938 c 0
 198.444335938 449.225585938 169.747070312 407.1875 169.747070312 368.705078125 c 0
 169.747070312 334.668611691 257 239 257 239 c 1
 222 198 l 1
 222 198 101.35546875 294.016191479 101.35546875 376.431640625 c 0
 101.35546875 416.131835938 115.629882812 454.03515625 145 479 c 0
 180.502929688 509.177734375 220.908203125 519.3984375 258.963867188 519.3984375 c 0
 334.690174154 519.3984375 491 431 491 431 c 9
 491 575 l 1
 -11 575 l 1
 -11 636 l 1
 658 636 l 1
 658 575 l 1
 558 575 l 9
 558 -118 l 17
 491 -118 l 1
 242 56 l 1
 242 137 l 1
 491 240 l 1
 491 370 l 17
491 -41 m 25
 491 165 l 25
 307 91 l 25
 491 -41 l 25
EndSplineSet
EndChar

StartChar: NameMe.286
Encoding: 341 -1 274
Width: 975
VWidth: 0
Flags: HW
HStem: 0 21G<420.096 512.035 794.095 886.035> 575 61<-14 447 513 821 887 988.973>
VStem: 447 65<82 229.398 393.072 459 532 575> 821 65<82 459 532 575>
LayerCount: 2
Back
Fore
SplineSet
988.97265625 636.328125 m 5
 989 575 l 9
 887 575 l 17
 886 0 l 1
 821 0 l 1
 512.40234375 229.3984375 l 25
 512 0 l 1
 447 0 l 1
 69 281 l 1
 69 362 l 1
 447 532 l 25
 447 575 l 9
 -14 575 l 17
 -14 636 l 5
 988.97265625 636.328125 l 5
513 575 m 17
 512.697265625 393.072265625 l 1
 821 532 l 9
 821 575 l 1
 513 575 l 17
821 82 m 25
 821 459 l 25
 514 316 l 25
 821 82 l 25
447 82 m 25
 447 459 l 25
 140 316 l 25
 447 82 l 25
EndSplineSet
EndChar

StartChar: NameMe.288
Encoding: 342 -1 275
Width: 575
VWidth: 0
Flags: HW
HStem: 421 69<153.765 223.026> 575 61<8 159 234 427 489 575>
VStem: 72 65<332.023 407.748> 226.834 67.1661<478.314 530.166> 413 65<46 252> 485 69<412.056 504.468>
LayerCount: 2
Back
Fore
SplineSet
393 327 m 1
 393 327 178.50685407 421 158 421 c 0
 147 421 141.522473371 415.288204731 129 394 c 0
 119 377 114 363 114 356 c 0
 114 344.08203125 167 306 167 306 c 1
 143 266 l 1
 143 266 104.355818081 284.772602689 87 298 c 0
 66.0022846155 314.002998114 51 336 51 357 c 0
 51 380 56 398 73 426 c 0
 105 479 119 490 146 490 c 0
 166 490 200 478 200 478 c 1
 200 478 205.833984375 494.819335938 205.833984375 500.767578125 c 0
 205.833984375 520.339451367 138 575 138 575 c 1
 -13 575 l 17
 -13 636 l 1
 584 636 l 1
 584 575 l 9
 468 575 l 1
 468 575 533 480.614850164 533 451 c 0
 533 406 458 322 458 322 c 1
 457 -31 l 1
 392 -31 l 5
 143 143 l 5
 143 224 l 1
 393 327 l 1
261 459 m 1
 261 459 402 385 412 385 c 0
 425 385 464 438 464 456 c 0
 464 482.577886397 406 575 406 575 c 1
 213 575 l 1
 213 575 273 530 273 510 c 0
 273 496 261 459 261 459 c 1
392 46 m 25
 392 252 l 25
 208 178 l 25
 392 46 l 25
EndSplineSet
EndChar

StartChar: NameMe.290
Encoding: 343 -1 276
Width: 975
VWidth: 0
Flags: HW
HStem: -8.43359 97.9033<127.673 223> 0 21G<420.096 512.035 794.095 886.035> 575 61<-14 447 513 821 887 988.973>
VStem: 127.673 95.3271<-8.43359 89.4697> 447 65<82 229.398 393.072 459 532 575> 821 65<82 459 532 575>
LayerCount: 2
Back
Fore
SplineSet
988.97265625 636.328125 m 1x7c
 989 575 l 9
 887 575 l 17
 886 0 l 1
 821 0 l 1
 512.40234375 229.3984375 l 25
 512 0 l 1
 447 0 l 1
 69 281 l 1
 69 362 l 1
 447 532 l 25
 447 575 l 9
 -14 575 l 17
 -14 636 l 1
 988.97265625 636.328125 l 1x7c
513 575 m 17
 512.697265625 393.072265625 l 1
 821 532 l 9
 821 575 l 1
 513 575 l 17
821 82 m 25
 821 459 l 25
 514 316 l 25
 821 82 l 25
447 82 m 25
 447 459 l 25
 140 316 l 25
 447 82 l 25
127.672851562 11.318359375 m 2
 127.672851562 68 l 2
 127.672851562 80.8818359375 134.543945312 89.4697265625 148.284179688 89.4697265625 c 2
 201.530273438 89.4697265625 l 2
 216.989257812 89.4697265625 223 81.740234375 223 68 c 2
 223 11.318359375 l 2
 223 -4.1396484375 213.552734375 -8.43359375 201.530273438 -8.43359375 c 2
 148.284179688 -8.43359375 l 2xbc
 136.26171875 -8.43359375 127.672851562 -0.705078125 127.672851562 11.318359375 c 2
EndSplineSet
EndChar

StartChar: NameMe.291
Encoding: 344 -1 277
Width: 725
VWidth: 0
Flags: HW
HStem: 426 67<170.219 345.866 459.297 584.813> 575 61<-2 600 667 771>
VStem: 85 65<300.75 406.122> 132 46<213.87 245.116> 369 52<280 311.818> 598 68<-26 180 255 413.353 477 574>
LayerCount: 2
Back
Fore
SplineSet
656 -103 m 17xec
 588 -103 l 1
 339 71 l 1
 339 152 l 1
 588 255 l 17
 588 338 l 0
 588 387 580 426 522 426 c 2
 508 426 l 2
 450 426 437.58984375 400.865234375 422 330 c 2
 411 280 l 1
 359 279 l 1
 356 329 l 2
 351.513671875 403.772460938 331 427 284 427 c 2
 214 427 l 2
 171 427 140 397 140 351 c 0xec
 140 303.525390625 168 216 168 216 c 1
 122 202 l 1xdc
 122 202 75 276.68359375 75 365 c 0
 75 452 141 497 211 497 c 2
 285 498 l 2
 344 498 381 483 393 442 c 1
 415 485 451 493 512 493 c 2
 528 493 l 2
 552.0859375 493 588 477 588 477 c 9
 588 575 l 1
 -12 575 l 1
 -12 636 l 1
 734 636 l 1
 734 575 l 1
 657 575 l 1
 656 -103 l 17xec
588 -26 m 25
 588 180 l 25
 404 106 l 25
 588 -26 l 25
EndSplineSet
EndChar

StartChar: NameMe.292
Encoding: 345 -1 278
Width: 645
VWidth: 0
Flags: HW
HStem: 264 66.751<51 198.45 297.794 417.674> 526 69<29.3355 204.982 298.308 490.52> 575 61<570 674>
VStem: 215 71<348.986 511.392> 501 69<-77 129 204 509.715 572 575 636 661.773> 523 47<691.227 717>
LayerCount: 2
Back
Fore
SplineSet
558 -154 m 1xb4
 489 -154 l 1
 240 20 l 1
 240 101 l 1
 489 204 l 17
 489 489 l 1
 489 519 402 521 351 521 c 0
 296.77078359 521 274 510 274 459 c 2
 274 384 l 2
 274 345 294.764648438 331 314 331 c 0
 348 331 404 334 404 334 c 1
 413 279 l 1
 413 279 344 264 309 264 c 0
 262 264 241 301 241 301 c 1
 241 301 208 264 156 264 c 0
 121 264 32 271 32 271 c 1
 39 331 l 1
 39 331 124 331 148 331 c 0
 172.235384062 331 203 354 203 384 c 2
 203 469 l 2
 203 513 171 526 145 526 c 0
 110 526 1 511 1 511 c 1
 -8 567 l 1
 -8 567 107 595 159 595 c 0xd8
 199 595 225 588 249 558 c 1
 269 588 301 590 344 590 c 0
 380 590 460 587 489 572 c 1
 489 636 l 9xb8
 511 717 l 1
 558 717 l 1xb4
 558 636 l 25
 652 636 l 17
 652 575 l 1
 558 575 l 25xb8
 558 -154 l 1xb4
489 -77 m 25
 489 129 l 25
 305 55 l 25
 489 -77 l 25
EndSplineSet
EndChar

StartChar: NameMe.294
Encoding: 347 -1 280
Width: 710
VWidth: 0
Flags: HW
HStem: 324 75<138.545 220.755> 575 61<2 300 364.787 566 629 730>
VStem: 516 65<52 258> 590 75<424.724 539.057>
LayerCount: 2
Back
Fore
SplineSet
323 484 m 1
 323 484 503 399 525 399 c 0
 538 399 577 445 577 465 c 0
 577 490 553 575 553 575 c 1
 361 575 l 1
 323 484 l 1
569 333 m 1
 568 -25 l 1
 503 -25 l 1
 254 149 l 1
 254 230 l 1
 504 333 l 17
 295 425 l 1
 295 425 240 324 193 324 c 0
 161 324 48 383 48 383 c 1
 67 431 l 1
 67 431 158 399 181 399 c 0
 211 399 287 575 287 575 c 1
 -11 575 l 17
 -11 636 l 1
 717 636 l 1
 717 575 l 9
 616 575 l 1
 616 575 652 500 652 463 c 0
 652 422 569 333 569 333 c 1
503 52 m 25
 503 258 l 25
 319 184 l 25
 503 52 l 25
EndSplineSet
EndChar

StartChar: NameMe.295
Encoding: 348 -1 281
Width: 945
VWidth: 0
Flags: HW
HStem: 0 21G<781.134 873.035> 443 72<94.1278 406.503> 575 61<-14 808 874 976>
VStem: 429 61<390.333 421.792> 808 65<82 459 532 575>
LayerCount: 2
Back
Fore
SplineSet
-14 636 m 1
 956 636 l 5
 956 575 l 13
 874 575 l 17
 873 0 l 1
 808 0 l 1
 463 256.826171875 l 1
 463 256.826171875 402.843809915 180.4583875 209 147 c 1
 492 -18 l 25
 467 -65 l 1
 467 -65 244.000000277 33.3922989136 94 128 c 9
 102 198 l 1
 102 198 429 258 429 342 c 0
 429 439 391 443 321 443 c 0
 259 443 94 443 94 443 c 1
 86 496 l 1
 86 496 216.248567942 515 311 515 c 0
 484 515 490 390.333007812 490 390.333007812 c 9
 808 532 l 9
 808 575 l 1
 -14 575 l 17
 -14 636 l 1
808 82 m 25
 808 459 l 25
 501 316 l 25
 808 82 l 25
EndSplineSet
EndChar

StartChar: NameMe.296
Encoding: 363 -1 296
Width: 680
VWidth: 0
Flags: HW
HStem: 575 61<-12 312 377 693>
VStem: 312 65<29 235 310 467 542 574> 539.146 74.5596<96.1244 188.858> 554.146 71.5596<323.943 420.17>
LayerCount: 2
Back
Fore
SplineSet
312 29 m 1xc0
 312 238 l 1
 134 163 l 1
 312 29 l 1xc0
504 274 m 25
 541 339 l 2
 549.640446067 354.17916201 554.145507812 367.150390625 554.145507812 378.802734375 c 0xd0
 554.145507812 411.979492188 525.6953125 432.6875 477 444 c 2
 378 467 l 1
 377 307 l 1
 504 274 l 25
563 254 m 1
 563 254 613.705078125 228 613.705078125 158.375976562 c 0
 613.705078125 137.4765625 610 110 591 79 c 0
 567.788595713 41.1287614271 526 -7 526 -7 c 1
 473 18 l 25
 525 109 l 2
 534.004299028 124.757523298 539.145507812 140.150390625 539.145507812 151.802734375 c 0xe0
 539.145507812 184.979492188 501.435607094 203.769304229 461 214 c 2
 378 235 l 1
 377 -53 l 1
 312 -53 l 1
 66 128 l 1
 66 209 l 1
 161 248.177734375 l 1
 36 348 l 1
 36 429 l 1
 312 542 l 25
 312 574 l 1
 -12 575 l 1
 -12 636 l 1
 693 636 l 1
 693 575 l 1
 377 575 l 1
 378 538 l 1
 526 500 l 2
 572.287109375 486.239257812 625.705078125 445.88671875 625.705078125 380.375976562 c 0
 625.705078125 359.4765625 623.705421912 333.660384727 607 309 c 0
 586 278 563 254 563 254 c 1
312 310 m 9
 312 469 l 25
 104 380 l 25
 232 277.24609375 l 25
 312 310 l 9
EndSplineSet
EndChar

StartChar: NameMe.297
Encoding: 364 -1 297
Width: 700
VWidth: 0
Flags: HW
HStem: 107.178 62.2803<127.035 248.898> 575 61<-12 348 413 713>
VStem: 55.6738 63.9619<14.7129 99.1766> 348 66<-68 48.7685 101 144.754 212 467 542 574> 590.146 71.5596<332.102 420.17>
LayerCount: 2
Back
Fore
SplineSet
348 38 m 1
 348 38 232.361495564 107.177734375 171.544921875 107.177734375 c 0
 133.291015625 107.177734375 119.635742188 77.162109375 119.635742188 66.87890625 c 0
 119.635742188 27 187 -42 187 -42 c 1
 157 -78 l 5
 157 -78 110.763305594 -46.1865085795 93.357421875 -25.8251953125 c 4
 67.8547409823 4.00770965143 55.673828125 32.55078125 55.673828125 70.33203125 c 4
 55.673828125 81.5576171875 59.225606259 113.658047829 83.6630859375 136.924804688 c 4
 110 162 132.087890625 169.458007812 173.64453125 169.458007812 c 4
 235.806034911 169.458007812 348 101 348 101 c 9
 348 130 l 1
 72 348 l 1
 72 429 l 1
 348 542 l 25
 348 574 l 1
 -12 575 l 1
 -12 636 l 1
 713 636 l 1
 713 575 l 1
 413 575 l 25
 414 538 l 1
 545 503 l 2
 591.287109375 489.239257812 644.705078125 448.88671875 644.705078125 383.375976562 c 0
 644.705078125 362.4765625 641.153320312 337.643554688 626 312 c 0
 600 268 556 220 556 220 c 1
 503 245 l 17
 503 245 559.994601452 341.983653962 560 342 c 2
 568.833984375 357.033203125 573.145507812 370.150390625 573.145507812 381.802734375 c 0
 573.145507812 414.979492188 544.6953125 435.6875 496 447 c 2
 414 467 l 1
 413 -68 l 9
 348 -68 l 17
 348 38 l 1
348 212 m 25
 348 469 l 25
 140 380 l 25
 348 212 l 25
EndSplineSet
EndChar

StartChar: NameMe.303
Encoding: 370 -1 303
Width: 745
VWidth: 0
Flags: HW
HStem: 0.360352 70.2393<281.654 400.736> 272.84 61.4404<306 428.212> 298.353 63.7715<505.384 636.729> 449.399 66.3604<204.28 430.982> 575 61<-14 756>
VStem: 435.04 68.7207<363.109 442.31> 483.52 71.4805<145.416 237.75> 611.779 44.9219<116.678 146.306> 641.002 64.7158<167.199 289.754>
LayerCount: 2
Back
Fore
SplineSet
756 575.328125 m 25x98
 -14 575 l 1
 -14 636 l 1
 756 636.328125 l 1
 756 575.328125 l 25x98
498.24609375 362 m 1
 498.24609375 362 547.51689838 362.124023438 579.456054688 362.124023438 c 0
 658 362.124023438 705.717773438 324 705.717773438 265.370117188 c 0xbc80
 705.717773438 241.040039062 701 220 695.116210938 200.584960938 c 0
 684.665039062 166.099609375 656.701171875 105.365234375 656.701171875 105.365234375 c 1
 611.779296875 118.766601562 l 25xb9
 635.6015625 212.487304688 l 2
 640.470703125 231.642578125 641.001953125 246.68359375 641.001953125 258.3359375 c 0
 641.001953125 297 603 298.352539062 546.614257812 298.352539062 c 0
 529.66243354 298.352539062 505.383789062 298 505.383789062 298 c 1
 505.383789062 298 555.32546825 230.560494676 555 182.919921875 c 0
 554.69941023 138.920948639 497.080078125 66.3603515625 414.360351562 19.7197265625 c 0
 389.719726562 5.6396484375 358.040039062 0.3603515625 336.919921875 0.3603515625 c 0
 286.759765625 0.3603515625 234.807695329 22.3369562093 169.719726562 110.360351562 c 0
 99 206 48 325 48 325 c 1
 86.3203125 347.120117188 l 1
 228.639648438 150.559570312 l 2
 259.889648438 106.959960938 292.360351562 70.599609375 339.799804688 70.599609375 c 0
 377.639648438 70.599609375 417.040039062 102.919921875 431.120117188 114.360351562 c 0
 478.639648438 152.200195312 483.51953125 180.280273438 483.51953125 190.83984375 c 0xba80
 483.51953125 206.599609375 448.48046875 272.83984375 418.51953125 272.83984375 c 1
 306 272.83984375 l 1
 306 334.280273438 l 1
 306 334.280273438 360 334.280273438 393.400390625 334.280273438 c 0
 432.625881256 334.280273438 435.040039062 374.228709692 435.040039062 408.040039062 c 0
 435.040039062 444.119140625 404 449.399414062 358.48046875 449.399414062 c 0
 317 449.399414062 204.200195312 449.279296875 204.200195312 449.279296875 c 1
 197.16015625 499.040039062 l 1
 197.16015625 499.040039062 291.999586117 515.759765625 361.720703125 515.759765625 c 0
 470 515.759765625 503.760742188 490.239257812 503.760742188 437.439453125 c 0xdc
 503.760742188 420.28425685 498.24609375 362 498.24609375 362 c 1
EndSplineSet
EndChar

StartChar: NameMe.306
Encoding: 373 -1 306
Width: 775
VWidth: 0
Flags: HW
LayerCount: 2
Back
Fore
SplineSet
379 158 m 1
 379 158 572 58 591 58 c 4
 604 58 637 106 637 121 c 0
 637 188 637 575 637 575 c 1
 379 575 l 1
 380 536 l 1
 480 510 l 2
 531.742225553 496.547021356 584.705078125 450.88671875 584.705078125 389.375976562 c 0
 584.705078125 368.4765625 578.522460938 340.783203125 562 316 c 0
 538 280 500 237 500 237 c 1
 451 264 l 17
 451 264 515.145507812 359.224378556 515.145507812 388.802734375 c 0
 515.145507812 418.979492188 484 441 436 453 c 2
 380 467 l 1
 379 158 l 1
314 177 m 1
 68 357 l 1
 68 438 l 1
 314 542 l 25
 314 575 l 1
 -12 575 l 1
 -12 636 l 1
 788 636 l 1
 788 575 l 1
 704 575 l 17
 704 575 704 210 704 112 c 0
 704 74 636 -15 616 -15 c 0
 577.131374063 -15 325.208687553 120 276 120 c 0
 265 120 260 114 247 93 c 0
 237 76 234 68 234 61 c 0
 234 53 239.274156941 46.305793776 246 40 c 0
 270.26208241 17.2531581675 291 0 291 0 c 1
 267 -40 l 5
 264.465074734 -39.6993543085 222.220602253 -18.1119134015 205 -5 c 4
 183.99497626 10.9934041929 169 35 169 56 c 0
 169 79 174 97 191 125 c 0
 223 178 237 189 264 189 c 0
 280 189 314 177 314 177 c 1
314 259 m 25
 314 469 l 1
 136 389 l 1
 314 259 l 25
EndSplineSet
EndChar

StartChar: NameMe.307
Encoding: 374 -1 307
Width: 750
VWidth: 0
Flags: HW
LayerCount: 2
Back
Fore
SplineSet
384 71 m 25
 348 71 l 2
 304 71 295.453125 54.5849609375 285 18 c 2
 273 -24 l 1
 227 -24 l 1
 224 27 l 2
 222.102539062 64.9541015625 205 77 172 77 c 2
 154 77 l 2
 111 77 98 68 98 38 c 0xe8
 98 31.0001562681 100.052734375 15.1005859375 102 8 c 2
 114 -55 l 1
 73 -68 l 1xd8
 73 -68 46.453125 -3.501953125 42 22 c 0
 40.2109375 32.2431640625 38 45 38 71 c 0
 38 133 86.080078125 138.310546875 156 141 c 2
 173 141 l 2
 223 141 255 126 261 89 c 1
 272 132 312 135 352 135 c 0
 362.666666667 135 384 135 384 135 c 9
 384 151 l 1
 108 349 l 1
 108 430 l 1
 384 543 l 25
 384 575 l 1
 -12 575 l 1
 -12 636 l 1
 762 636 l 1
 762 576 l 1
 449 576 l 1
 449 539 l 1
 581 504 l 2
 627.287109375 490.239257812 680.705078125 449.88671875 680.705078125 384.375976562 c 0
 680.705078125 363.4765625 677.153320312 338.643554688 662 313 c 0
 636 269 592 221 592 221 c 1
 539 246 l 17
 539 246 609.145507812 351.84040717 609.145507812 382.802734375 c 0
 609.145507812 415.979492188 580.6953125 436.6875 532 448 c 2
 450 468 l 1
 449 -51 l 9
 384 -51 l 17
 384 71 l 25
384 233 m 25
 384 470 l 25
 176 381 l 25
 384 233 l 25
EndSplineSet
EndChar

StartChar: NameMe.308
Encoding: 375 -1 308
Width: 750
VWidth: 0
Flags: HW
LayerCount: 2
Back
Fore
SplineSet
500 636 m 17
 500 690 484 708 436 708 c 0
 351 708 143 708 143 708 c 9
 139 758 l 1
 139 758 376 772 442 772 c 0
 536 772 570 714 570 636 c 9
 762 636 l 1
 762 576 l 1
 449 576 l 1
 450 539 l 1
 575 509 l 2
 621.634765625 496.540039062 674.705078125 453.88671875 674.705078125 388.375976562 c 0
 674.705078125 367.4765625 669.905273438 342.18359375 654 317 c 0
 642 298 627 277 604 253 c 1
 555 281 l 2
 590 347 l 2
 598.149388397 362.367418119 603.145507812 375.150390625 603.145507812 386.802734375 c 0
 603.145507812 419.979492188 574.6953125 440.6875 526 452 c 2
 450 468 l 1
 449 306 l 1
 360 94 l 2
 337 24 371 3 420 3 c 0
 462 3 526.000976562 17.9990234375 582 70 c 0
 611.67578125 97.556640625 621 113 621 127 c 0
 621 163 574 163 543 163 c 0
 523.747593224 163 479 163 479 163 c 1
 473 215 l 1
 473 215 535.467514794 224 577 224 c 0
 659 224 689 190 689 141 c 0
 689 106 668.321289062 72.0126953125 654 54 c 0
 579.689453125 -39.4609375 485 -68 416 -68 c 0
 351 -68 242.6875 -15.3095703125 288 91 c 2
 326 191 l 1
 108 349 l 1
 108 430 l 1
 384 543 l 25
 384 575 l 1
 -12 575 l 1
 -12 636 l 1
 500 636 l 17
355.079101562 253 m 25
 384 323 l 1
 384 470 l 1
 176 381 l 1
 355.079101562 253 l 25
EndSplineSet
EndChar

StartChar: NameMe.309
Encoding: 376 -1 309
Width: 750
VWidth: 0
Flags: HW
LayerCount: 2
Back
Fore
SplineSet
351.079101562 262 m 25
 384 345 l 1
 384 470 l 1
 176 381 l 1
 351.079101562 262 l 25
585 9.5283203125 m 1
 585 9.5283203125 501.550624303 -46 416 -46 c 0
 345 -46 245.94960537 5.4004607987 288 113 c 2
 322 200 l 1
 108 349 l 1
 108 430 l 1
 384 543 l 25
 384 575 l 1
 -12 575 l 1
 -12 636 l 1
 500 636 l 17
 500 690 484 708 436 708 c 0
 335 708 143 708 143 708 c 9
 139 758 l 1
 139 758 373 772 442 772 c 0
 536 772 570 714 570 636 c 9
 762 636 l 1
 762 576 l 1
 449 576 l 1
 450 539 l 1
 575 509 l 2
 621.634765625 496.540039062 674.705078125 455.88671875 674.705078125 390.375976562 c 0
 674.705078125 369.4765625 667.905273438 345.18359375 652 320 c 0
 640 301 632 292 610 268 c 1
 561 296 l 2
 590 347 l 2
 598.59132232 362.108877184 603.145507812 375.150390625 603.145507812 386.802734375 c 0
 603.145507812 419.979492188 574.6953125 440.6875 526 452 c 2
 450 468 l 1
 449 328 l 1
 360 116 l 2
 337 46 371 25 420 25 c 0
 462 25 526.000976562 39.9990234375 582 92 c 0
 611.67578125 119.556640625 621 135 621 149 c 0
 621 185 574 185 543 185 c 0
 521.961435811 185 479 185 479 185 c 1
 473 237 l 1
 473 237 525 246 577 246 c 0
 653.026311235 246 689 212 689 163 c 0
 689 117 654 76 654 76 c 9
 654 -200 l 1
 607 -200 l 1
 585 -116 l 1
 585 -116 381.38295339 -200 287 -200 c 0
 244 -200 179 -194 124 -111 c 0
 99 -73 69 3 69 3 c 5
 116 33 l 1
 181 -62 l 2
 220 -120 262 -128 290 -128 c 4
 387 -128 585 -48 585 -48 c 1
 585 9.5283203125 l 1
EndSplineSet
EndChar

StartChar: NameMe.310
Encoding: 377 -1 310
Width: 800
VWidth: 0
Flags: HW
LayerCount: 2
Back
Fore
SplineSet
638 -8 m 17
 638 -8 369 112 351 112 c 0
 343 112 253.502929688 -22 212 -22 c 0
 167 -22 68 46 68 46 c 1
 92 96 l 1
 92 96 185.155512544 56 198 56 c 0
 228 56 309 180 309 180 c 1
 68 357 l 1
 68 438 l 1
 314 542 l 25
 314 575 l 1
 -12 575 l 1
 -12 636 l 1
 810 636 l 1
 810 575 l 1
 703 575 l 25
 703 -68 l 17
 638 -68 l 1
 638 -8 l 17
638 66 m 9
 638 575 l 1
 379 575 l 1
 380 536 l 1
 480 510 l 2
 531.742225553 496.547021356 584.705078125 450.88671875 584.705078125 389.375976562 c 0
 584.705078125 368.4765625 578.522460938 340.783203125 562 316 c 0
 538 280 500 237 500 237 c 1
 451 264 l 17
 451 264 515.145507812 351.603587039 515.145507812 388.802734375 c 0
 515.145507812 418.979492188 484 441 436 453 c 2
 380 467 l 1
 379 182 l 1
 638 66 l 9
314 259 m 25
 314 469 l 1
 136 389 l 1
 314 259 l 25
EndSplineSet
EndChar

